<svg width="512" height="512" viewBox="0 0 512 512" fill="none" xmlns="http://www.w3.org/2000/svg">
<g clip-path="url(#clip0_1_598)">
<mask id="mask0_1_598" style="mask-type:luminance" maskUnits="userSpaceOnUse" x="0" y="0" width="512" height="512">
<path d="M0 0H512V512H0V0Z" fill="white"/>
</mask>
<g mask="url(#mask0_1_598)">
<path d="M512 0H0V512H512V0Z" fill="#D2D5D9"/>
<path opacity="0.25" d="M410.33 43.69L439.4 0H0V228L104.67 64.79C119.45 41.74 156.36 30.28 190.29 38.2L325.11 69.66C358.69 77.5 395.25 66.36 410.32 43.7L410.33 43.69Z" fill="white"/>
<path opacity="0.5" d="M512 268.42L269.42 147.13C265.254 145.049 260.662 143.965 256.005 143.965C251.348 143.965 246.756 145.049 242.59 147.13L0 268.42V512H512V268.42Z" fill="white"/>
<path d="M434.14 417.59C468.912 417.59 497.1 403.751 497.1 386.68C497.1 369.609 468.912 355.77 434.14 355.77C399.368 355.77 371.18 369.609 371.18 386.68C371.18 403.751 399.368 417.59 434.14 417.59ZM264.72 364.19C308.594 364.19 344.16 346.729 344.16 325.19C344.16 303.651 308.594 286.19 264.72 286.19C220.847 286.19 185.28 303.651 185.28 325.19C185.28 346.729 220.847 364.19 264.72 364.19ZM93.96 417.59C128.732 417.59 156.92 403.751 156.92 386.68C156.92 369.609 128.732 355.77 93.96 355.77C59.188 355.77 31 369.609 31 386.68C31 403.751 59.188 417.59 93.96 417.59Z" fill="#D2D5D9"/>
<path d="M186.24 300.71H185.28V319.81C185.28 338.98 216.94 354.53 256 354.53C295.06 354.53 326.72 338.99 326.72 319.81V300.71H186.24Z" fill="#975D48"/>
<path d="M256 335.43C295.058 335.43 326.72 319.886 326.72 300.71C326.72 281.535 295.058 265.99 256 265.99C216.942 265.99 185.28 281.535 185.28 300.71C185.28 319.886 216.942 335.43 256 335.43Z" fill="#BF8563"/>
<path d="M256 112.28C224.17 112.28 198.36 124.95 198.36 140.57V291.95C198.36 307.58 224.17 320.24 256 320.24C287.83 320.24 313.64 307.57 313.64 291.95V140.57C313.64 124.94 287.84 112.28 256 112.28Z" fill="#5AB2AC"/>
<path opacity="0.5" d="M256 246.17C224.17 246.17 198.36 233.5 198.36 217.88V256.39C198.36 267.98 212.56 277.93 232.87 282.31L268.07 245.55C264.18 245.96 260.14 246.18 256 246.18V246.17Z" fill="#83D6D0"/>
<path d="M244.54 284.12C240.48 283.72 236.58 283.1 232.87 282.3L208.38 307.88C209.94 309 211.66 310.07 213.53 311.07L244.54 284.12ZM313.64 217.88V159.84H198.37V177.28C198.37 192.72 208.91 206.12 223.89 209.88C233.53 212.3 244.44 213.66 256.01 213.66H256.41C267.26 213.65 276.06 222.44 276.06 233.28V237.21L268.09 245.54C294.12 242.81 313.65 231.47 313.65 217.87L313.64 217.88Z" fill="#399C97"/>
<path d="M276.05 280.24V288.56C276.05 299.55 267.21 308.6 256.21 308.62H256C224.17 308.62 198.36 295.95 198.36 280.33V291.96C198.36 307.59 224.17 320.25 256 320.25C287.83 320.25 313.64 307.58 313.64 291.96V253.72C313.64 265.89 298 276.25 276.05 280.25V280.24Z" fill="#399C97"/>
<path d="M256.51 273.71L265.36 266.02C262.42 268.58 259.47 271.14 256.52 273.7L256.51 273.71ZM244.54 284.12C248.51 280.67 252.51 277.19 256.52 273.71L244.54 284.12Z" fill="#399C97"/>
<path d="M276.38 244.34C273.7 244.84 270.93 245.25 268.07 245.54L232.87 282.3C236.57 283.1 240.47 283.71 244.54 284.12L256.52 273.71C259.47 271.15 262.42 268.58 265.36 266.03L299.25 236.58C293.09 240.01 285.26 242.7 276.38 244.35V244.34Z" fill="#399C97"/>
<path d="M299.25 236.57L265.36 266.02C269.54 262.4 276.05 265.36 276.05 270.9V282.92L276.38 282.86C298.15 278.82 313.64 268.49 313.64 256.39V217.88C313.64 225.05 308.21 231.59 299.25 236.57Z" fill="#399C97"/>
<path d="M186.24 144.96H185.28V164.06C185.28 183.23 216.94 198.78 256 198.78C295.06 198.78 326.72 183.24 326.72 164.06V144.96H186.24Z" fill="#975D48"/>
<path d="M256 176.68C219.29 176.68 188.28 162.15 188.28 144.96C188.28 127.77 219.29 113.24 256 113.24C292.71 113.24 323.72 127.77 323.72 144.96C323.72 162.15 292.71 176.68 256 176.68Z" fill="#A86C57"/>
<path d="M256 122.54C289.35 122.54 317.99 134.53 322.96 149.61C323.46 148.09 323.73 146.54 323.73 144.96C323.73 127.77 292.72 113.24 256.01 113.24C219.3 113.24 188.29 127.77 188.29 144.96C188.29 146.53 188.56 148.09 189.06 149.61C194.03 134.53 222.67 122.54 256.02 122.54H256Z" fill="#975D48"/>
<path d="M256 116.24C273.99 116.24 290.81 119.63 303.36 125.79C314.39 131.21 320.72 138.19 320.72 144.95C320.72 151.71 314.39 158.7 303.36 164.11C290.81 170.27 273.99 173.66 256 173.66C238.01 173.66 221.19 170.27 208.64 164.11C197.61 158.69 191.28 151.71 191.28 144.95C191.28 138.19 197.61 131.2 208.64 125.79C221.19 119.63 238.01 116.24 256 116.24ZM256 110.24C216.94 110.24 185.28 125.78 185.28 144.96C185.28 164.14 216.94 179.68 256 179.68C295.06 179.68 326.72 164.14 326.72 144.96C326.72 125.78 295.06 110.24 256 110.24Z" fill="#BF8563"/>
<path d="M371.94 365.78H371.19V380.61C371.19 395.5 395.77 407.56 426.1 407.56C456.43 407.56 481.01 395.49 481.01 380.61V365.78H371.94Z" fill="#975D48"/>
<path d="M426.09 392.73C456.416 392.73 481 380.664 481 365.78C481 350.896 456.416 338.83 426.09 338.83C395.764 338.83 371.18 350.896 371.18 365.78C371.18 380.664 395.764 392.73 426.09 392.73Z" fill="#BF8563"/>
<path d="M426.09 219.5C401.38 219.5 381.34 229.33 381.34 241.47V358.99C381.34 371.12 401.37 380.96 426.09 380.96C450.81 380.96 470.84 371.13 470.84 358.99V241.47C470.84 229.34 450.81 219.5 426.09 219.5Z" fill="#DE6A5A"/>
<path d="M381.35 257.35V284.23C389.23 289.66 401.1 293.6 414.87 295.01C422.45 295.78 429.56 299.03 434.95 304.42L435.05 304.52C437.609 307.077 439.64 310.114 441.024 313.456C442.409 316.799 443.121 320.382 443.12 324V331.99C443.12 339.29 440.22 346.29 435.07 351.45C428.79 357.74 419.84 360.69 411.08 359.15C393.76 356.12 381.36 348 381.36 338.45V358.99C381.36 371.12 401.39 380.96 426.11 380.96C450.83 380.96 470.86 371.13 470.86 358.99V257.36H381.37L381.35 257.35Z" fill="#CD5747"/>
<path d="M31.75 365.78H31V380.61C31 395.5 55.58 407.56 85.91 407.56C116.24 407.56 140.82 395.49 140.82 380.61V365.78H31.75Z" fill="#975D48"/>
<path d="M85.91 392.73C116.236 392.73 140.82 380.664 140.82 365.78C140.82 350.896 116.236 338.83 85.91 338.83C55.584 338.83 31 350.896 31 365.78C31 380.664 55.584 392.73 85.91 392.73Z" fill="#BF8563"/>
<path d="M85.9102 219.5C61.2002 219.5 41.1602 229.33 41.1602 241.47V358.99C41.1602 371.12 61.1902 380.96 85.9102 380.96C110.63 380.96 130.66 371.13 130.66 358.99V241.47C130.66 229.34 110.63 219.5 85.9102 219.5Z" fill="#E9AF58"/>
<path opacity="0.5" d="M41.1602 257.35V284.23C49.0402 289.66 60.9102 293.6 74.6802 295.01C82.2602 295.78 89.3702 299.03 94.7602 304.42L94.8602 304.52C97.4199 307.077 99.4502 310.114 100.835 313.456C102.22 316.799 102.932 320.382 102.93 324V331.99C102.93 339.29 100.03 346.29 94.8802 351.45C88.6002 357.74 79.6502 360.69 70.8902 359.15C53.5702 356.12 41.1702 348 41.1702 338.45V358.99C41.1702 371.12 61.2002 380.96 85.9202 380.96C110.64 380.96 130.67 371.13 130.67 358.99V257.36H41.1602V257.35Z" fill="#D9942D"/>
<path d="M351.13 158.07C346.49 153.84 339.3 154.16 335.06 158.8L200.66 306.05C198.71 308.19 201.73 311.22 203.86 309.27C257.74 260.12 351.66 174.5 351.86 174.14C356.09 169.5 355.77 162.31 351.13 158.07ZM346.02 170.22L335.44 180.8C335.02 181.222 334.519 181.558 333.968 181.786C333.417 182.014 332.827 182.131 332.23 182.13C331.07 182.13 329.9 181.69 329.02 180.8C327.25 179.03 327.25 176.15 329.02 174.37L339.6 163.79C340.454 162.94 341.61 162.463 342.815 162.463C344.02 162.463 345.176 162.94 346.03 163.79C347.8 165.56 347.8 168.44 346.03 170.22H346.02Z" fill="#9FA5AB"/>
<path d="M338.26 177.98V329.89C338.26 346.3 328.4 360.82 313.14 366.87L209.2 408.09C200.36 411.6 195.06 419.99 195.69 429.47C196.32 438.96 202.69 446.57 211.91 448.87L247.82 457.83C255.78 459.82 259.07 466.26 259.5 471.62C259.93 476.98 257.68 483.86 250.12 487.07L195.8 510.36H210.8L252.46 492.6C261.1 488.93 266.21 480.51 265.47 471.15C264.73 461.79 258.37 454.27 249.26 452L213.35 443.04C205.28 441.03 202.02 434.5 201.66 429.06C201.3 423.62 203.66 416.72 211.39 413.65L315.33 372.43C332.89 365.47 344.23 348.76 344.23 329.87V171.96L338.23 177.96L338.26 177.98Z" fill="#83D6D0"/>
<path opacity="0.5" d="M256 153.32C265.4 153.32 273.02 149.577 273.02 144.96C273.02 140.343 265.4 136.6 256 136.6C246.6 136.6 238.98 140.343 238.98 144.96C238.98 149.577 246.6 153.32 256 153.32Z" fill="#6D493C"/>
<path d="M470 366.48L467.62 365.45C431.913 349.95 403.606 321.209 388.65 285.27L385.45 277.58C382.95 276.25 380.72 274.8 378.79 273.25C378.49 273.91 378.46 274.68 378.75 275.38L384.57 289.36C399.523 325.301 427.831 354.043 463.54 369.54L467.86 371.42C468.87 371.86 470.05 371.64 470.83 370.85C472.17 369.51 471.74 367.24 470 366.48Z" fill="#EC856F"/>
<path d="M371.94 244.87H371.19V259.7C371.19 274.59 395.77 286.65 426.1 286.65C456.43 286.65 481.01 274.58 481.01 259.7V244.87H371.94Z" fill="#975D48"/>
<path d="M426.09 268.82C454.759 268.82 478 258.097 478 244.87C478 231.643 454.759 220.92 426.09 220.92C397.421 220.92 374.18 231.643 374.18 244.87C374.18 258.097 397.421 268.82 426.09 268.82Z" fill="#A86C57"/>
<path d="M426.09 223.92C439.86 223.92 452.71 226.51 462.27 231.2C470.36 235.17 475 240.15 475 244.87C475 249.59 470.36 254.57 462.27 258.54C452.71 263.23 439.86 265.82 426.09 265.82C412.32 265.82 399.47 263.23 389.91 258.54C381.82 254.57 377.18 249.59 377.18 244.87C377.18 240.15 381.82 235.17 389.91 231.2C399.47 226.5 412.32 223.92 426.09 223.92ZM426.09 217.92C395.77 217.92 371.18 229.99 371.18 244.87C371.18 259.75 395.76 271.82 426.09 271.82C456.42 271.82 481 259.75 481 244.87C481 229.99 456.42 217.92 426.09 217.92Z" fill="#BF8563"/>
<path opacity="0.5" d="M426.09 250.8C432.762 250.8 438.17 248.145 438.17 244.87C438.17 241.595 432.762 238.94 426.09 238.94C419.418 238.94 414.01 241.595 414.01 244.87C414.01 248.145 419.418 250.8 426.09 250.8Z" fill="#6D493C"/>
<path d="M31.75 244.87H31V259.7C31 274.59 55.58 286.65 85.91 286.65C116.24 286.65 140.82 274.58 140.82 259.7V244.87H31.75Z" fill="#975D48"/>
<path d="M85.91 268.82C114.579 268.82 137.82 258.097 137.82 244.87C137.82 231.643 114.579 220.92 85.91 220.92C57.24 220.92 34 231.643 34 244.87C34 258.097 57.24 268.82 85.91 268.82Z" fill="#A86C57"/>
<path d="M85.91 223.92C99.68 223.92 112.53 226.51 122.09 231.2C130.18 235.17 134.82 240.15 134.82 244.87C134.82 249.59 130.18 254.57 122.09 258.54C112.53 263.23 99.68 265.82 85.91 265.82C72.14 265.82 59.29 263.23 49.73 258.54C41.64 254.57 37 249.59 37 244.87C37 240.15 41.64 235.17 49.73 231.2C59.29 226.5 72.14 223.92 85.91 223.92ZM85.91 217.92C55.59 217.92 31 229.99 31 244.87C31 259.75 55.58 271.82 85.91 271.82C116.24 271.82 140.82 259.75 140.82 244.87C140.82 229.99 116.24 217.92 85.91 217.92Z" fill="#BF8563"/>
<path opacity="0.5" d="M85.9101 250.8C92.5821 250.8 97.9901 248.145 97.9901 244.87C97.9901 241.595 92.5821 238.94 85.9101 238.94C79.2381 238.94 73.8301 241.595 73.8301 244.87C73.8301 248.145 79.2381 250.8 85.9101 250.8Z" fill="#6D493C"/>
<path d="M129.82 366.48L127.44 365.45C91.7329 349.95 63.4259 321.209 48.4702 285.27L45.2702 277.58C42.7702 276.25 40.5402 274.8 38.6102 273.25C38.3102 273.91 38.2802 274.68 38.5702 275.38L44.3902 289.36C59.3429 325.301 87.6508 354.043 123.36 369.54L127.68 371.42C128.69 371.86 129.87 371.64 130.65 370.85C131.99 369.51 131.56 367.24 129.82 366.48Z" fill="#FFC875"/>
<path d="M310.86 299.96L307.86 298.66C262.728 279.072 226.95 242.745 208.05 197.32L204.01 187.6C200.85 185.92 198.03 184.09 195.59 182.13C195.21 182.97 195.17 183.94 195.54 184.82L202.89 202.49C221.793 247.913 257.57 284.239 302.7 303.83L308.16 306.2C309.44 306.76 310.93 306.47 311.92 305.49C313.62 303.8 313.07 300.93 310.87 299.97L310.86 299.96Z" fill="#83D6D0"/>
</g>
</g>
<defs>
<clipPath id="clip0_1_598">
<rect width="512" height="512" fill="white"/>
</clipPath>
</defs>
</svg>
