<svg width="512" height="512" viewBox="0 0 512 512" fill="none" xmlns="http://www.w3.org/2000/svg">
<g clip-path="url(#clip0_1_643)">
<mask id="mask0_1_643" style="mask-type:luminance" maskUnits="userSpaceOnUse" x="0" y="0" width="512" height="512">
<path d="M0 0H512V512H0V0Z" fill="white"/>
</mask>
<g mask="url(#mask0_1_643)">
<path opacity="0.5" d="M145.98 0H0V231.98L145.98 183.33V0Z" fill="white"/>
<path d="M512 0H0V512H512V0Z" fill="#D2D5D9"/>
<path opacity="0.5" d="M145.98 0V183.33C145.98 183.33 350.7 251.57 512 305.34V0H145.98Z" fill="#E8E9EB"/>
<path opacity="0.5" d="M0 231.98V512H512V305.33C350.7 251.56 145.98 183.32 145.98 183.32L0 231.98Z" fill="white"/>
<path opacity="0.5" d="M461.33 380L37.3398 409.33L345.34 512H512V396.89C496.34 391.67 479.02 385.9 461.33 380Z" fill="#B6BABF"/>
<path opacity="0.25" d="M58.68 76.41C72.18 81.62 87.3 74.49 91.86 60.76L112.06 0H0V178.21L25.25 92.87C29.45 78.68 44.87 71.09 58.68 76.42V76.41ZM452.56 6.25C464.48 27.74 454.66 50.67 430.77 57.09C402.32 64.74 394.95 94.98 416.04 117.56L511.99 220.26V0H449.08L452.55 6.25H452.56Z" fill="white"/>
<path d="M293.34 172L37.3398 257.33L205.34 313.33L461.34 228L293.34 172Z" fill="#BF8563"/>
<path d="M461.34 228L205.34 313.33V465.33L461.34 380V228Z" fill="#975D48"/>
<path d="M37.3398 409.33L205.34 465.33V313.33L37.3398 257.33V409.33Z" fill="#975D48"/>
<path opacity="0.5" d="M37.3398 409.33L205.34 465.33V313.33L37.3398 257.33V409.33Z" fill="#BF8563"/>
<path d="M326.56 132.49L191.31 177.57L280.07 207.16L415.31 162.08L326.56 132.49Z" fill="#E9AF58"/>
<path d="M415.31 162.08L280.07 207.16V271.16L415.31 226.08V162.08Z" fill="#D9942D"/>
<path d="M191.31 241.57L280.07 271.16V207.16L191.31 177.57V241.57Z" fill="#E0A143"/>
<path d="M287.66 116.96L231.49 98.39V164.59L287.66 183.16V116.96Z" fill="#975D48"/>
<path d="M287.66 116.96L231.49 98.39V164.59L287.66 183.16V116.96Z" fill="#BF8563"/>
<path d="M290.09 80.88L231.49 98.39L287.66 116.96L343.21 98.44L290.09 80.88Z" fill="#BF8563"/>
<path d="M343.21 98.44L287.66 116.96V183.16L343.21 164.64V98.44Z" fill="#975D48"/>
<path d="M143.62 177.28L87.4502 158.71V252.41L143.62 270.98V177.28Z" fill="#5BA7B1"/>
<path d="M146.05 141.2L87.4502 158.71L143.62 177.28L199.17 158.76L146.05 141.2Z" fill="#7FBEC6"/>
<path d="M199.17 158.76L143.62 177.28V270.98L199.17 252.46V158.76Z" fill="#3C8B96"/>
<path d="M220.32 216.62L152.7 239.16L197.08 253.95L264.7 231.41L220.32 216.62Z" fill="#EC856F"/>
<path d="M264.7 231.41L197.08 253.95V288.52L264.7 265.98V231.41Z" fill="#CD5747"/>
<path d="M152.7 273.73L197.08 288.52V253.95L152.7 239.16V273.73Z" fill="#DE6A5A"/>
<path d="M73.6602 269.44V307.26C73.661 308.309 73.9916 309.331 74.6054 310.182C75.2192 311.032 76.0849 311.669 77.0802 312L96.1502 318.36C98.0902 319.01 100.1 317.56 100.1 315.51V278.25L73.6702 269.44H73.6602ZM108.76 165.76V185.28C108.761 186.329 109.092 187.351 109.705 188.202C110.319 189.052 111.185 189.689 112.18 190.02L118.35 192.08C120.29 192.73 122.3 191.28 122.3 189.23V170.23L108.76 165.75V165.76Z" fill="white"/>
<path d="M221.75 245.73V255.44C221.75 257.49 223.76 258.93 225.7 258.29L241.66 252.97C242.655 252.639 243.521 252.002 244.135 251.152C244.749 250.301 245.079 249.279 245.08 248.23V237.96L221.75 245.74V245.73Z" fill="#E8E9EB"/>
<path d="M437.34 256.36C437.34 256.043 437.265 255.731 437.121 255.449C436.977 255.166 436.768 254.922 436.511 254.737C436.254 254.551 435.957 254.43 435.644 254.381C435.331 254.333 435.011 254.36 434.71 254.46L398.71 266.46C398.311 266.592 397.964 266.847 397.718 267.188C397.472 267.53 397.339 267.939 397.34 268.36V273.89C397.34 274.207 397.415 274.519 397.559 274.801C397.703 275.084 397.912 275.327 398.169 275.513C398.425 275.699 398.723 275.82 399.036 275.869C399.349 275.917 399.669 275.89 399.97 275.79L435.97 263.79C436.369 263.658 436.716 263.403 436.962 263.062C437.208 262.72 437.34 262.31 437.34 261.89V256.36Z" fill="#BF8563"/>
<path opacity="0.5" d="M398.71 282.46C398.311 282.592 397.964 282.847 397.718 283.188C397.472 283.53 397.339 283.94 397.34 284.36V285.64C397.34 285.957 397.415 286.269 397.559 286.551C397.703 286.834 397.912 287.078 398.169 287.263C398.425 287.449 398.723 287.57 399.036 287.619C399.349 287.667 399.669 287.64 399.97 287.54L419.97 280.87C420.369 280.738 420.716 280.483 420.962 280.142C421.208 279.8 421.34 279.391 421.34 278.97V277.69C421.34 277.373 421.265 277.061 421.121 276.779C420.977 276.496 420.768 276.253 420.511 276.067C420.254 275.881 419.957 275.76 419.644 275.711C419.331 275.663 419.011 275.69 418.71 275.79L398.71 282.46ZM398.71 293.31C398.311 293.443 397.964 293.697 397.718 294.038C397.472 294.38 397.339 294.79 397.34 295.21V296.49C397.34 296.807 397.415 297.119 397.559 297.401C397.703 297.684 397.912 297.928 398.169 298.113C398.425 298.299 398.723 298.42 399.036 298.469C399.349 298.517 399.669 298.49 399.97 298.39L419.97 291.72C420.369 291.588 420.716 291.333 420.962 290.992C421.208 290.65 421.34 290.241 421.34 289.82V288.54C421.34 288.223 421.265 287.911 421.121 287.629C420.977 287.346 420.768 287.103 420.511 286.917C420.254 286.731 419.957 286.61 419.644 286.561C419.331 286.513 419.011 286.54 418.71 286.64L398.71 293.31Z" fill="#BF8563"/>
<path d="M125.04 229.29C125.439 229.422 125.786 229.677 126.032 230.018C126.278 230.36 126.411 230.769 126.41 231.19V232.47C126.41 232.787 126.335 233.099 126.191 233.381C126.047 233.664 125.838 233.907 125.581 234.093C125.325 234.279 125.027 234.4 124.714 234.449C124.401 234.497 124.081 234.47 123.78 234.37L103.78 227.7C103.381 227.568 103.034 227.313 102.788 226.972C102.542 226.63 102.41 226.221 102.41 225.8V224.52C102.41 224.203 102.485 223.891 102.629 223.609C102.773 223.326 102.982 223.083 103.239 222.897C103.496 222.711 103.793 222.59 104.106 222.541C104.419 222.493 104.739 222.52 105.04 222.62L125.04 229.29ZM125.04 240.15C125.439 240.282 125.786 240.537 126.032 240.878C126.278 241.22 126.411 241.629 126.41 242.05V243.33C126.41 243.647 126.335 243.959 126.191 244.241C126.047 244.524 125.838 244.767 125.581 244.953C125.325 245.139 125.027 245.26 124.714 245.309C124.401 245.357 124.081 245.33 123.78 245.23L103.78 238.56C103.381 238.428 103.034 238.173 102.788 237.832C102.542 237.49 102.41 237.081 102.41 236.66V235.38C102.41 235.063 102.485 234.751 102.629 234.469C102.773 234.186 102.982 233.943 103.239 233.757C103.496 233.571 103.793 233.45 104.106 233.401C104.419 233.353 104.739 233.38 105.04 233.48L125.04 240.15Z" fill="#7FBEC6"/>
<path d="M309.49 124.73C309.091 124.862 308.744 125.117 308.498 125.458C308.252 125.8 308.12 126.209 308.12 126.63V127.91C308.12 128.227 308.195 128.539 308.339 128.821C308.483 129.104 308.692 129.347 308.949 129.533C309.206 129.719 309.503 129.84 309.816 129.889C310.129 129.937 310.449 129.91 310.75 129.81L330.75 123.14C331.149 123.008 331.496 122.753 331.742 122.412C331.988 122.07 332.12 121.661 332.12 121.24V119.96C332.12 119.643 332.045 119.331 331.901 119.049C331.757 118.766 331.548 118.523 331.291 118.337C331.034 118.151 330.737 118.03 330.424 117.981C330.111 117.933 329.791 117.96 329.49 118.06L309.49 124.73Z" fill="#BF8563"/>
<path d="M355.7 199.81L299.9 218.42C299.501 218.552 299.154 218.807 298.908 219.148C298.662 219.49 298.53 219.9 298.53 220.32V221.59C298.53 221.907 298.605 222.219 298.749 222.501C298.893 222.784 299.102 223.027 299.359 223.213C299.616 223.399 299.913 223.52 300.226 223.569C300.539 223.617 300.86 223.59 301.16 223.49L356.96 204.88C357.359 204.748 357.707 204.493 357.953 204.152C358.198 203.81 358.331 203.401 358.33 202.98V201.7C358.33 200.34 356.99 199.37 355.7 199.8V199.81Z" fill="#E9AF58"/>
<path d="M377.38 174.72V189.52C377.38 191.57 379.39 193.01 381.33 192.37L397.29 187.05C398.285 186.719 399.151 186.082 399.765 185.232C400.378 184.381 400.709 183.359 400.71 182.31V166.95L377.38 174.73V174.72Z" fill="#E8E9EB"/>
<path d="M245.83 103.13V121C245.831 122.049 246.162 123.071 246.775 123.922C247.389 124.772 248.255 125.409 249.25 125.74L255.42 127.8C257.36 128.45 259.37 127 259.37 124.95V107.6L245.83 103.12V103.13Z" fill="white"/>
<path d="M329.49 128.93L321.49 131.6C321.091 131.732 320.744 131.987 320.498 132.328C320.252 132.67 320.12 133.079 320.12 133.5V134.78C320.12 135.097 320.195 135.409 320.339 135.691C320.483 135.974 320.692 136.217 320.949 136.403C321.206 136.589 321.503 136.71 321.816 136.759C322.129 136.807 322.449 136.78 322.75 136.68L330.75 134.01C331.149 133.878 331.496 133.623 331.742 133.282C331.988 132.94 332.12 132.531 332.12 132.11V130.83C332.12 130.513 332.045 130.201 331.901 129.919C331.757 129.636 331.548 129.393 331.291 129.207C331.034 129.021 330.737 128.9 330.424 128.851C330.111 128.803 329.791 128.83 329.49 128.93Z" fill="#BF8563"/>
<path d="M191.31 404.54C191.31 402.64 190.09 400.95 188.29 400.35L151.39 388.05C149.96 387.57 148.49 388.64 148.49 390.14V397.08L191.31 411.35V404.53V404.54ZM148.49 405.59V425.4C148.49 427.3 149.71 428.99 151.51 429.59L188.41 441.89C189.84 442.37 191.31 441.3 191.31 439.8V419.87L148.49 405.6V405.59Z" fill="#975D48"/>
</g>
</g>
<defs>
<clipPath id="clip0_1_643">
<rect width="512" height="512" fill="white"/>
</clipPath>
</defs>
</svg>
