<svg width="448" height="448" viewBox="0 0 448 448" fill="none" xmlns="http://www.w3.org/2000/svg">
<g clip-path="url(#clip0_1_254)">
<mask id="mask0_1_254" style="mask-type:luminance" maskUnits="userSpaceOnUse" x="0" y="0" width="448" height="448">
<path d="M0 0H448V448H0V0Z" fill="white"/>
</mask>
<g mask="url(#mask0_1_254)">
<path d="M448.1 0.200012H0.100098V448.2H448.1V0.200012Z" fill="#F2F2F2"/>
<path d="M375.1 207.4L312.3 176.5L327.7 145.1C330.6 149.9 338.6 162.2 354.5 169.9C359.6 172.3 373 178.2 390.6 175.9C385.5 186.5 380.4 197 375.1 207.4Z" fill="#A84C42"/>
<path d="M415.8 188.4L390.7 176C382.2 193.3 361.2 200.5 343.8 192C326.5 183.5 319.3 162.5 327.8 145.1L302.7 132.7C295.7 129.3 287.4 132.2 284 139.1L216 277.2C212.6 284.2 215.5 292.5 222.4 295.9L319.2 343.6C335.1 351.4 354.3 344.9 362.2 329L422.3 207.1C425.5 200.3 422.7 191.8 415.8 188.4Z" fill="#DE6A5A"/>
<path d="M401.6 177.5L395.3 174.4C393.6 173.5 391.5 174.2 390.6 176C382.1 193.3 361.1 200.5 343.7 192C326.4 183.5 319.2 162.5 327.7 145.1C328.6 143.4 327.9 141.3 326.1 140.4L319.8 137.3C318.1 136.4 316 137.1 315.1 138.9C303.2 163.2 313.2 192.6 337.4 204.5C361.7 216.4 391.1 206.4 403 182.2C404.1 180.5 403.3 178.4 401.6 177.5Z" fill="#CD5747"/>
<path d="M344 307.9C339.7 320.7 325.2 326.9 313 321.1C304.2 316.8 295.3 312.6 286.5 308.3C281.1 305.6 275.2 304.3 269.2 304.3H238.8L271.3 320.3L319.2 343.8C335.1 351.6 354.3 345.1 362.2 329.2L422.3 207.3C425.7 200.3 422.8 192 415.9 188.6L412.8 187C406.9 213.8 396.7 231.9 388.2 243.6C375.8 260.7 366 266 355.2 284C350.1 292.1 346.5 300.3 344 307.9Z" fill="#E87E69"/>
<path opacity="0.5" d="M302.7 132.8C295.7 129.4 287.4 132.3 284 139.2L216 278.2C213.8 282.6 214.2 287.5 216.5 291.4H294.1C306 291.4 315.8 281.7 315.8 269.7V139.2L302.7 132.8Z" fill="#CD5747"/>
<path d="M256.5 133.8H186.5V98.8C191.2 101.9 203.8 109.3 221.5 109.3C227.1 109.3 241.7 108.5 256.5 98.8V133.8Z" fill="#92683E"/>
<path d="M284.5 98.8H256.5C256.5 118.1 240.8 133.8 221.5 133.8C202.2 133.8 186.5 118.1 186.5 98.8H158.5C150.7 98.8 144.5 105.1 144.5 112.8V266.8C144.5 274.6 150.8 280.8 158.5 280.8H284.5C292.3 280.8 298.5 274.5 298.5 266.8V112.8C298.5 105.1 292.2 98.8 284.5 98.8Z" fill="#E8AF57"/>
<path d="M267 95.4H260C258.1 95.4 256.5 97 256.5 98.9C256.5 118.2 240.8 133.9 221.5 133.9C202.2 133.9 186.5 118.2 186.5 98.9C186.5 97 184.9 95.4 183 95.4H176C174.1 95.4 172.5 97 172.5 98.9C172.5 126 194.5 147.9 221.5 147.9C248.5 147.9 270.5 125.9 270.5 98.9C270.5 96.9 269 95.4 267 95.4Z" fill="#C5955F"/>
<path opacity="0.5" d="M187.6 162.6C185.1 155.3 177.1 151.4 169.8 153.9L166.5 155L209.3 280.9H227.8L187.6 162.6Z" fill="#C5955F"/>
<path d="M284.5 98.8H281C271.4 134.8 273.7 161 277.9 178.9C280.3 188.8 284.2 200.4 285.4 218.6C286.1 229.5 285.6 239.4 284.5 247.8C283.5 256.6 275.9 263.2 267 263.2H238.7C235.8 263.2 233.9 266.1 234.9 268.7L239.3 280.7H284.4C292.2 280.7 298.4 274.4 298.4 266.7V112.7C298.5 105.1 292.2 98.8 284.5 98.8Z" fill="#EFB66A"/>
<path d="M138.1 179.4L71.9002 202L60.7002 168.9C66.1002 170.3 80.4002 173.3 97.2002 167.6C102.5 165.8 116.1 160.4 126.9 146.4C130.7 157.2 134.4 168.3 138.1 179.4Z" fill="#02614E"/>
<path d="M153.4 137.2L126.9 146.3C133.1 164.6 123.3 184.5 105 190.7C86.7001 196.9 66.8001 187.1 60.6001 168.8L43.9001 174.5C31.2001 178.9 24.4001 192.6 28.7001 205.4L75.0001 341.3C77.5001 348.6 85.5001 352.5 92.8001 350L212.1 309.4C219.4 306.9 223.3 298.9 220.8 291.6L171.2 145.8C168.7 138.6 160.7 134.7 153.4 137.2Z" fill="#279170"/>
<path d="M153.4 137.2L150.1 138.3C165.2 182 180.3 225.6 195.2 269.3C199.6 282.1 194.3 296.4 182.6 303.1C175.5 307 169.3 309.4 164 310.9C142.7 316.9 130.6 311.2 109.3 317.5C93 322.3 81.2 331.2 73.8 338C74.1 339.1 74.6 340.2 74.9 341.3C77.4 348.6 85.4 352.5 92.7 350L212 309.4C219.3 306.9 223.2 298.9 220.7 291.6L171.1 145.8C168.7 138.6 160.7 134.7 153.4 137.2Z" fill="#46A585"/>
<path d="M135.7 139.5L129.1 141.8C127.3 142.4 126.3 144.4 126.9 146.2C133.1 164.5 123.3 184.4 105 190.6C86.7 196.8 66.8 187 60.6 168.7C60 166.9 58 165.9 56.2 166.5L49.6 168.8C47.8 169.4 46.8 171.4 47.4 173.2C56.1 198.8 83.9 212.5 109.5 203.8C135.1 195.1 148.8 167.3 140.1 141.7C139.5 139.9 137.5 138.9 135.7 139.5Z" fill="#108060"/>
</g>
</g>
<defs>
<clipPath id="clip0_1_254">
<rect width="448" height="448" fill="white"/>
</clipPath>
</defs>
</svg>
