<svg width="1300" height="731" viewBox="0 0 1300 731" fill="none" xmlns="http://www.w3.org/2000/svg">
<g clip-path="url(#clip0_1_449)">
<mask id="mask0_1_449" style="mask-type:luminance" maskUnits="userSpaceOnUse" x="0" y="0" width="1300" height="731">
<path d="M0 0H1300V730.19H0V0Z" fill="white"/>
</mask>
<g mask="url(#mask0_1_449)">
<path d="M1300 0H0V730H1300V0Z" fill="#F4D7AC"/>
<path d="M1300 0H0V730H1300V0Z" fill="#F4D7AC"/>
<path d="M1300 541.81V0H1147.49C1143.25 182.83 1089.34 262.15 1034.96 299.42C934.42 368.32 820.24 301.81 660.11 372.7C563.97 415.26 500.18 485.7 460 541.8H1300V541.81ZM50.66 222.7C127.34 199.16 106.97 57.16 207.82 10.33C218.47 5.38 229.25 2.08 239.86 0H0V221.93C18.27 226.95 35.19 227.45 50.66 222.7Z" fill="#F2CF9B"/>
<path d="M0 221.81V326H506.8C509.97 326 510.17 321.31 507.01 321.04L423.74 314.1C396.999 311.868 372.22 299.172 354.79 278.77L321.17 239.41C305.42 220.97 277.29 219.86 260.14 237.01L246.59 250.56C222.69 274.46 183.36 272.44 162.04 246.22L123.91 199.34C95.57 164.5 41.97 165.78 15.33 201.94L0 221.81Z" fill="#F4D7AC"/>
<path opacity="0.5" d="M0 221.81V326H506.8C509.97 326 510.17 321.31 507.01 321.04L423.74 314.1C396.999 311.868 372.22 299.172 354.79 278.77L321.17 239.41C305.42 220.97 277.29 219.86 260.14 237.01L246.59 250.56C222.69 274.46 183.36 272.44 162.04 246.22L123.91 199.34C95.57 164.5 41.97 165.78 15.33 201.94L0 221.81Z" fill="white"/>
<path d="M596 541.55L458.03 386.32C438.47 362.84 406.84 353.21 377.51 361.78L296.46 385.47C266.92 394.11 235.07 384.26 215.55 360.46L155.03 286.65C150.87 281.57 146.07 277.05 140.77 273.18C130.161 265.442 117.76 260.528 104.73 258.9L101.87 258.54C91.7804 257.281 81.5376 258.235 71.8543 261.336C62.1711 264.438 53.28 269.613 45.8 276.5L0 318.69V730H596V541.55ZM1300 294.46L1254.98 349.37C1233 376.17 1197.15 387.25 1163.88 377.53L1072.62 350.85C1039.59 341.2 1003.99 352.05 981.96 378.48L879.7 513.86V729.71H1300V294.45V294.46Z" fill="#70B3A0"/>
<path d="M1300 294.46L1254.98 349.37C1233 376.17 1197.15 387.25 1163.88 377.53L1072.62 350.85C1039.59 341.2 1003.99 352.05 981.96 378.48L860.12 539.78C849.267 554.144 835.81 566.339 820.45 575.73L811.27 581.34C788.606 595.181 762.547 602.465 735.99 602.38L737.69 717.53L821.69 625.53L1031.7 428.16C1066.21 395.72 1115.7 384.74 1160.69 399.53C1218.25 418.45 1279.84 384.94 1295.23 326.34L1299.99 308.19V294.47L1300 294.46ZM392.25 432.27C409.74 409.99 442.05 406.24 464.17 423.94L558.65 499.53L458.03 386.33C438.47 362.85 406.84 353.22 377.51 361.79L296.46 385.48C266.92 394.12 235.07 384.27 215.55 360.47L155.03 286.66C150.87 281.58 146.07 277.06 140.77 273.19C138.797 271.752 136.758 270.408 134.66 269.16L224.16 421.08C260.61 482.96 347.91 488.77 392.25 432.28V432.27Z" fill="#88C0B0"/>
<path d="M1296.87 65.5L1266.11 103.32C1248.91 124.47 1217.18 126.1 1197.9 106.82L1186.97 95.89C1173.14 82.06 1150.45 82.95 1137.74 97.82L1110.62 129.57C1096.56 146.028 1076.57 156.271 1055 158.07L987.83 163.67C985.28 163.88 985.44 167.67 988 167.67H1300V62C1298.93 63.12 1297.87 64.27 1296.87 65.5Z" fill="#F2CF9B"/>
<path opacity="0.5" d="M1296.87 65.5L1266.11 103.32C1248.91 124.47 1217.18 126.1 1197.9 106.82L1186.97 95.89C1173.14 82.06 1150.45 82.95 1137.74 97.82L1110.62 129.57C1096.56 146.028 1076.57 156.271 1055 158.07L987.83 163.67C985.28 163.88 985.44 167.67 988 167.67H1300V62C1298.93 63.12 1297.87 64.27 1296.87 65.5Z" fill="white"/>
<path d="M232 185C266.242 185 294 157.242 294 123C294 88.758 266.242 61 232 61C197.758 61 170 88.758 170 123C170 157.242 197.758 185 232 185Z" fill="white"/>
<path d="M0 730.19H1300V437.2L1157.58 496.98C1112.46 515.921 1062.35 519.409 1015.04 506.9L803.06 450.86C761.887 439.976 718.451 441.174 677.94 454.31L503.09 511.02C464.436 523.556 423.082 525.234 383.54 515.87L198.25 471.99C160.09 462.95 120.22 464.19 82.7 475.58L0 500.69V730.19Z" fill="#288D70"/>
<path d="M1300 390.57L1288.53 375.92C1286.24 372.99 1281.54 374.9 1281.94 378.59L1285.75 414.21C1286.14 417.86 1281.56 419.79 1279.22 416.96L1255.62 388.47C1253.33 385.71 1248.84 387.49 1249.08 391.08L1251.81 432.22C1252.05 435.89 1247.38 437.63 1245.16 434.69L1227.04 410.65C1224.83 407.71 1220.15 409.45 1220.39 413.12L1222.27 441.42C1222.51 445 1218.02 446.79 1215.73 444.03L1200.87 426.09C1198.67 423.44 1194.36 424.96 1194.32 428.41L1193.94 464.81C1193.9 468.31 1189.48 469.81 1187.33 467.05L1171.47 446.79C1169.4 444.15 1165.16 445.4 1164.87 448.75L1162.51 475.77C1162.21 479.19 1157.82 480.39 1155.82 477.6L1129.97 441.56C1127.85 438.6 1123.18 440.16 1123.26 443.8L1124.22 485.18C1124.3 488.63 1120.03 490.3 1117.75 487.72L1104.47 472.69C1102.26 470.19 1098.14 471.66 1098 474.99L1096.94 500.29C1096.79 503.85 1092.2 505.16 1090.19 502.22C1082.64 491.17 1075.09 480.11 1067.54 469.06C1065.48 466.04 1060.75 467.53 1060.78 471.19C1060.93 485.4 1061.07 499.6 1061.22 513.81C1094.02 515.37 1126.96 509.64 1157.6 496.78L1300.02 437V390.56L1300 390.57ZM198.26 471.8L307.64 497.71L288.92 447.72C287.89 444.88 283.93 444.7 282.64 447.44L273.17 467.59C271.75 470.61 267.29 470 266.73 466.71L259.92 426.4C259.36 423.08 254.84 422.5 253.46 425.57C248.417 436.801 243.381 448.034 238.35 459.27C237.01 462.26 232.64 461.81 231.92 458.62L226.85 435.89C226.18 432.9 222.21 432.24 220.62 434.86L211.04 450.63C209.39 453.34 205.26 452.52 204.77 449.39L198.91 411.78C198.39 408.47 193.91 407.82 192.47 410.84L174.93 447.66C173.57 450.51 169.4 450.14 168.57 447.09L162.04 423.02C161.23 420.04 157.19 419.59 155.75 422.32L144.68 443.24C143.18 446.08 138.93 445.45 138.33 442.29L132.07 409.41C131.48 406.3 127.32 405.61 125.76 408.37L115.23 427.02C113.61 429.9 109.25 429.01 108.88 425.72L105.98 399.8C105.6 396.44 101.09 395.62 99.56 398.64L87.06 423.34C85.53 426.36 81.02 425.54 80.64 422.18L76.42 384.49C76.05 381.21 71.7 380.32 70.07 383.2L53.34 412.82C51.68 415.76 47.22 414.75 46.98 411.39L44.64 378.53C44.4 375.12 39.84 374.16 38.24 377.18L29.14 394.39C27.59 397.32 23.2 396.53 22.76 393.25L19.07 365.63C18.66 362.55 14.67 361.59 12.9 364.14L-0.0200195 382.79V500.51L82.69 475.4C120.212 464.009 160.083 462.771 198.24 471.81L198.26 471.8Z" fill="#00735C"/>
<path d="M293.32 685.57C237.75 665.65 223.47 696.26 176.92 678.96C124.86 659.62 121.1 613.3 59.36 589.71C35.07 580.43 13.97 579.31 0 579.79V730.19H362C347.55 716.08 324.26 696.66 293.32 685.57ZM1020.15 730.19H1300V516.24C1296.55 518.39 1293.06 520.74 1289.55 523.29C1219.89 573.97 1229.45 642.62 1170.55 684.55C1117.87 722.04 1090.66 681.07 1027.56 724.77C1025.03 726.52 1022.56 728.34 1020.15 730.19Z" fill="#02614E"/>
<path d="M1241.9 467.47L1251.9 457.2L1157.58 496.79C1112.46 515.731 1062.35 519.219 1015.04 506.71L941.33 487.22L972.82 505.24C1060.63 555.48 1171.31 539.95 1241.89 467.46L1241.9 467.47ZM163.05 486.59L258.96 542.06C329.78 583.02 417.41 581.67 486.93 538.54L562.85 491.45L503.1 510.83C464.447 523.366 423.092 525.044 383.55 515.68L198.26 471.8C162.578 463.35 125.358 463.879 89.9302 473.34C115.08 469.16 140.93 473.81 163.05 486.6V486.59Z" fill="#409980"/>
<path opacity="0.2" d="M1300 0H0V730H1300V0Z" fill="white"/>
<path d="M899.84 730L832.27 412L748.27 0H496.27L428.27 340L416.33 730H899.84Z" fill="#D2D5D9"/>
<path opacity="0.5" d="M623.18 507.52L629.06 512.91C678.719 558.446 738.169 591.974 802.83 610.91L928.29 647.64L911.52 662L807.21 633.07C733.406 612.598 666.223 573.221 612.3 518.83C607.05 513.53 611.45 504.58 618.85 505.51C620.47 505.71 621.98 506.41 623.18 507.51V507.52Z" fill="white"/>
<path d="M1146.93 393.49L1086.04 254.88C1085.42 256.18 1084.66 257.43 1083.75 258.6L1073.05 272.36C1049.17 303.07 1014.91 324.024 976.69 331.3L964.87 333.55C963.03 333.9 961.18 333.98 959.37 333.82L1001.8 403.16C1002.99 405.099 1003.48 407.386 1003.19 409.643C1002.91 411.899 1001.86 413.99 1000.22 415.57L894.93 517.23C893.474 518.634 892.479 520.447 892.075 522.429C891.672 524.411 891.879 526.468 892.67 528.33L904.53 556.28C913.452 577.311 925.457 596.896 940.15 614.39L953.28 630.02C956.94 634.37 963.49 634.81 967.68 630.97L1127.65 484.71C1152.95 461.57 1160.7 424.89 1146.91 393.49H1146.93Z" fill="#D2D5D9"/>
<path d="M748.23 62.75L743.71 40.6C704.98 72.59 655.31 91.81 601.15 91.81C561.3 91.81 523.88 81.39 491.46 63.14L487.31 83.88C521.3 101.83 560.04 112 601.15 112C656.38 112 707.31 93.66 748.22 62.75H748.23Z" fill="#B6BABF"/>
<path opacity="0.5" d="M736.47 5.1L735.43 0H717.72C686.65 27.42 645.85 44.07 601.15 44.07C564.14 44.07 529.81 32.66 501.45 13.17L497.95 30.67C527.79 49.62 563.18 60.6 601.15 60.6C653.88 60.6 701.66 39.42 736.47 5.11V5.1Z" fill="white"/>
<path d="M501.46 13.17C529.82 32.66 564.15 44.07 601.16 44.07C645.85 44.07 686.65 27.42 717.73 0H504.09L501.46 13.17Z" fill="#E8BE9E"/>
<path d="M501.46 13.17C517.74 24.3666 535.794 32.7342 554.86 37.92C552.723 34.637 550.974 31.1167 549.65 27.43L539.81 0H504.09L501.46 13.17ZM658.63 34.47C676.73 28.2197 693.689 19.0595 708.84 7.35L707.37 0H671.65L658.63 34.47Z" fill="#D4AD90"/>
<path d="M1146.93 393.49L1093.99 272.97L1086.04 254.88C1085.42 256.18 1084.66 257.43 1083.75 258.6L1073.05 272.36C1071.6 274.23 1070.11 276.06 1068.58 277.85C1044.94 305.616 1012.52 324.473 976.7 331.3L964.88 333.55C963.04 333.9 961.19 333.98 959.38 333.82L970.42 351.85C971.24 351.8 972.06 351.71 972.88 351.55L984.7 349.3C1010.03 344.475 1033.83 333.596 1054.05 317.59C1066.07 308.08 1083.86 312.61 1090.03 326.64L1122.59 400.77C1132.96 424.37 1127.13 451.95 1108.11 469.35L944.21 619.2L953.3 630.02C956.96 634.37 963.51 634.81 967.7 630.97L1127.67 484.71C1152.97 461.57 1160.72 424.89 1146.93 393.49Z" fill="#B6BABF"/>
<path d="M304.14 305.27L285.37 521.37C284.085 536.175 286.949 551.045 293.642 564.314C300.334 577.582 310.59 588.724 323.26 596.49L412.43 651.16L473.05 575.18L459.1 338.57L304.14 305.28V305.27Z" fill="#D2D5D9"/>
<path d="M746 694.03L728.81 698.49C714.749 702.14 700.194 703.511 685.7 702.55L682.29 702.32C659.345 700.805 637.163 693.478 617.83 681.03C613.49 678.24 609.05 675.38 604.8 672.64C591.126 663.836 577.815 654.482 564.9 644.6L559.52 640.48C553 635.49 551.98 626.09 557.29 619.84C561.81 614.5 569.54 613.18 575.6 616.7L579.94 619.22C589.51 624.78 599.46 629.67 609.79 633.67C640.138 645.422 672.312 651.758 704.85 652.39C717.13 652.63 719.96 635.37 708.26 631.66L696.48 627.93C679.817 622.652 663.689 615.815 648.31 607.51L589.68 575.84C567.5 563.86 555.39 539.21 559.49 514.44L577.58 405.22C586.52 351.22 589.77 296.44 587.28 241.78L585.08 193.57C583.73 163.93 573.17 135.43 554.86 112.01C533.57 146.421 518.049 184.081 508.91 223.5L470.91 387.37L454.28 566.97V730.01H848.28V708.01C817.358 690.072 780.61 685.052 746.01 694.04L746 694.03Z" fill="#B6BABF"/>
<path d="M1085.32 236.36L992.57 74.8C976.407 46.6488 953.939 22.6269 926.93 4.62L920 0H719.52L696.46 53.11C692.734 61.6951 686.933 69.2203 679.58 75.01C661.54 89.22 652.18 111.8 654.32 134.66L661.23 208.64C664.27 241.16 669.68 273.42 677.44 305.15L781.23 730H964.13L967.86 664.67C970.61 616.56 965.25 568.34 952.02 522.01L878.41 264.38C877.68 261.827 877.945 259.092 879.151 256.726C880.357 254.36 882.415 252.539 884.91 251.63C889.49 249.95 894.62 251.82 897.37 255.84L944.63 325.16C946.826 328.379 949.913 330.887 953.514 332.375C957.115 333.864 961.072 334.269 964.9 333.54L976.72 331.29C1014.94 324.014 1049.2 303.06 1073.08 272.35L1083.78 258.59C1088.76 252.18 1089.38 243.4 1085.34 236.35L1085.32 236.36Z" fill="#4182C4"/>
<path opacity="0.5" d="M1039.64 392.57L1030.93 378.34C1028.73 374.742 1025.44 371.933 1021.55 370.313C1017.65 368.693 1013.34 368.345 1009.24 369.32L984.69 375.17L1001.82 403.16C1003.01 405.099 1003.5 407.386 1003.21 409.643C1002.93 411.899 1001.88 413.99 1000.24 415.57L938.61 475.08L945.61 499.59L1037.29 411.07C1039.73 408.716 1041.3 405.599 1041.72 402.235C1042.15 398.871 1041.42 395.461 1039.65 392.57H1039.64Z" fill="white"/>
<path d="M524.85 51.96L496.27 0H452.27L399.33 40.16C358.57 71.0804 329.86 115.239 318.14 165.04L299.69 243.46C292.087 275.772 286.932 308.612 284.27 341.7L282.06 369.11C281.29 378.71 287.46 387.49 296.76 390.02L322.2 396.93C339.47 401.62 357.37 403.55 375.24 402.66L399.32 401.46C398.64 420.98 397.59 440.48 396.17 459.96L376.41 730.01H500.56L565.41 290.47C569.97 259.54 572.26 228.32 572.26 197.05V118.54C572.26 99.75 562.24 82.29 545.85 73.12C537.001 68.1764 529.72 60.8439 524.84 51.96H524.85Z" fill="#4182C4"/>
<path opacity="0.5" d="M294.56 415.59L285.37 521.36C283.31 545.04 291.89 568.03 308.14 584.49C308.18 583.73 308.23 582.97 308.3 582.21L319.67 451.29C321.1 434.87 310.5 419.8 294.56 415.59Z" fill="white"/>
<path d="M524.85 51.96L496.27 0H452.27L441.7 8.02H441.73L453.02 29.27L448.2 101.27C447.62 109.43 456.54 114.8 463.47 110.46L489.28 94.33C500.58 87.26 515.71 94.78 516.25 108.09C516.27 108.46 516.27 108.84 516.26 109.22L514.85 206.14C514.397 237.402 511.653 268.589 506.64 299.45L436.72 730H500.56L565.41 290.46C569.97 259.53 572.26 228.31 572.26 197.04V113.15C572.26 96.56 562.66 81.67 547.85 74.18C538.115 69.2624 530.094 61.517 524.84 51.96H524.85Z" fill="#336FB2"/>
<path d="M548.27 117C550.657 117 552.946 116.052 554.634 114.364C556.322 112.676 557.27 110.387 557.27 108C557.27 105.613 556.322 103.324 554.634 101.636C552.946 99.9482 550.657 99 548.27 99C545.883 99 543.594 99.9482 541.906 101.636C540.218 103.324 539.27 105.613 539.27 108C539.27 110.387 540.218 112.676 541.906 114.364C543.594 116.052 545.883 117 548.27 117ZM540.27 241C542.657 241 544.946 240.052 546.634 238.364C548.322 236.676 549.27 234.387 549.27 232C549.27 229.613 548.322 227.324 546.634 225.636C544.946 223.948 542.657 223 540.27 223C537.883 223 535.594 223.948 533.906 225.636C532.218 227.324 531.27 229.613 531.27 232C531.27 234.387 532.218 236.676 533.906 238.364C535.594 240.052 537.883 241 540.27 241ZM524.27 381C526.657 381 528.946 380.052 530.634 378.364C532.322 376.676 533.27 374.387 533.27 372C533.27 369.613 532.322 367.324 530.634 365.636C528.946 363.948 526.657 363 524.27 363C521.883 363 519.594 363.948 517.906 365.636C516.218 367.324 515.27 369.613 515.27 372C515.27 374.387 516.218 376.676 517.906 378.364C519.594 380.052 521.883 381 524.27 381ZM500.27 525C502.657 525 504.946 524.052 506.634 522.364C508.322 520.676 509.27 518.387 509.27 516C509.27 513.613 508.322 511.324 506.634 509.636C504.946 507.948 502.657 507 500.27 507C497.883 507 495.594 507.948 493.906 509.636C492.218 511.324 491.27 513.613 491.27 516C491.27 518.387 492.218 520.676 493.906 522.364C495.594 524.052 497.883 525 500.27 525ZM480.27 677C482.657 677 484.946 676.052 486.634 674.364C488.322 672.676 489.27 670.387 489.27 668C489.27 665.613 488.322 663.324 486.634 661.636C484.946 659.948 482.657 659 480.27 659C477.883 659 475.594 659.948 473.906 661.636C472.218 663.324 471.27 665.613 471.27 668C471.27 670.387 472.218 672.676 473.906 674.364C475.594 676.052 477.883 677 480.27 677Z" fill="white"/>
<path d="M448.94 101.58L525.73 53.58L512 0H452.27L446.1 1.95C444.18 2.55438 442.487 3.72458 441.243 5.30731C440 6.89003 439.263 8.81149 439.13 10.82L433.67 92.39C433.09 100.55 442.01 105.92 448.94 101.58Z" fill="#549EE8"/>
<path d="M398.52 401.49L399.33 401.45C399.95 383.61 400.27 365.76 400.27 347.91C400.27 295.02 409.39 242.53 427.23 192.75C430.86 182.61 417.56 175.02 410.7 183.33C389.145 209.416 373.897 240.122 366.14 273.06L349.79 343.15C348.089 350.44 348.131 358.028 349.914 365.298C351.697 372.568 355.17 379.314 360.05 384.99C364.779 390.493 370.704 394.842 377.372 397.703C384.039 400.565 391.273 401.864 398.52 401.5V401.49Z" fill="#336FB2"/>
<path d="M399.33 40.16C358.57 71.0804 329.86 115.239 318.14 165.04L299.69 243.46C292.087 275.772 286.932 308.612 284.27 341.7L282.06 369.11C281.29 378.71 287.46 387.49 296.76 390.02L305.84 392.49C303.019 388.63 301.678 383.886 302.06 379.12L304.27 351.71C306.93 318.62 312.09 285.78 319.69 253.47L338.14 175.05C347.64 134.69 368.3 98.04 397.48 69.13C405.683 61.0011 411.578 50.8372 414.56 39.68C415.78 35.15 410.56 31.64 406.82 34.48L399.33 40.17V40.16ZM399.32 401.54C398.64 421.03 397.6 440.5 396.17 459.95L376.41 730H391.39L410.89 463.45C411.55 454.43 412.13 445.41 412.64 436.38C413.37 423.39 408.54 410.7 399.32 401.53V401.54Z" fill="#549EE8"/>
<path d="M1085.32 236.36L992.57 74.8C976.407 46.6488 953.939 22.6269 926.93 4.62L920 0H870.83C903.58 21.948 930.829 51.1509 950.46 85.34L1063.71 282.62C1063.79 282.77 1063.86 282.91 1063.94 283.06C1067.12 279.64 1070.17 276.07 1073.06 272.35L1083.76 258.59C1088.74 252.18 1089.36 243.4 1085.32 236.35V236.36ZM753.61 107.91C764.9 113.58 777.85 104.04 775.78 91.58L761.01 0H719.52L696.46 53.11C693.294 60.4046 688.622 66.9476 682.75 72.31L753.62 107.91H753.61Z" fill="#336FB2"/>
<path d="M781.63 1.97C781.52 1.29 781.34 0.63 781.1 0H704.42L695.68 54.88L780.23 97.35C787.87 101.18 796.63 94.73 795.23 86.3L781.63 1.97Z" fill="#549EE8"/>
<path d="M952.56 524.02C952.5 523.77 952.44 523.53 952.37 523.28L952.01 522.01L878.4 264.38C877.716 261.982 877.907 259.418 878.941 257.148C879.974 254.878 881.782 253.05 884.04 251.991C886.298 250.933 888.859 250.712 891.265 251.37C893.671 252.027 895.764 253.52 897.17 255.58L859.39 200.35C851.21 188.39 832.96 190.57 827.82 204.11L822.11 219.15C813.852 240.92 810.072 264.133 810.996 287.398C811.921 310.664 817.531 333.504 827.49 354.55L896.53 500.44L906.72 526.21C925.482 573.658 936.138 623.921 938.24 674.9L940.51 729.99H964.11L967.84 664.66C970.55 617.25 965.37 569.73 952.55 524.01L952.56 524.02Z" fill="#336FB2"/>
<path d="M696.55 313.15C688.799 281.419 683.381 249.162 680.34 216.64L672.19 129.37C671.17 118.48 674.2 107.93 680.25 99.3C685.27 92.15 682.94 82.25 675.14 78.33C675.091 78.306 675.037 78.2952 674.982 78.2987C674.928 78.3022 674.875 78.3199 674.83 78.35C674.81 78.36 674.8 78.37 674.78 78.38C660 88.15 651.53 105.03 653.18 122.68L661.21 208.64C664.25 241.16 669.66 273.42 677.42 305.15L781.21 730H798.38L696.54 313.15H696.55Z" fill="#549EE8"/>
</g>
</g>
<defs>
<clipPath id="clip0_1_449">
<rect width="1300" height="731" fill="white"/>
</clipPath>
</defs>
</svg>
