<svg width="1300" height="730" viewBox="0 0 1300 730" fill="none" xmlns="http://www.w3.org/2000/svg">
<g clip-path="url(#clip0_1_384)">
<mask id="mask0_1_384" style="mask-type:luminance" maskUnits="userSpaceOnUse" x="0" y="0" width="1300" height="730">
<path d="M0 0H1300V730H0V0Z" fill="white"/>
</mask>
<g mask="url(#mask0_1_384)">
<path d="M1300 410H0V730H1300V410Z" fill="#5BA7B1"/>
<path d="M1300 0H0V410H1300V0Z" fill="#E8BE9E"/>
<path d="M474 410C502.51 370.19 547.78 320.2 616 290C729.63 239.69 810.66 286.9 882 238C923.04 209.88 963.7 148.02 962 0H1300V410H474Z" fill="#EDAB8E"/>
<path d="M1174 0C1169.43 45.64 1156.99 110.48 1122 180C1052.75 317.58 939.63 385.13 892 410H1300V0H1174Z" fill="#EA9A81"/>
<path d="M126 410C250.14 410 339.59 395.17 368 344C406.93 273.87 293.8 185.67 334 82C349.92 40.94 383.03 15.18 408 0H0V410H126Z" fill="#EDAB8E"/>
<path d="M126 410C57.12 292.87 56.74 159.92 124 76C160.03 31.04 207.52 10.07 240 0H0V410H126Z" fill="#EA9A81"/>
<path d="M442 410H530C526.49 399.48 522.99 388.96 519.48 378.44C518.32 374.96 513.43 374.87 512.14 378.3C510.72 382.1 509.29 385.9 507.87 389.69C506.58 393.13 501.69 393.04 500.53 389.55L492.88 366.59C491.8 363.34 487.36 362.97 485.75 365.99C483.14 370.88 480.53 375.78 477.92 380.67C476.37 383.58 472.13 383.36 470.88 380.31C467.19 371.29 463.5 362.28 459.82 353.26C458.47 349.97 453.79 350.05 452.56 353.39L442.03 381.98V409.98L442 410Z" fill="#108060"/>
<path d="M1300 224H758.35C755.46 224 755.28 219.73 758.16 219.49L833.99 213.17C858.342 211.141 880.908 199.579 896.78 181L927.4 145.15C941.74 128.36 967.36 127.35 982.97 142.97L995.31 155.31C1017.07 177.07 1052.89 175.24 1072.31 151.36L1107.04 108.66C1132.85 76.93 1181.66 78.1 1205.92 111.02C1225.03 136.95 1262.6 140.11 1285.77 117.74L1300.01 103.99V223.99L1300 224Z" fill="#F7E1D5"/>
<path d="M220.89 256H626.31C628.47 256 628.61 252.8 626.45 252.62L569.69 247.89C551.464 246.375 534.575 237.72 522.7 223.81L499.78 196.98C489.04 184.41 469.87 183.66 458.18 195.35L448.94 204.59C432.65 220.88 405.84 219.5 391.31 201.63L365.32 169.67C346 145.92 309.47 146.8 291.31 171.44L264.3 208.1L212 222.22L220.89 256Z" fill="#EAD1C1"/>
<path d="M980 410L1053.94 317.57C1062.75 306.553 1075.46 299.332 1089.43 297.39L1123.06 292.72C1130.49 291.689 1137.63 289.156 1144.04 285.273C1150.46 281.391 1156.01 276.242 1160.37 270.14L1196.31 219.83C1204.73 208.04 1221.68 206.53 1232.06 216.64L1300 282.88V410H980Z" fill="#9FA5AB"/>
<path opacity="0.3" d="M1214.49 209.95C1207.54 210.27 1200.74 213.62 1196.31 219.82L1160.37 270.13C1156.01 276.232 1150.46 281.381 1144.04 285.263C1137.63 289.146 1130.49 291.679 1123.06 292.71L1089.43 297.38C1075.45 299.317 1062.75 306.54 1053.94 317.56L980 409.99H1158L1216.33 305.33C1221.9 295.34 1219.38 282.79 1210.38 275.72C1206.72 272.847 1204.01 268.943 1202.6 264.514C1201.18 260.084 1201.13 255.331 1202.44 250.87L1214.48 209.93L1214.49 209.95Z" fill="#D2D5D9"/>
<path d="M464 410L417.36 318.58C416.339 316.582 414.808 314.889 412.922 313.674C411.036 312.458 408.861 311.764 406.62 311.66L351.33 309.15C335.98 308.45 322.54 298.63 317.22 284.22L286.52 201.08C281.33 187.03 268.41 177.3 253.47 176.21L219.82 173.75C212.677 173.226 205.826 170.706 200.046 166.476C194.266 162.247 189.791 156.479 187.13 149.83L174.33 117.84C173.693 116.247 172.482 114.951 170.936 114.207C169.391 113.463 167.622 113.325 165.98 113.82L0 164V410C0 410 0.06 410.02 0.09 410H464Z" fill="#818990"/>
<path d="M96 410L102 344L123 288C124.03 285.27 127.9 285.29 128.89 288.04L141.27 322.44C142.24 325.13 146.01 325.23 147.11 322.59L156.76 299.68C157.88 297.01 161.71 297.16 162.63 299.91L175.09 337.29C176.04 340.13 180.04 340.16 181.03 337.33L188.27 316.66C189.32 313.66 193.66 313.94 194.3 317.06L200.54 346.99C201.1 349.67 204.58 350.4 206.17 348.17L218.48 330.93C219.96 328.86 223.16 329.32 224 331.72L234.63 362.27C235.65 365.2 239.84 365.03 240.63 362.04L245.13 344.93C245.94 341.85 250.29 341.8 251.18 344.85L259.91 374.77C260.69 377.45 264.31 377.85 265.67 375.42L278.37 352.56C279.72 350.12 283.34 350.53 284.13 353.21L293.63 385.77C294.45 388.58 298.32 388.84 299.51 386.17L308.26 366.48C309.48 363.74 313.48 364.11 314.18 367.03L320.28 392.63C320.93 395.35 324.54 395.93 326 393.55L334.26 380.13C335.7 377.8 339.22 378.3 339.96 380.93L348.03 410H96Z" fill="#02614E"/>
<path d="M0 410H218L208.35 383.46C206.365 378 203.197 373.045 199.074 368.952C194.951 364.858 189.974 361.726 184.5 359.78L133.45 341.63C126.928 339.31 121.132 335.315 116.643 330.046C112.155 324.776 109.133 318.418 107.88 311.61L102 279.66C100.781 273.038 97.8861 266.838 93.5922 261.652C89.2983 256.465 83.748 252.464 77.47 250.03L0 220V410Z" fill="#686E72"/>
<path d="M0 410H88C84.27 398.82 80.54 387.63 76.82 376.45C75.88 373.63 71.92 373.56 70.87 376.34C68.96 381.45 67.04 386.55 65.13 391.66C64.09 394.44 60.12 394.37 59.18 391.55L50.32 364.96C49.44 362.33 45.85 362.03 44.54 364.47C41.41 370.34 38.28 376.2 35.15 382.07C33.89 384.43 30.46 384.25 29.45 381.78C25.32 371.69 21.19 361.6 17.07 351.51C15.98 348.85 12.19 348.91 11.19 351.61C7.46 361.74 3.73 371.87 0 381.99V410Z" fill="#02614E"/>
<path d="M636.01 410L672.49 366.22C686.77 349.08 709.86 342.05 731.27 348.3L790.44 365.6C812.01 371.9 835.26 364.72 849.5 347.34L902.95 282.15C906.19 278.2 910.83 275.64 915.9 275L932.49 272.93C939.857 272.01 947.335 272.706 954.406 274.971C961.476 277.235 967.968 281.012 973.43 286.04L1108 409.99H636L636.01 410Z" fill="#818990"/>
<path d="M1279.24 295.49L1267.06 337.46C1266.15 340.59 1261.73 340.63 1260.77 337.51L1251.72 308.1C1250.72 304.86 1246.08 305.07 1245.37 308.38L1236.02 352.45C1235.37 355.53 1231.18 356.01 1229.84 353.17L1221.92 336.33C1220.61 333.54 1216.51 333.94 1215.77 336.93L1210.13 359.51C1209.39 362.45 1205.4 362.91 1204.02 360.21L1188.86 330.55C1187.5 327.88 1183.56 328.29 1182.77 331.18L1175.7 357.1C1174.86 360.18 1170.56 360.37 1169.45 357.37L1162.96 339.75C1161.82 336.65 1157.34 336.99 1156.67 340.22L1150.21 371.33C1149.55 374.51 1145.16 374.9 1143.95 371.88L1131.77 341.42C1130.59 338.46 1126.31 338.75 1125.54 341.84L1116.67 377.32C1115.88 380.48 1111.46 380.68 1110.39 377.6L1101.62 352.39C1100.55 349.31 1096.13 349.51 1095.34 352.67L1089.24 377.07C1088.47 380.16 1084.19 380.45 1083.01 377.49L1075.34 358.31C1074.2 355.47 1070.15 355.59 1069.18 358.49L1058.97 389.11C1057.99 392.05 1053.85 392.12 1052.78 389.21L1044.89 367.8C1043.86 365.01 1039.94 364.92 1038.79 367.66L1029.46 389.83C1028.28 392.64 1024.24 392.46 1023.31 389.56L1011.27 352.11C1010.28 349.04 1005.92 349.09 1005 352.18L994.57 387.38C993.7 390.31 989.64 390.57 988.42 387.76L981.29 371.46C980.11 368.75 976.23 368.87 975.2 371.64L967.44 392.71C966.35 395.67 962.11 395.54 961.21 392.51C957.84 381.13 954.47 369.75 951.09 358.36C950.17 355.25 945.77 355.22 944.81 358.32C940.91 370.87 937.02 383.42 933.12 395.97C932.17 399.04 927.82 399.05 926.86 395.99L920.39 375.51C919.51 372.73 915.71 372.39 914.35 374.98L896.01 409.99H1300.01V333.99L1285.48 295.24C1284.37 292.28 1280.14 292.44 1279.26 295.48L1279.24 295.49Z" fill="#02614E"/>
<path d="M576 186C611.346 186 640 157.346 640 122C640 86.654 611.346 58 576 58C540.654 58 512 86.654 512 122C512 157.346 540.654 186 576 186Z" fill="#EAD1C1"/>
<path d="M576 170C602.51 170 624 148.51 624 122C624 95.49 602.51 74 576 74C549.49 74 528 95.49 528 122C528 148.51 549.49 170 576 170Z" fill="white"/>
<path d="M264.3 269.34L268.68 281.66C280.4 314.63 310.63 337.44 345.55 339.67C357.097 340.408 368.675 338.848 379.615 335.081C390.554 331.313 400.637 325.412 409.28 317.72L413.43 314.03C411.434 312.597 409.065 311.774 406.61 311.66L351.32 309.15C335.97 308.45 322.53 298.63 317.21 284.22L286.51 201.08C281.32 187.03 268.4 177.3 253.46 176.21L219.81 173.75C212.668 173.226 205.816 170.706 200.036 166.476C194.256 162.247 189.781 156.479 187.12 149.83L174.32 117.84C173.716 116.329 172.592 115.085 171.15 114.33L160.17 146.62C149.01 179.46 166.49 215.14 199.28 226.45L232.57 237.93C239.876 240.449 246.521 244.58 252.012 250.017C257.504 255.455 261.7 262.059 264.29 269.34H264.3Z" fill="#9FA5AB"/>
<path d="M51.84 244.38C57.3548 248.243 61.7886 253.453 64.7189 259.515C67.6492 265.577 68.9785 272.289 68.58 279.01L66.67 311.44C66.2612 318.35 67.6791 325.245 70.7809 331.433C73.8827 337.621 78.5592 342.883 84.34 346.69L129.57 376.5C134.42 379.699 138.505 383.929 141.532 388.888C144.558 393.847 146.453 399.414 147.08 405.19L147.6 409.99H218.12L208.47 383.45C206.485 377.99 203.317 373.035 199.194 368.942C195.071 364.848 190.094 361.716 184.62 359.77L133.57 341.62C127.048 339.3 121.252 335.305 116.763 330.036C112.275 324.766 109.253 318.408 108 311.6L102.11 279.65C100.891 273.028 97.9961 266.828 93.7022 261.642C89.4083 256.455 83.858 252.454 77.58 250.02L38 234.67L51.84 244.37V244.38Z" fill="#818990"/>
<path opacity="0.8" d="M790.66 365.67L830.05 377.18C851.95 383.58 875.6 377.87 892.17 362.19C899.779 354.991 905.512 346.04 908.868 336.117C912.223 326.193 913.099 315.6 911.42 305.26L907.04 278.28C905.459 279.355 904.042 280.652 902.83 282.13L849.38 347.32C842.45 355.771 833.2 362.011 822.768 365.272C812.336 368.532 801.179 368.671 790.67 365.67H790.66ZM706 388C705.76 372.3 722.55 355.5 747.81 353.14L731.27 348.3C709.86 342.04 686.77 349.08 672.49 366.22L636.01 410H718C714.71 407.17 706.17 399.03 706 388Z" fill="#9FA5AB"/>
<path d="M416.96 410C421.142 415.572 427.315 419.312 434.19 420.44L508.5 432.6C512.99 433.33 512.63 439.9 508.09 440.14L417.9 445.1C412.99 445.37 413 452.61 417.91 452.87L513.41 457.84C518.12 458.09 518.42 464.92 513.75 465.58L435.93 476.54C431.31 477.19 431.54 483.94 436.2 484.27L558.37 493C565.3 493.49 565.65 503.54 558.78 504.52L531.91 508.36C527.23 509.03 527.57 515.89 532.29 516.1L650.87 521.43C655.48 521.64 655.96 528.28 651.42 529.14L620.56 535.02C616.12 535.87 616.45 542.33 620.95 542.72L662.31 546.29C699.82 549.52 737.58 547.87 774.66 541.36L817.51 533.84C821.9 533.07 821.76 526.73 817.34 526.15L729.05 514.63C724.42 514.03 724.58 507.28 729.23 506.89L799.47 501.12C804.27 500.73 804.22 493.68 799.41 493.36L735.5 489.04C730.75 488.72 730.62 481.79 735.35 481.29L847.63 469.47C852.4 468.97 852.21 461.96 847.43 461.71L756.26 456.96C750.01 456.63 749.81 447.48 756.04 446.88L786.08 443.97C790.73 443.52 790.78 436.75 786.14 436.23L733.25 430.26C728.62 429.74 728.81 422.95 733.47 422.69L791.77 419.45C800.8 418.95 809.45 415.64 816.51 409.99H416.94L416.96 410Z" fill="#63B5B1"/>
<path d="M0 478C15.69 480.92 39.93 483.53 68 478C110.62 469.6 116.21 451.47 152 444C197.2 434.57 209.35 459.07 266 458C275.94 457.81 284.2 456.89 291.64 455.45C328.16 448.36 353.81 436.89 360 434C382.81 423.37 426.5 416.81 517.8 433.58C585.2 430.39 652.6 427.19 720 424C726.3 423.21 738.55 421.86 753.98 421.51C811.38 420.19 845.49 434.19 912 438C929.53 439 941.44 438.78 955.36 436.07C980.29 431.22 989.57 421.03 1034 424C1105.18 428.75 1123.94 457.73 1192 462C1237.51 464.86 1275.37 454.8 1300 446V410H0V478Z" fill="#63B5B1"/>
<path opacity="0.5" d="M425.74 101.25L437.88 107.79C438.966 108.374 440.193 108.646 441.425 108.578C442.656 108.509 443.845 108.101 444.86 107.4L455.62 99.94C456.86 99.08 455.94 97.14 454.49 97.57L444.06 100.62C441.82 101.27 439.46 101.38 437.17 100.94L426.58 98.88C425.14 98.6 424.44 100.57 425.73 101.26L425.74 101.25ZM729.78 162.53L741.44 169.88C742.483 170.538 743.688 170.895 744.922 170.911C746.156 170.927 747.37 170.601 748.43 169.97L759.68 163.27C760.98 162.5 760.19 160.5 758.71 160.83L748.1 163.15C745.82 163.65 743.46 163.6 741.21 163L730.79 160.22C729.37 159.84 728.54 161.76 729.78 162.54V162.53Z" fill="#964F48"/>
<path opacity="0.75" d="M656.07 194.86L672.72 197.52C674.211 197.76 675.739 197.582 677.135 197.007C678.531 196.431 679.741 195.481 680.63 194.26L690.06 181.31C691.15 179.82 689.3 177.95 687.8 179.03L676.98 186.75C674.658 188.406 671.973 189.483 669.15 189.89L656.09 191.78C654.31 192.04 654.3 194.59 656.07 194.87V194.86Z" fill="#964F48"/>
<path d="M695.71 113.63L708.64 126.49C709.797 127.642 711.25 128.451 712.839 128.827C714.428 129.203 716.09 129.131 717.64 128.62L734.1 123.22C736 122.6 735.56 119.8 733.56 119.79L719.19 119.73C716.11 119.72 713.07 118.96 710.34 117.54L697.69 110.94C695.97 110.04 694.34 112.27 695.71 113.64V113.63Z" fill="#964F48"/>
<path d="M894.938 386.359C881.41 384.12 868.43 392.563 865.104 405.749L860.347 423.498C858.551 430.624 858.551 438.085 860.347 445.211C862.466 453.641 869.104 460.22 877.607 462.32C883.515 463.781 886.911 469.929 884.988 475.646L877.172 499H914.317L920 420.202L894.924 386.345L894.938 386.359Z" fill="#E8BE9E"/>
<path d="M911 466L918.311 495.252L920.224 506H926.836L929 466H911Z" fill="#EA9A81"/>
<path d="M865.215 624.829L812.388 572.833C802.475 563.076 788.487 558.487 774.612 560.443C757.432 562.855 743.248 574.872 738.264 591.231L727.259 627.338C726.097 631.155 728.995 635 733.055 635H860.945C866.335 635 869.024 628.592 865.215 624.843V624.829Z" fill="#2E5157"/>
<path d="M744.04 632.85L755.032 596.739C760.011 580.379 774.177 568.36 791.337 565.948C795.204 565.406 799.125 565.374 803 565.852C794.372 560.966 784.374 559.062 774.555 560.435C757.396 562.847 743.229 574.866 738.25 591.226L727.258 627.337C726.098 631.155 728.993 635 733.048 635H743.802C743.751 634.275 743.831 633.546 744.04 632.85Z" fill="#3C7980"/>
<path d="M819.933 546C818.527 549.619 817.316 553.307 816.383 557.063L797 635H826.492L857 572.915L819.947 546H819.933Z" fill="#E8BE9E"/>
<path d="M954.273 598.986C969.082 592.146 981.454 580.954 989.739 566.902L997.363 553.948C1016.05 522.226 1003.3 481.344 969.926 465.811C959.398 460.916 952.933 450.096 953.994 438.551L956.158 414.819C957.373 401.544 953.254 388.2 944.261 378.356C929.405 362.07 905.612 358.445 886.789 368.889L872.714 376.697C865.328 380.796 862.102 389.692 865.132 397.557L875.647 424.872C885.305 449.936 903.987 470.482 928.022 482.473C947.278 492.094 953.491 516.551 941.134 534.162L921.446 562.245L954.259 599L954.273 598.986Z" fill="#6E3A35"/>
<path opacity="0.75" d="M938.181 562.986L957.68 535.035C969.905 517.506 963.765 493.164 944.694 483.587C920.881 471.638 902.377 451.195 892.821 426.255L882.408 399.067C879.407 391.24 882.615 382.386 889.917 378.305L903.857 370.533C909.638 367.313 915.888 365.468 922.208 364.899C910.523 361.457 897.675 362.65 886.571 368.84L872.631 376.612C865.315 380.692 862.121 389.547 865.122 397.374L875.535 424.562C885.091 449.502 903.594 469.945 927.408 481.894C946.478 491.47 952.632 515.813 940.394 533.342L920.894 561.293L938.181 563V562.986Z" fill="#AF5947"/>
<path d="M973.436 592.368C972.815 575.677 969.391 559.714 963.443 545L934 574.442L951.167 635H975L973.421 592.368H973.436Z" fill="#E8BE9E"/>
<path d="M969 559.741C967.581 554.704 965.918 549.777 963.941 545L934 574.442L951.457 635H967.122L954.524 591.297C952.116 582.938 954.524 573.975 960.831 567.771L968.986 559.755L969 559.741Z" fill="#EA9A81"/>
<path d="M945.231 561.25L962 543.979C955.464 527.36 945.826 512.338 933.419 499.676C926.053 492.165 915.764 488 904.493 488H886.491C876.923 488 867.188 490.999 858.617 496.566C840.463 508.381 826.491 525.694 819 545.201L843.108 566.54C847.428 570.858 848.564 577.438 845.96 582.964L824.137 635H929.584L932.159 589.961C932.755 579.563 937.449 569.247 945.231 561.236V561.25Z" fill="#02614E"/>
<path opacity="0.25" d="M962 543.948C955.603 527.326 946.17 512.301 934.026 499.637C927.222 492.541 917.856 488.43 907.556 488L919.578 528.048C924.757 545.329 925.146 563.692 920.703 581.177L907 635H930.271L932.792 589.953C933.375 579.552 937.97 569.235 945.587 561.222L962 543.948Z" fill="#142924"/>
<path d="M863.006 501.368C867.698 495.995 873.132 491.483 879 488C872.081 489.213 865.261 491.892 859.07 495.953C840.709 507.953 826.577 525.538 819 545.35L834.35 559C838.664 538.06 848.51 517.965 863.006 501.382V501.368Z" fill="#00735C"/>
<path d="M494 630.718V579.377C494 569.649 501.693 561.432 512.007 560.143L656.146 542.17C665.428 541.02 674.375 545.8 678.013 553.865L715.379 636.815C717.846 642.303 717.483 648.553 714.389 653.763L695.811 685.025C692.02 691.399 684.745 695.238 676.954 694.989L531.24 690.291C523.017 690.028 515.742 685.247 512.69 678.11L495.491 637.896C494.518 635.618 494.016 633.167 494.014 630.69L494 630.718Z" fill="#975D48"/>
<path d="M471 632.718V581.377C471 571.649 478.693 563.431 489.007 562.143L633.146 544.17C642.428 543.02 651.375 547.8 655.013 555.865L692.379 638.815C694.846 644.303 694.483 650.553 691.389 655.763L672.811 687.025C669.02 693.4 661.745 697.238 653.954 696.989L508.24 692.291C500.017 692.028 492.742 687.247 489.69 680.11L472.491 639.896C471.518 637.618 471.016 635.168 471.014 632.691L471 632.718Z" fill="#BF8563"/>
<path opacity="0.5" d="M557.941 687.156L541.061 556L517 559.089L533.664 688.597C533.783 689.557 534.103 690.48 534.603 691.309C535.102 692.137 535.77 692.851 536.563 693.404L554.676 694C555.294 693.641 555.848 693.182 556.315 692.642C556.955 691.895 557.43 691.022 557.71 690.079C557.991 689.136 558.069 688.145 557.941 687.17V687.156ZM636.059 691.273C636.418 692.761 637.254 694.09 638.441 695.057C639.627 696.023 641.098 696.574 642.628 696.624L653.761 697H653.999C656.156 697 658.159 696.039 659.489 694.353C660.82 692.667 661.31 690.507 660.806 688.431L626.662 545L602 548.079C602.028 548.302 602.07 548.539 602.126 548.762L636.045 691.259L636.059 691.273Z" fill="#975D48"/>
<path d="M530.223 558.016C529.755 554.586 526.734 552 523.202 552C522.89 552 522.578 552.014 522.266 552.055L511.16 553.494C507.288 553.991 504.551 557.476 505.061 561.252L522.521 690.611C522.975 693.971 525.826 696.502 529.315 696.613L540.662 697H540.903C541.907 697.003 542.9 696.795 543.819 696.39C544.738 695.985 545.561 695.392 546.236 694.649C546.901 693.918 547.398 693.05 547.692 692.106C547.986 691.163 548.07 690.166 547.938 689.187L530.237 558.002L530.223 558.016ZM648.837 690.47L615.091 546.357C614.348 543.198 611.596 541 608.405 541C608.102 541 607.799 541.014 607.497 541.056L596.973 542.475C596.018 542.607 595.1 542.937 594.281 543.446C593.461 543.954 592.756 544.628 592.213 545.425C591.668 546.23 591.296 547.138 591.118 548.093C590.94 549.049 590.962 550.03 591.181 550.977L624.5 693.281C625.216 696.328 627.871 698.527 630.952 698.624L641.889 699H642.123C644.242 699 646.209 698.04 647.516 696.356C648.162 695.531 648.614 694.571 648.838 693.547C649.062 692.523 649.052 691.462 648.809 690.443L648.837 690.47Z" fill="#6D493C"/>
<path d="M1137.25 392.823L1110.27 369.648C1103.07 363.474 1092.9 362.195 1084.57 366.638C1074.94 371.771 1067.57 380.884 1064.71 392.12L1064.34 393.611C1060.92 407.125 1060.12 421.167 1061.97 434.983C1062.58 439.498 1064.66 443.674 1067.89 446.824C1070.85 449.724 1074.66 451.601 1078.76 452.182L1089.41 452.899C1093.49 453.701 1095.98 457.934 1094.75 461.97C1094.75 461.97 1092.9 468.059 1091.3 473.305C1100.89 477.101 1110.76 479 1120.63 479C1129.84 479 1139.05 477.312 1148 474.022C1143.07 468.073 1139.83 458.707 1140.49 452.182L1145.39 414.171C1146.43 406.113 1143.36 398.069 1137.27 392.823H1137.25Z" fill="#975D48"/>
<path opacity="0.5" d="M1131.49 470.042L1148 473C1143.02 467.208 1139.74 458.074 1140.41 451.735L1145.36 414.722L1138.76 404L1126.78 449.078C1124.83 456.404 1126.6 464.195 1131.51 470.029L1131.49 470.042Z" fill="#6D493C"/>
<path d="M1161.96 402.99L1160.78 377.628C1159.91 363.858 1149.64 352.209 1136.03 350.601C1132.86 350.226 1129.84 350.407 1127.28 351.211C1124.42 352.108 1121.39 352.38 1118.41 352.006C1115.44 351.633 1112.57 350.624 1110.02 349.048L1104.14 345.415C1098.81 342.127 1092.58 340.611 1086.34 341.085C1080.09 341.558 1074.16 343.996 1069.39 348.049L1069.3 348.132C1065.14 351.974 1062.57 357.257 1062.07 362.929C1061.49 369.612 1064.45 376.102 1069.72 380.096C1071.33 381.316 1072.77 382.731 1074.08 384.27C1078.37 389.345 1080.58 395.821 1080.75 402.477C1080.8 404.654 1080.69 406.596 1080.42 407.941L1080.2 409.022C1079.52 412.253 1081.85 415.332 1085.12 415.568C1085.47 415.595 1085.83 415.568 1086.2 415.498C1087.97 415.152 1089.21 413.626 1089.58 411.851C1090.68 406.568 1094.5 402.685 1099.04 402.685C1104.46 402.685 1108.84 408.204 1108.84 415.013C1108.84 418.577 1107.64 421.78 1105.71 424.027C1102.22 428.103 1102.25 434.247 1105.56 438.476C1107.26 440.639 1109.41 442.4 1111.87 443.634C1114.41 444.924 1117.22 445.52 1120.06 445.617L1132.72 445.992C1135.74 446.082 1138.73 445.439 1141.44 444.118C1144.15 442.796 1146.5 440.837 1148.29 438.407L1153.7 431.029C1154.1 430.475 1154.5 429.92 1154.87 429.351C1160.02 421.614 1162.32 412.309 1161.96 402.99Z" fill="#142924"/>
<path opacity="0.25" d="M1077.42 364.743L1077.52 364.662C1088.49 355.667 1097.76 354.517 1109.99 361.808L1116.56 365.731C1119.44 367.438 1122.64 368.528 1125.96 368.931C1129.28 369.334 1132.65 369.041 1135.85 368.071C1144.7 365.366 1151.5 366.015 1160 369.437C1156.57 359.373 1147.66 351.636 1136.53 350.365C1133.34 350 1130.31 350.176 1127.73 350.96C1121.89 352.732 1115.56 351.961 1110.35 348.85L1104.43 345.306C1093.41 338.732 1079.31 339.76 1069.43 347.876L1069.35 347.957C1065.16 351.704 1062.57 356.857 1062.07 362.39C1061.5 368.842 1064.41 375.104 1069.6 379C1070.5 373.489 1073.27 368.456 1077.44 364.743H1077.42Z" fill="#6B7177"/>
<path d="M1217 571.844L1249.18 541L1289 627.272L1255.1 630L1217 571.844ZM1056 584.222L1017.4 562C1008.81 593.681 1001.01 625.57 994 657.638C1004.25 661.013 1014.39 664.471 1023.06 668L1055.99 584.222H1056Z" fill="#975D48"/>
<path d="M1072.4 481.732C1062.36 487.46 1053.37 494.893 1046.02 503.82C1036.16 515.765 1028.43 529.079 1022.88 543.176C1022.65 543.735 1022.43 544.294 1022.22 544.853C1019.78 551.084 1017.59 555.359 1016 561.842L1037.32 577.251L1062.58 580.898L1068.17 570.238C1069.11 599.354 1062.97 625.884 1064.04 655C1117.64 652.693 1171.31 652.529 1224.93 654.511C1219.59 621.036 1210.06 590.105 1203.52 556.672C1207.17 561.436 1209.39 567.388 1212.96 572.166C1220.21 571.859 1227.47 571.593 1234.72 571.37C1239.41 563.825 1249.17 552.579 1254 545.062C1250.02 538.985 1245.99 532.936 1241.89 526.886C1227.8 507.9 1209.16 491.959 1187.07 480.195L1158.58 473C1155.85 474.678 1153.02 476.212 1150.13 477.596C1138.42 483.227 1125.95 486.258 1113.36 486.468C1099.94 486.678 1089.78 484.819 1077.53 478.784L1072.39 481.718L1072.4 481.732Z" fill="#DE6A5A"/>
<path opacity="0.1" d="M1068.87 495.403C1069 495.292 1069.12 495.181 1069.25 495.084C1070.43 494.035 1071.62 492.99 1072.81 491.951C1076.01 489.157 1079.42 486.609 1083 484.327C1080.2 483.37 1077.45 482.234 1074.75 481L1072.06 482.539C1062.08 488.222 1053.15 495.597 1045.84 504.455C1036.04 516.307 1028.35 529.518 1022.84 543.505C1022.61 544.06 1022.39 544.614 1022.18 545.169C1019.76 551.351 1017.58 555.593 1016 562.025L1024.28 568C1025.73 562.76 1027.45 557.575 1029.48 552.502C1029.7 551.933 1029.92 551.365 1030.16 550.811C1038.45 530.031 1051.4 510.943 1068.9 495.417L1068.87 495.403Z" fill="#F7E1D5"/>
<path d="M1241.86 527.309C1229.83 511.14 1214.47 497.176 1196.49 486.127C1191.42 483.016 1186.11 480.31 1180.63 477.98L1161.94 470C1159.17 471.688 1151.86 478.273 1149 479.64L1152.38 480.826C1174.93 509.062 1185.16 546.728 1180.77 582.567L1172.64 649C1183.22 648.902 1213.34 648.888 1223.93 648.944C1219.03 618.713 1210.04 591.021 1204.16 560.832C1207.56 564.32 1209.54 568.993 1212.88 572.495C1226.39 571.923 1243.87 561.153 1251.05 550.007L1254 545.431C1250.01 539.347 1245.96 533.297 1241.87 527.281L1241.86 527.309Z" fill="#CD5747"/>
<path d="M1016.92 560.014L1013.48 570.334C1012.81 572.349 1012.84 574.532 1013.57 576.526C1014.31 578.519 1015.7 580.202 1017.52 581.298C1025.61 586.197 1037.89 591.536 1047.55 593.759C1051.62 594.706 1055.82 592.798 1057.87 589.189L1063 580.2C1047.31 578.375 1026.51 570.073 1016.94 560L1016.92 560.014Z" fill="#F7E1D5"/>
<path d="M1252.85 546C1242.24 558.254 1224.83 569.477 1211 573.046C1213.09 575.918 1215.61 578.943 1217.95 581.913C1220.14 584.673 1223.9 585.719 1227.24 584.492C1236.3 581.16 1249.73 572.433 1257.38 565.476C1260.21 562.897 1260.84 558.714 1258.82 555.494C1256.84 552.325 1254.85 549.16 1252.85 546Z" fill="#E8BE9E"/>
<path d="M1151.47 463.304C1149.08 462.691 1146.54 463.011 1144.37 464.199C1134.57 469.594 1124.03 472.533 1113.43 472.718C1106.51 472.831 1099.6 471.766 1092.94 469.58C1090.55 468.791 1087.95 468.964 1085.68 470.063L1077.69 476.083C1075.12 478.014 1075.56 482.131 1078.48 483.409C1089.52 488.222 1102.18 491.189 1113.54 490.991C1122.21 490.849 1131.92 488.903 1140.9 485.766C1147 483.636 1152.7 480.385 1157.8 476.267L1161.5 473.271C1163.9 471.34 1163.32 467.436 1160.48 466.343C1157.45 465.179 1153.95 463.915 1151.47 463.29V463.304Z" fill="#F7E1D5"/>
<path d="M1063 639L1074.11 630.512C1083.44 613.156 1085.41 590.418 1083.14 569.394C1082.4 562.494 1073.21 560.597 1069.71 566.598L1068 569.521L1063 639Z" fill="#CD5747"/>
<path d="M1160.44 466.42C1157.35 465.234 1153.78 463.947 1151.26 463.31C1148.82 462.686 1146.22 463.011 1144.01 464.221C1139.87 466.509 1135.51 468.375 1131 469.79C1139.12 471.54 1146.11 475.287 1151.34 481C1153.55 479.644 1155.68 478.146 1157.7 476.516L1161.47 473.464C1163.91 471.497 1163.33 467.519 1160.43 466.405L1160.44 466.42Z" fill="#E8BE9E"/>
<path d="M318.148 584.026L389.152 730H1300V612.215L1186.49 624.842C1133.95 630.69 1081.04 632.663 1028.21 630.744L622.569 616.03C552.643 613.497 483.13 604.153 415.017 588.132L330.683 568.309C321.566 566.165 314.048 575.589 318.148 584.026Z" fill="#142924"/>
<path opacity="0.25" d="M1186.49 624.842C1133.95 630.69 1081.04 632.663 1028.21 630.744L622.569 616.03C564.432 613.908 506.562 607.087 449.525 595.636C437.981 593.328 426.477 590.827 415.017 588.132L330.683 568.309C321.566 566.165 314.048 575.589 318.148 584.026L389.152 730H516.041L474.083 643.746C468.176 631.607 478.35 617.798 491.65 619.927C534.989 626.853 578.71 631.13 622.569 632.735L1028.21 647.449C1081.05 649.37 1133.95 647.393 1186.49 641.547L1300 628.92V612.215L1186.49 624.842Z" fill="#6B7177"/>
</g>
</g>
<defs>
<clipPath id="clip0_1_384">
<rect width="1300" height="730" fill="white"/>
</clipPath>
</defs>
</svg>
