<svg width="1297" height="729" viewBox="0 0 1297 729" fill="none" xmlns="http://www.w3.org/2000/svg">
<g clip-path="url(#clip0_1_493)">
<mask id="mask0_1_493" style="mask-type:luminance" maskUnits="userSpaceOnUse" x="0" y="0" width="1297" height="729">
<path d="M0 0H1296.02V728.23H0V0Z" fill="white"/>
</mask>
<g mask="url(#mask0_1_493)">
<path d="M1296 0.219971H0V728.22H1296V0.219971Z" fill="white"/>
<path opacity="0.11" d="M918.66 568.19C906.83 569.98 899.97 589.43 903.34 611.62C906.71 633.81 919.02 650.35 930.85 648.55C942.68 646.76 949.54 627.31 946.17 605.12C942.8 582.93 930.49 566.39 918.66 568.19Z" fill="black"/>
<path opacity="0.07" d="M872.87 541.39L880 519.99L808.94 481.23C800.4 476.57 796.6 466.57 799.49 457.58L798.83 457.24C788.35 451.87 784.21 439.02 789.58 428.55L810.8 387.13L810.88 386.96L811.33 386.09L746.19 367.48C748.438 376.722 749.054 386.286 748.01 395.74L740.69 461.58C739.236 474.671 740.969 487.919 745.74 500.197C750.51 512.474 758.178 523.416 768.09 532.09C777.942 540.712 785.578 551.574 790.355 563.763C795.132 575.952 796.91 589.11 795.54 602.13L792.87 634.82C791.047 657.091 797.173 679.287 810.16 697.47L831.98 728.02H903.98L872.85 642.6C861.9 609.759 861.9 574.251 872.85 541.41L872.87 541.39ZM1149.36 177.83L1149.33 177.73C1147.99 172.7 1146.14 167.83 1143.97 163.09L1103.21 82.8C1093.97 64.6069 1089.98 44.2034 1091.67 23.87L1093.67 0H995.2L997.89 9.59C1002.69 26.72 1011.15 42.61 1022.69 56.15L1035.66 71.37C1036.45 72.3 1037.23 73.25 1037.98 74.21C1038.3 74.62 1038.59 75.03 1038.9 75.44C1039.32 76.01 1039.76 76.57 1040.16 77.14C1040.53 77.66 1040.87 78.19 1041.23 78.72C1041.55 79.2 1041.89 79.67 1042.2 80.16C1042.64 80.85 1043.06 81.56 1043.48 82.26C1043.68 82.6 1043.9 82.92 1044.09 83.26C1044.56 84.07 1045.01 84.9 1045.45 85.73C1045.58 85.97 1045.71 86.2 1045.84 86.43C1046.33 87.38 1046.8 88.33 1047.26 89.3C1047.32 89.43 1047.39 89.55 1047.45 89.68C1047.93 90.7 1048.38 91.73 1048.81 92.77C1048.84 92.84 1048.88 92.91 1048.91 92.99C1049.36 94.08 1049.79 95.19 1050.19 96.3C1050.19 96.32 1050.21 96.34 1050.21 96.36C1053.47 105.43 1055.05 115.08 1054.7 124.85V124.98C1054.67 125.78 1054.63 126.59 1054.58 127.4C1054.52 128.25 1054.46 129.1 1054.38 129.95L1051.61 160.4C1051.5 161.58 1051.43 162.77 1051.37 163.95L1051.34 164.59C1051.29 165.73 1051.27 166.86 1051.27 168V168.64C1051.27 169.81 1051.3 170.99 1051.36 172.16V172.21C1051.42 173.38 1051.5 174.54 1051.61 175.71C1051.63 175.9 1051.64 176.08 1051.66 176.27C1051.77 177.41 1051.9 178.54 1052.06 179.67C1052.09 179.86 1052.11 180.05 1052.14 180.24C1052.31 181.41 1052.5 182.58 1052.71 183.74C1052.93 184.92 1053.18 186.1 1053.46 187.26L1053.55 187.66C1053.82 188.8 1054.11 189.93 1054.43 191.06C1054.47 191.21 1054.51 191.35 1054.56 191.5C1055.23 193.84 1056.01 196.16 1056.88 198.43C1056.91 198.5 1056.94 198.58 1056.96 198.65C1057.4 199.78 1057.86 200.9 1058.34 202C1058.38 202.1 1058.43 202.2 1058.47 202.3C1059.48 204.59 1060.58 206.83 1061.79 209.02C1061.8 209.04 1061.81 209.07 1061.83 209.09C1062.43 210.18 1063.06 211.25 1063.71 212.32C1063.75 212.39 1063.8 212.46 1063.84 212.53C1065.17 214.7 1066.6 216.81 1068.13 218.86C1069.25 220.353 1070.41 221.81 1071.62 223.23C1071.65 223.27 1071.68 223.3 1071.72 223.34C1073.11 224.976 1074.58 226.554 1076.1 228.07L1076.93 228.9L1087.01 216.81C1088.3 215.258 1090.09 214.203 1092.08 213.824C1094.06 213.445 1096.12 213.765 1097.89 214.73L1131.46 232.12L1133.3 233.3L1133.36 233.34L1146.64 241.87L1150.16 226.63C1153.88 210.535 1153.6 193.775 1149.36 177.81V177.83ZM1105.43 195.57C1096.14 198.26 1084.98 187.95 1080.51 172.52C1076.04 157.09 1079.94 142.41 1089.23 139.72C1098.52 137.03 1109.68 147.34 1114.15 162.77C1118.62 178.19 1114.72 192.88 1105.43 195.57Z" fill="black"/>
<path opacity="0.09" d="M1089.23 139.72C1079.94 142.41 1076.04 157.1 1080.51 172.52C1084.98 187.94 1096.14 198.26 1105.43 195.57C1114.72 192.88 1118.62 178.19 1114.15 162.77C1109.68 147.35 1098.52 137.03 1089.23 139.72Z" fill="black"/>
<path opacity="0.07" d="M865.579 104.79C865.509 105.05 865.439 105.3 865.359 105.56C865.429 105.3 865.499 105.05 865.579 104.79ZM943.06 111.35C935.844 98.7225 932.456 84.2688 933.31 69.75C933.49 66.73 933.48 63.69 933.29 60.67L933.15 58.42C932.571 49.1512 930.046 40.1084 925.74 31.88C924.47 29.4414 923.051 27.0835 921.49 24.82L904.31 0H804L803.89 0.36C796.79 16.87 800.99 36.08 814.35 48.1L814.95 48.64C826.252 58.8121 835.907 70.6766 843.57 83.81L848.87 92.89L855.17 94.18L855.49 94.25L865.66 96.33L865.99 96.4L868.18 96.85L879.2 100.58C881.43 101.33 883.52 102.44 885.4 103.86L897.41 112.96C899.14 114.27 900.98 115.45 902.89 116.49C904.03 117.12 905.19 117.72 906.36 118.29C906.51 118.36 906.65 118.43 906.8 118.5C907.82 119 908.85 119.47 909.89 119.93C910.01 119.98 910.14 120.04 910.26 120.09C910.38 120.14 910.51 120.2 910.63 120.25C911.11 120.46 911.6 120.64 912.09 120.84C912.58 121.04 913.06 121.24 913.55 121.43C913.69 121.48 913.83 121.54 913.97 121.59C914.11 121.64 914.25 121.7 914.39 121.75C915 121.98 915.63 122.18 916.25 122.4C916.87 122.62 917.48 122.85 918.11 123.05L923.33 124.74L928.55 126.43C929.8 126.83 931.06 127.2 932.32 127.55C932.47 127.59 932.61 127.63 932.76 127.66C932.91 127.7 933.05 127.74 933.2 127.77C933.71 127.9 934.22 128.02 934.73 128.14C935.24 128.26 935.75 128.4 936.26 128.51C936.39 128.54 936.52 128.57 936.65 128.59C936.78 128.62 936.91 128.65 937.04 128.67C938.15 128.91 939.27 129.13 940.38 129.32C940.54 129.35 940.7 129.38 940.86 129.4C941.51 129.51 942.16 129.59 942.81 129.69C943.46 129.79 944.11 129.9 944.76 129.98C947.86 130.36 950.98 130.58 954.1 130.63L943.06 111.31V111.35ZM1274.61 107.94C1251.93 81.7627 1236.43 50.1447 1229.63 16.18L1226.4 0H1164V23.15C1164 49.09 1172.8 74.25 1188.95 94.54L1213.76 125.69C1224.79 139.316 1231.74 155.789 1233.79 173.2C1233.91 174.21 1234.01 175.22 1234.1 176.23C1234.27 178.25 1234.38 180.28 1234.41 182.31C1234.45 184.34 1234.42 186.38 1234.32 188.41C1233.84 198.734 1231.63 208.904 1227.79 218.5C1220.21 237.449 1220.07 258.563 1227.4 277.61L1243.7 319.98C1244.33 321.63 1244.92 323.29 1245.48 324.96L1248.6 328.3L1248.62 328.32L1249.94 329.73V329.75L1255.17 335.34L1278.3 365.25C1279.57 366.824 1280.25 368.788 1280.23 370.808C1280.21 372.828 1279.49 374.779 1278.2 376.33L1272.55 383.1L1271.35 384.54L1274.74 387.37C1279.45 391.3 1280.08 398.3 1276.15 403.01L1249.26 435.32L1250.96 450.61C1254.18 479.61 1267.87 506.62 1289.95 525.71C1292.05 527.52 1294.05 529.42 1296 531.37V132.62L1274.61 107.94Z" fill="black"/>
<path opacity="0.09" d="M1226.4 0L1229.64 16.18C1236.43 50.1475 1251.93 81.7677 1274.62 107.94L1296.01 132.62V0H1226.4ZM810.18 697.45C797.193 679.267 791.067 657.071 792.89 634.8L795.56 602.11C796.929 589.09 795.15 575.932 790.373 563.744C785.596 551.555 777.961 540.692 768.11 532.07C758.198 523.396 750.529 512.454 745.758 500.177C740.987 487.9 739.255 474.651 740.71 461.56L748.03 395.72C749.09 386.17 748.43 376.61 746.21 367.46L811.35 386.07L820.08 369.04L793.41 360.43H793.38L770.89 353.16H770.87L745.6 344.99C743.23 344.22 741.07 343.11 739.16 341.73C739.09 341.68 739.02 341.62 738.95 341.57C737.63 340.59 736.43 339.49 735.35 338.28C733.699 336.404 732.362 334.273 731.39 331.97C728.93 331.97 726.59 330.91 724.98 329.06L720.72 324.2C710.717 312.77 704.103 298.775 701.62 283.79C701.296 281.836 701.043 279.872 700.86 277.9L700.83 277.51C700.75 276.57 700.68 275.63 700.63 274.69V274.57C700.58 273.59 700.55 272.6 700.53 271.62V271.16C700.53 270.33 700.53 269.5 700.54 268.67C700.54 268.49 700.54 268.31 700.55 268.12C700.58 267.17 700.62 266.22 700.68 265.26C700.68 265.12 700.7 264.97 700.71 264.83C700.76 264.02 700.83 263.22 700.91 262.41C700.93 262.16 700.96 261.91 700.99 261.66C701.09 260.72 701.2 259.78 701.34 258.84L707.04 218.96C707.36 216.71 707.56 214.46 707.69 212.21C708.13 204.69 707.56 197.19 705.96 189.92C705.91 189.67 705.84 189.43 705.78 189.18C704.68 184.37 703.14 179.67 701.19 175.13C698.309 168.397 694.528 162.087 689.95 156.37L637.15 75.98L587.2 0H524.16L770.13 728H832.01L810.19 697.45H810.18ZM710.28 410.68C699.62 413.64 686.7 400.64 681.42 381.64C676.14 362.64 680.5 344.84 691.16 341.88C701.82 338.92 714.74 351.92 720.02 370.92C725.3 389.92 720.94 407.72 710.28 410.68Z" fill="black"/>
<path opacity="0.11" d="M691.15 341.88C680.49 344.84 676.13 362.65 681.41 381.64C686.69 400.64 699.61 413.64 710.27 410.68C720.93 407.72 725.29 389.91 720.01 370.92C714.73 351.92 701.81 338.92 691.15 341.88Z" fill="black"/>
<path opacity="0.09" d="M987.8 637.4C990.59 617.89 990.48 598.08 987.48 578.61L1008.66 590.16C1019.33 595.98 1032.69 592.05 1038.51 581.38L1057.12 547.27C1057.34 552.8 1057.79 558.3 1058.45 563.78L1062.51 616.58C1063.49 629.341 1067.55 641.675 1074.33 652.53L1086.15 671.44C1096.68 688.291 1100.49 708.48 1096.84 728.01H1172.01L1155.91 679.7C1152.07 668.18 1150.93 655.932 1152.57 643.9L1159.33 594.37C1162.06 578.59 1160.99 562.39 1156.22 547.11L1206.36 486.87L1203.69 510.86C1201.29 532.48 1205.19 554.34 1214.92 573.8L1234.31 612.57C1243.28 630.52 1247.31 650.53 1245.98 670.56L1244.02 728H1296.02V531.35C1294.2 529.53 1292.33 527.76 1290.39 526.06C1268.28 506.718 1254.22 479.796 1250.98 450.6L1249.28 435.31L1276.17 403C1280.1 398.29 1279.47 391.29 1274.76 387.36L1271.37 384.53L1133.44 549.85C1123.76 561.45 1106.5 563.01 1094.9 553.33L1051.79 517.36L1033.31 553.42C1027.94 563.9 1015.09 568.04 1004.62 562.67L799.52 457.57C796.63 466.56 800.43 476.56 808.97 481.22L880.03 519.98L872.9 541.38C861.95 574.221 861.95 609.729 872.9 642.57L904.03 727.99H978.89L987.83 637.39L987.8 637.4ZM1257.64 540.34C1266.21 537.96 1276.6 548.41 1280.85 563.69C1285.1 578.97 1281.59 593.28 1273.02 595.66C1264.45 598.04 1254.06 587.59 1249.81 572.31C1245.56 557.03 1249.07 542.72 1257.64 540.34ZM930.86 648.55C919.03 650.34 906.71 633.81 903.35 611.62C899.98 589.43 906.84 569.98 918.67 568.19C930.5 566.4 942.82 582.93 946.18 605.12C949.55 627.31 942.69 646.76 930.86 648.55Z" fill="black"/>
<path opacity="0.11" d="M1257.63 540.34C1249.06 542.72 1245.55 557.04 1249.8 572.31C1254.05 587.59 1264.44 598.04 1273.01 595.66C1281.58 593.28 1285.09 578.96 1280.84 563.69C1276.59 548.41 1266.2 537.96 1257.63 540.34Z" fill="black"/>
<path opacity="0.07" d="M692.47 159.75C695.914 164.555 698.828 169.718 701.16 175.15C703.11 179.69 704.65 184.39 705.75 189.2C705.81 189.45 705.88 189.69 705.93 189.94C707.523 197.256 708.105 204.756 707.66 212.23C707.53 214.48 707.33 216.73 707.01 218.98L701.31 258.86C699.7 270.136 700.465 281.624 703.556 292.587C706.647 303.55 711.996 313.746 719.26 322.52C719.73 323.09 720.21 323.66 720.7 324.22L724.96 329.08C725.76 329.993 726.745 330.726 727.851 331.227C728.956 331.729 730.156 331.989 731.37 331.99C731.21 331.62 731.05 331.26 730.92 330.89C730.9 330.82 730.87 330.76 730.85 330.69C729.119 325.874 729.034 320.619 730.61 315.75L754.24 242.59L754.28 242.47L762.17 218.05L762.21 217.94L762.45 217.19L748.07 196.65C735.2 178.261 729.92 155.615 733.33 133.43L738.44 100.22C740.203 88.7548 739.66 77.053 736.842 65.8004C734.025 54.5479 728.989 43.9711 722.03 34.69L696 0H587.2L689.92 156.39C690.8 157.49 691.65 158.61 692.47 159.75Z" fill="black"/>
<path opacity="0.09" d="M1076.1 228.08C1073.57 225.55 1071.21 222.862 1069.03 220.03C1055.89 203.07 1049.67 181.764 1051.61 160.4L1054.38 129.95C1054.46 129.1 1054.52 128.25 1054.58 127.4C1054.62 126.82 1054.65 126.24 1054.67 125.66C1055.54 105.91 1048.67 86.6 1035.84 71.56L1022.7 56.14C1011.16 42.6005 1002.7 26.7137 997.9 9.58L995.2 0H904.31L921.49 24.82C928.364 34.7494 932.395 46.3672 933.15 58.42L933.29 60.67C933.48 63.69 933.48 66.72 933.31 69.75C932.456 84.2688 935.844 98.7225 943.06 111.35L954.1 130.67C954.82 130.68 955.54 130.69 956.26 130.69L966.18 130.6C968.53 130.58 970.87 130.94 973.11 131.66L984.18 135.24L986.2 136.18L986.5 136.32L995.91 140.71L996.21 140.85L1002.04 143.57L1014.8 151.04L1034.72 162.7C1036.49 163.688 1037.85 165.257 1038.59 167.14C1039.33 169.023 1039.4 171.104 1038.78 173.03L1037 178.55L1029.3 202.38L1020.12 230.8L1020.1 230.85L1020.08 230.9L1016.61 241.66C1017.14 242.04 1017.67 242.42 1018.21 242.79C1021.55 245.08 1025.07 247.2 1028.65 249.04L1039.37 254.54C1043.25 256.53 1047.37 258.25 1051.51 259.7C1059.02 250.6 1076.92 228.93 1076.92 228.93L1076.09 228.1L1076.1 228.08Z" fill="black"/>
<path d="M0.12 306.63L0 306.27V306.67L0.12 306.63Z" fill="black"/>
<path opacity="0.09" d="M1243.69 319.99L1227.39 277.62C1220.06 258.573 1220.2 237.459 1227.78 218.51C1240.26 187.31 1234.89 151.81 1213.75 125.69L1188.94 94.54C1172.78 74.2524 1163.99 49.0844 1163.99 23.15V0H1093.66L1091.67 23.87C1089.98 44.2034 1093.97 64.6069 1103.21 82.8L1113.54 103.14L1143.98 163.09C1145.48 166.38 1146.77 169.75 1148.01 173.14C1148.55 174.63 1148.94 176.17 1149.33 177.7L1149.36 177.82C1153.55 193.63 1153.91 210.38 1150.16 226.64L1146.64 241.88L1147.57 242.47L1147.62 242.5L1148.02 242.76L1156.94 250.2C1158.74 251.7 1160.29 253.49 1161.52 255.48L1165.28 261.56L1166.73 263.9C1166.98 264.31 1167.25 264.71 1167.51 265.12C1169.33 267.95 1171.3 270.66 1173.42 273.26C1173.57 273.44 1173.73 273.61 1173.88 273.79C1174.57 274.62 1175.26 275.44 1175.98 276.24C1176.09 276.36 1176.2 276.48 1176.3 276.6C1176.65 276.98 1177.01 277.35 1177.36 277.73C1177.78 278.18 1178.2 278.64 1178.63 279.08C1178.82 279.27 1179 279.46 1179.19 279.65C1179.93 280.39 1180.68 281.12 1181.45 281.83L1182.11 282.46C1183.07 283.34 1184.06 284.21 1185.06 285.05L1193.47 292.07C1194.48 292.91 1195.5 293.72 1196.55 294.51C1196.79 294.69 1197.03 294.86 1197.28 295.04C1198.12 295.67 1198.97 296.28 1199.83 296.87L1200.76 297.5C1201.6 298.07 1202.45 298.61 1203.32 299.15C1203.47 299.24 1203.62 299.34 1203.77 299.43C1208.16 302.124 1212.77 304.429 1217.56 306.32L1226.78 309.93C1228.97 310.79 1231 311.99 1232.8 313.49L1241.72 320.93L1245.46 324.93C1244.9 323.26 1244.31 321.6 1243.68 319.95L1243.69 319.99Z" fill="black"/>
<path opacity="0.07" d="M1086.14 671.43L1074.32 652.52C1067.54 641.666 1063.48 629.331 1062.5 616.57L1058.44 563.78C1058.17 561.55 1057.95 559.32 1057.75 557.09C1057.68 556.3 1057.61 555.51 1057.55 554.72C1057.49 553.96 1057.44 553.2 1057.39 552.43C1057.28 550.73 1057.18 549.02 1057.11 547.32V547.28L1038.5 581.39C1037.41 583.39 1036.05 585.15 1034.5 586.66C1034.45 586.71 1034.39 586.76 1034.34 586.81C1033.87 587.26 1033.39 587.68 1032.88 588.08L1032.77 588.16C1032.34 588.49 1031.9 588.81 1031.46 589.11C1031.18 589.29 1030.91 589.47 1030.62 589.64C1030.33 589.81 1030.04 589.98 1029.75 590.14C1029.03 590.53 1028.29 590.89 1027.53 591.2C1027.48 591.22 1027.44 591.24 1027.39 591.26C1024.38 592.472 1021.14 593.002 1017.9 592.812C1014.66 592.622 1011.5 591.716 1008.65 590.16L987.47 578.61C990.468 598.084 990.573 617.895 987.78 637.4L978.84 728H1096.82C1100.47 708.47 1096.65 688.282 1086.13 671.43H1086.14ZM1246.21 663.05C1246.21 661.8 1246.19 660.55 1246.15 659.31C1246.03 655.57 1245.72 651.84 1245.22 648.14C1244.92 645.9 1244.55 643.67 1244.12 641.46C1244.03 641.02 1243.95 640.57 1243.85 640.13C1241.88 630.61 1238.68 621.34 1234.29 612.57L1225.24 594.48L1214.9 573.8C1209.43 562.85 1205.8 551.15 1204.1 539.15C1203.72 536.48 1203.44 533.8 1203.25 531.12C1202.78 524.368 1202.92 517.587 1203.67 510.86L1205 498.86L1206.33 486.86L1181.26 516.98L1156.19 547.1C1157.38 550.92 1158.34 554.8 1159.07 558.71C1159.62 561.65 1160.03 564.6 1160.32 567.57C1160.61 570.54 1160.76 573.52 1160.78 576.5C1160.78 577.49 1160.78 578.49 1160.76 579.48C1160.65 584.45 1160.16 589.42 1159.31 594.35L1152.55 643.89C1150.91 655.922 1152.05 668.17 1155.89 679.69L1171.99 728H1243.99L1245.95 670.56C1246.12 668.06 1246.2 665.55 1246.2 663.06L1246.21 663.05Z" fill="black"/>
<path opacity="0.09" d="M814.94 48.65L814.34 48.11C800.98 36.09 796.77 16.88 803.88 0.37L804 0H696L722.01 34.68C728.971 43.9599 734.008 54.5366 736.826 65.7895C739.644 77.0424 740.186 88.7448 738.42 100.21L733.31 133.42C729.901 155.605 735.181 178.25 748.05 196.64L762.43 217.18L801.95 94.83C802.81 92.16 804.84 89.92 807.52 89.09C808.69 88.73 809.94 88.61 811.22 88.77L848.86 92.89L843.56 83.81C835.9 70.67 826.24 58.81 814.94 48.64V48.65Z" fill="black"/>
<g opacity="0.02">
<path d="M542.229 191.053L466.399 216.544C465.393 216.882 464.563 217.606 464.091 218.556C463.619 219.506 463.544 220.604 463.882 221.61L573.49 547.68C573.828 548.686 574.552 549.516 575.502 549.988C576.452 550.46 577.55 550.535 578.556 550.197L654.387 524.707C655.393 524.369 656.223 523.645 656.695 522.695C657.167 521.745 657.242 520.647 656.904 519.641L547.295 193.57C546.957 192.564 546.233 191.734 545.283 191.262C544.333 190.79 543.235 190.715 542.229 191.053ZM656.95 532.24L581.12 557.73C579.03 558.43 577.9 560.7 578.6 562.8L634.22 728.22H727.06L662.01 534.76C661.671 533.754 660.947 532.924 659.996 532.452C659.046 531.979 657.947 531.903 656.94 532.24H656.95ZM259.038 252.49L183.208 277.98C182.202 278.318 181.372 279.042 180.9 279.992C180.428 280.942 180.353 282.04 180.691 283.046L290.299 609.117C290.637 610.123 291.361 610.953 292.311 611.425C293.261 611.897 294.359 611.972 295.365 611.634L371.195 586.143C372.201 585.805 373.031 585.081 373.503 584.131C373.975 583.181 374.05 582.083 373.712 581.077L264.104 255.007C263.766 254.001 263.042 253.171 262.092 252.699C261.142 252.227 260.044 252.152 259.038 252.49ZM295.42 624.26L330.38 728.23H423.22L378.84 596.22C378.501 595.214 377.777 594.384 376.826 593.912C375.876 593.439 374.777 593.363 373.77 593.7L297.94 619.19C295.85 619.89 294.72 622.16 295.42 624.26ZM319.448 130.902L243.618 156.392C242.612 156.73 241.782 157.454 241.31 158.404C240.838 159.354 240.763 160.452 241.101 161.458L350.709 487.529C351.047 488.535 351.771 489.365 352.721 489.837C353.671 490.309 354.769 490.384 355.775 490.046L431.605 464.556C432.611 464.218 433.441 463.494 433.913 462.544C434.385 461.594 434.46 460.496 434.122 459.49L324.514 133.419C324.176 132.413 323.452 131.583 322.502 131.111C321.552 130.639 320.454 130.564 319.448 130.902ZM319.41 118.23L279.73 0.219971H186.89L235.99 146.27C236.69 148.36 238.96 149.49 241.06 148.79L316.89 123.3C318.98 122.6 320.11 120.33 319.41 118.23ZM474.14 277.21L381.02 0.219971H288.18L390.73 305.25C391.43 307.34 393.7 308.47 395.8 307.77L471.63 282.28C473.72 281.58 474.85 279.31 474.15 277.21H474.14ZM355.82 502.67L431.66 728.23H524.5L439.24 474.63C438.901 473.624 438.177 472.794 437.226 472.322C436.276 471.849 435.177 471.773 434.17 472.11L358.34 497.6C356.25 498.3 355.12 500.57 355.82 502.67ZM161.15 551.24L51.52 225.17C51.1808 224.164 50.4566 223.334 49.5061 222.862C48.5556 222.389 47.4565 222.313 46.45 222.65L0 238.28V348.06L77.74 579.28C78.44 581.37 80.71 582.5 82.81 581.8L158.64 556.31C160.73 555.61 161.86 553.34 161.16 551.24H161.15ZM46.43 210.01L0 71.93V229.84L43.91 215.08C46 214.38 47.13 212.11 46.43 210.01ZM82.84 594.45L127.82 728.23H220.66L166.25 566.41C165.911 565.404 165.187 564.574 164.236 564.102C163.286 563.629 162.187 563.553 161.18 563.89L85.35 589.38C83.26 590.08 82.13 592.35 82.83 594.45H82.84ZM109.402 108.665L33.572 134.156C32.5664 134.494 31.7363 135.218 31.2643 136.168C30.7923 137.118 30.717 138.216 31.055 139.222L140.663 465.292C141.001 466.298 141.725 467.128 142.675 467.6C143.625 468.072 144.723 468.147 145.729 467.809L221.559 442.319C222.565 441.981 223.395 441.257 223.867 440.307C224.339 439.357 224.414 438.259 224.076 437.253L114.468 111.182C114.13 110.176 113.406 109.346 112.456 108.874C111.506 108.402 110.408 108.327 109.402 108.665ZM109.38 96L77.17 0.219971H0V46.82L25.96 124.04C26.66 126.13 28.93 127.26 31.03 126.56L106.86 101.07C108.95 100.37 110.08 98.1 109.38 96ZM542.19 178.37L482.3 0.219971H389.46L458.78 206.41C459.48 208.5 461.75 209.63 463.85 208.93L539.68 183.44C541.77 182.74 542.9 180.47 542.2 178.37H542.19ZM0.05 373.3L0 373.32V649.3L26.54 728.23H48.95L108.43 708.23C110.52 707.53 111.65 705.26 110.95 703.16L0.05 373.3ZM74.05 728.22H119.37L116.04 718.32C115.701 717.314 114.977 716.484 114.026 716.012C113.076 715.539 111.977 715.463 110.97 715.8L74.04 728.22H74.05ZM259.01 239.82L178.45 0.219971H85.61L175.59 267.86C176.29 269.95 178.56 271.08 180.66 270.38L256.49 244.89C258.58 244.19 259.71 241.92 259.01 239.82ZM145.79 480.44L229.1 728.22H321.94L229.2 452.39C228.861 451.384 228.137 450.554 227.186 450.082C226.236 449.609 225.137 449.533 224.13 449.87L148.3 475.36C146.21 476.06 145.08 478.33 145.78 480.43L145.79 480.44ZM474.169 289.894L398.338 315.385C397.332 315.723 396.502 316.447 396.03 317.397C395.558 318.347 395.483 319.445 395.821 320.451L505.43 646.521C505.768 647.527 506.492 648.357 507.442 648.829C508.392 649.301 509.49 649.376 510.496 649.038L586.326 623.548C587.332 623.21 588.162 622.486 588.634 621.536C589.106 620.586 589.181 619.488 588.843 618.482L479.235 292.411C478.897 291.405 478.173 290.575 477.223 290.103C476.273 289.631 475.175 289.556 474.169 289.894ZM510.55 661.65L532.93 728.23H625.77L593.96 633.61C593.621 632.604 592.897 631.774 591.946 631.302C590.996 630.829 589.897 630.753 588.89 631.09L513.06 656.58C510.97 657.28 509.84 659.55 510.54 661.65H510.55ZM18.56 728.22L0 673.03V728.22H18.56Z" fill="black"/>
</g>
<path opacity="0.05" d="M524.16 0H515.11L761.07 728H770.12L524.16 0Z" fill="black"/>
<path opacity="0.07" d="M489.9 0L735.87 728H761.07L515.11 0H489.9Z" fill="black"/>
<path d="M1278.29 365.48L1256.9 337.82C1257.24 337.43 1257.58 337.04 1257.91 336.65C1259.45 334.8 1259.34 332.08 1257.7 330.32L1248.94 320.89C1246.91 318.7 1243.43 318.89 1241.59 321.23C1227.15 339.56 1202.66 348.78 1178.31 342.29C1149 334.48 1129.8 305.7 1133.92 275.64C1135.58 263.56 1140.61 252.91 1147.88 244.41C1149.78 242.19 1149.2 238.78 1146.71 237.24L1135.8 230.45C1133.78 229.19 1131.13 229.59 1129.59 231.4L1097.89 214.97C1096.12 214.005 1094.06 213.685 1092.08 214.064C1090.09 214.443 1088.3 215.499 1087.01 217.05C1087.01 217.05 1059.02 250.81 1051.51 259.91C1052.29 260.18 1053.06 260.46 1053.84 260.71C1055.39 261.21 1056.96 261.67 1058.53 262.09C1061.86 262.98 1065.24 263.7 1068.66 264.22L1078.5 265.73L1079.43 265.87C1081.98 266.26 1084.45 267.06 1086.75 268.24L1096.11 273.03L1111.01 283.71C1111.01 307.96 1121.79 330.74 1139.55 346.28C1139.41 346.56 1051.76 517.59 1051.76 517.59L1094.87 553.56C1106.47 563.24 1123.73 561.68 1133.41 550.08L1278.19 376.56C1279.48 375.009 1280.2 373.058 1280.22 371.038C1280.24 369.018 1279.56 367.054 1278.29 365.48Z" fill="#AF5B48"/>
<path d="M1232.82 313.75C1231.02 312.25 1228.98 311.04 1226.8 310.19L1217.58 306.58C1214 305.17 1210.52 303.527 1207.16 301.66H1207.18L1203.84 305.66L1193.83 317.65L1192.52 319.22C1191.66 320.26 1190.12 320.39 1189.08 319.53L1159.09 294.51C1158.05 293.65 1157.92 292.11 1158.78 291.07L1160.09 289.5L1168.36 279.59L1173.43 273.51C1171.31 270.912 1169.33 268.194 1167.52 265.37C1167.26 264.96 1166.99 264.56 1166.74 264.15L1165.29 261.81L1161.53 255.72C1160.3 253.72 1158.75 251.94 1156.94 250.44L1148.02 243L1147.36 243.79L1147.27 243.89L1144.89 246.74C1144.43 247.29 1144 247.85 1143.56 248.4C1138.99 254.19 1135.43 260.41 1132.93 266.83C1128.98 276.94 1127.65 287.52 1129.11 297.68L1139.88 306.23L1139.94 306.28L1142.13 308.02L1148.06 312.73C1149.8 314.111 1151.01 316.052 1151.48 318.224C1151.95 320.395 1151.65 322.663 1150.64 324.64L1149.36 327.15L1147.24 331.29C1147.88 331.87 1148.54 332.45 1149.22 333.02L1152.97 336.15C1173.63 353.38 1199.79 353.4 1220.99 340.32C1227.42 336.36 1233.39 331.2 1238.61 324.95L1238.75 324.78L1241.74 321.2L1232.82 313.76V313.75Z" fill="#6D4B3E"/>
<path d="M1207.15 301.65C1206.01 301.02 1204.89 300.36 1203.78 299.68C1203.64 299.6 1203.5 299.51 1203.36 299.42C1202.4 298.82 1201.45 298.21 1200.51 297.57C1200.29 297.42 1200.06 297.27 1199.84 297.12C1198.98 296.52 1198.13 295.91 1197.29 295.29C1197.05 295.11 1196.8 294.94 1196.57 294.76C1195.53 293.97 1194.5 293.16 1193.49 292.32L1185.08 285.3C1184.07 284.46 1183.09 283.6 1182.13 282.71L1181.47 282.08C1180.7 281.37 1179.95 280.64 1179.21 279.9C1179.02 279.71 1178.84 279.52 1178.65 279.33C1178.22 278.89 1177.8 278.43 1177.38 277.98C1177.03 277.6 1176.66 277.24 1176.32 276.85C1176.21 276.73 1176.1 276.61 1176 276.49C1175.28 275.69 1174.59 274.87 1173.9 274.04C1173.75 273.86 1173.59 273.69 1173.44 273.51L1168.37 279.59L1160.1 289.5L1158.79 291.07C1157.93 292.11 1158.07 293.64 1159.1 294.51L1189.09 319.53C1190.12 320.39 1191.66 320.25 1192.53 319.22L1193.84 317.65L1203.85 305.66L1207.19 301.66H1207.17L1207.15 301.65Z" fill="white"/>
<path d="M1035.46 160.74L1002.44 142.38L996.66 139.53L982.42 132.51L973.22 129.56C970.96 128.84 968.6 128.48 966.23 128.51H965.36L956.21 128.63C953.03 128.67 949.86 128.52 946.71 128.21C945.22 128.07 943.73 127.88 942.25 127.66L940.76 132.31L935.3 149.33C935.212 149.606 935.07 149.863 934.882 150.084C934.694 150.306 934.465 150.488 934.207 150.621C933.948 150.754 933.667 150.834 933.377 150.858C933.088 150.882 932.797 150.849 932.52 150.76L903.9 141.59L900.06 140.36H900.02L898.89 139.99C898.614 139.901 898.357 139.759 898.136 139.572C897.914 139.384 897.732 139.154 897.599 138.896C897.467 138.638 897.386 138.356 897.362 138.067C897.338 137.778 897.372 137.486 897.46 137.21L899.57 130.62L899.61 130.5L903.85 117.26L904.4 115.54C903.07 114.86 901.75 114.14 900.45 113.39C899.94 113.09 899.43 112.78 898.92 112.47C898.91 112.47 898.89 112.45 898.88 112.45C897.953 111.891 897.036 111.314 896.13 110.72C894.9 109.91 893.68 109.08 892.48 108.21L884.4 102.3C882.49 100.9 880.36 99.82 878.1 99.09L868.9 96.14L846.88 92.54L809.34 88.29C806.21 87.94 803.22 89.27 801.37 91.65C800.75 92.45 800.26 93.36 799.94 94.37L799.11 96.96L727.78 319.53C724.48 329.83 730.15 340.86 740.46 344.16L942.77 409C953.07 412.3 964.1 406.63 967.4 396.32L1038.77 173.62L1039.56 171.16C1040.18 169.216 1040.11 167.117 1039.36 165.219C1038.61 163.321 1037.22 161.742 1035.44 160.75L1035.46 160.74Z" fill="#E8AF57"/>
<path d="M940.031 127.28C936.061 126.59 932.071 125.64 928.261 124.42L917.711 121.04C914.191 119.91 910.681 118.51 907.311 116.94C906.761 116.68 906.231 116.41 905.691 116.15C905.271 115.95 904.841 115.75 904.431 115.54L903.881 117.26L899.641 130.5L899.601 130.62L897.491 137.21C897.121 138.37 897.761 139.61 898.921 139.99L900.051 140.35H900.091L903.931 141.59L932.551 150.76C933.711 151.13 934.951 150.49 935.331 149.33L940.791 132.31L942.281 127.66C941.541 127.55 940.791 127.41 940.051 127.28H940.031Z" fill="white"/>
<path d="M848.38 92.27C844.53 104.41 843.56 117.67 846.15 131.12C854.15 172.61 893.98 200.65 935.74 194.23C966.26 189.54 989.91 168.04 998.89 140.67C999.6 138.49 998.56 136.12 996.49 135.13L985.43 129.83C982.87 128.6 979.85 129.98 979.03 132.7C972.63 153.99 954.15 170.7 930.29 173.46C901.58 176.78 874.52 157.97 867.68 129.89C864.93 118.6 865.68 107.41 869.15 97.34C870.06 94.71 868.35 91.89 865.61 91.39L853.57 89.18C851.31 88.77 849.06 90.08 848.37 92.28L848.38 92.27Z" fill="#C5955F"/>
<path d="M867.69 129.89C874.53 157.97 901.59 176.78 930.3 173.46C954.15 170.7 972.63 153.99 979.04 132.7C979.16 132.29 979.34 131.92 979.55 131.58L973.23 129.56C970.97 128.84 968.61 128.48 966.24 128.51H965.37L956.22 128.63C953.04 128.67 949.87 128.52 946.72 128.21C945.23 128.07 943.74 127.88 942.26 127.66L940.77 132.31L935.31 149.33C935.222 149.606 935.079 149.863 934.892 150.084C934.704 150.306 934.474 150.488 934.216 150.621C933.958 150.754 933.676 150.834 933.387 150.858C933.098 150.882 932.807 150.849 932.53 150.76L903.91 141.59L900.07 140.36H900.03L898.9 139.99C898.624 139.901 898.367 139.759 898.146 139.572C897.924 139.384 897.742 139.154 897.609 138.896C897.476 138.638 897.396 138.356 897.372 138.067C897.348 137.778 897.381 137.486 897.47 137.21L899.58 130.62L899.62 130.5L903.86 117.26L904.41 115.54C903.08 114.86 901.76 114.14 900.46 113.39C899.95 113.09 899.44 112.78 898.93 112.47C898.92 112.47 898.9 112.45 898.89 112.45C897.961 111.889 897.04 111.312 896.13 110.72C894.9 109.91 893.68 109.08 892.48 108.21L884.4 102.3C882.49 100.9 880.36 99.82 878.1 99.09L869.37 96.29C869.34 96.64 869.27 97 869.15 97.35C865.67 107.42 864.93 118.61 867.68 129.9L867.69 129.89Z" fill="#A2754B"/>
<path opacity="0.15" d="M727.52 320.59C724.92 330.58 730.52 340.96 740.47 344.15L942.78 408.99C952.73 412.18 963.33 406.98 967.02 397.35C967.15 397.01 967.3 396.67 967.41 396.32L1038.78 173.62L1039.57 171.16C1040.19 169.216 1040.12 167.117 1039.37 165.219C1038.62 163.321 1037.23 161.742 1035.45 160.75L1026.67 155.87L958.14 371.08C955.38 379.74 946.71 385.08 937.73 383.65L891.83 376.32C871.815 373.121 852.61 366.071 835.28 355.56L814.9 343.2C788.613 327.259 758.219 319.399 727.5 320.6L727.52 320.59Z" fill="white"/>
<path d="M1257.7 330.31L1248.94 320.88C1246.91 318.69 1243.43 318.88 1241.59 321.22C1227.15 339.55 1202.66 348.77 1178.31 342.28C1149 334.47 1129.8 305.69 1133.92 275.63C1135.58 263.55 1140.61 252.9 1147.88 244.4C1149.78 242.18 1149.2 238.77 1146.71 237.23L1135.8 230.44C1133.75 229.16 1131.05 229.59 1129.53 231.46C1121.1 241.83 1115.04 254.41 1112.4 268.55C1106.85 298.25 1118.13 327.52 1139.55 346.27C1139.41 346.55 1139.27 346.82 1139.13 347.1L1051.77 517.58L1070.91 533.55L1104.75 493.03C1105.83 491.73 1106.13 490.03 1105.68 488.52C1105.42 487.62 1104.9 486.79 1104.13 486.15L1090.65 474.9L1104.49 448.29L1122.88 463.63C1123.87 464.46 1125.16 464.861 1126.45 464.745C1127.74 464.628 1128.93 464.005 1129.76 463.01L1132.89 459.26C1133.72 458.265 1134.12 456.982 1134 455.692C1133.89 454.401 1133.26 453.21 1132.27 452.38L1111.42 434.99L1118.34 421.69L1141.65 441.14C1142.64 441.97 1143.93 442.371 1145.22 442.255C1146.51 442.138 1147.7 441.514 1148.53 440.52L1157.91 429.27C1158.74 428.275 1159.14 426.992 1159.02 425.702C1158.91 424.411 1158.28 423.22 1157.29 422.39L1129.88 399.52L1152.7 355.68C1159.7 359.71 1167.38 362.78 1175.62 364.65C1207.23 371.81 1238.61 359.91 1257.91 336.63C1259.45 334.78 1259.34 332.06 1257.7 330.3V330.31Z" fill="#9C483B"/>
<path d="M1148.07 312.74L1115.87 287.18L1110.17 283.1L1096.12 273.04L1086.76 268.25C1084.46 267.071 1081.99 266.271 1079.44 265.88L1078.51 265.74L1068.67 264.23C1065.25 263.71 1061.87 262.98 1058.54 262.1C1056.96 261.68 1055.4 261.22 1053.85 260.72L1051.43 265.45L1042.56 282.76C1042.42 283.041 1042.22 283.291 1041.98 283.495C1041.74 283.7 1041.46 283.855 1041.16 283.951C1040.86 284.048 1040.54 284.084 1040.23 284.058C1039.92 284.032 1039.61 283.945 1039.33 283.8L1010.22 268.88L1006.31 266.88L1006.27 266.86L1005.12 266.27C1004.84 266.127 1004.59 265.93 1004.38 265.689C1004.18 265.449 1004.03 265.171 1003.93 264.871C1003.83 264.571 1003.8 264.255 1003.82 263.94C1003.85 263.626 1003.94 263.32 1004.08 263.04L1007.51 256.34L1007.57 256.22L1014.47 242.75L1015.37 241C1014.06 240.03 1012.77 239.03 1011.51 238C1011.01 237.59 1010.52 237.17 1010.03 236.75C1010.02 236.74 1010 236.73 1009.99 236.72C1009.09 235.95 1008.21 235.17 1007.34 234.38C1006.16 233.295 1005 232.181 1003.87 231.04L996.24 223.26C994.43 221.42 992.34 219.88 990.04 218.7L980.68 213.91L957.67 206.15L918.11 194.94C914.81 194.01 911.36 194.91 908.96 197.13C908.132 197.892 907.448 198.796 906.94 199.8L905.59 202.43L789.59 428.8C784.22 439.28 788.36 452.12 798.84 457.49L1004.6 562.93C1015.08 568.3 1027.93 564.16 1033.29 553.68L1149.36 327.18L1150.64 324.67C1151.65 322.693 1151.95 320.425 1151.48 318.254C1151.01 316.082 1149.8 314.141 1148.06 312.76L1148.07 312.74Z" fill="#59B1AB"/>
<path d="M850.68 246.49L794.84 228.46L789.78 244.13L782.82 265.68C782.71 266.01 782.62 266.34 782.54 266.68C782.44 267.09 782.36 267.51 782.3 267.93C782.21 268.5 782.15 269.07 782.13 269.64V269.71C782.12 270.05 782.13 270.4 782.13 270.74C782.13 270.86 782.15 270.97 782.15 271.08C782.16 271.31 782.18 271.53 782.2 271.76C782.22 271.9 782.24 272.03 782.25 272.17L782.34 272.77L782.43 273.2C782.47 273.39 782.51 273.58 782.56 273.77C782.6 273.92 782.64 274.06 782.68 274.2C782.73 274.39 782.79 274.57 782.85 274.76C782.9 274.9 782.94 275.04 782.99 275.18C783.06 275.37 783.13 275.56 783.21 275.74C783.26 275.87 783.31 276 783.37 276.13C783.46 276.34 783.57 276.55 783.67 276.76C783.72 276.86 783.76 276.96 783.82 277.05L783.94 277.26C784.15 277.64 784.37 278.01 784.62 278.37C784.66 278.43 784.7 278.5 784.75 278.57C784.92 278.82 785.11 279.05 785.29 279.29C785.41 279.44 785.54 279.59 785.67 279.74C785.94 280.05 786.21 280.37 786.51 280.66C787.84 281.97 789.24 283.19 790.7 284.32C791.25 284.74 791.8 285.15 792.36 285.55C800.277 291.143 809.717 294.179 819.41 294.25C820.06 294.25 820.7 294.25 821.35 294.22C822.28 294.19 823.2 294.13 824.13 294.04C825.05 293.95 825.98 293.84 826.9 293.7C827.59 293.6 828.26 293.44 828.91 293.25C829.35 293.12 829.77 292.96 830.19 292.79C830.29 292.75 830.4 292.7 830.5 292.66C830.71 292.57 830.91 292.47 831.11 292.37C831.51 292.17 831.9 291.96 832.29 291.73C832.48 291.62 832.66 291.51 832.84 291.39C832.95 291.32 833.06 291.24 833.17 291.16C833.46 290.96 833.73 290.74 834 290.52C834.08 290.45 834.17 290.39 834.25 290.31C834.58 290.03 834.89 289.73 835.19 289.42C835.29 289.32 835.39 289.21 835.48 289.1C835.68 288.88 835.88 288.66 836.06 288.43C836.18 288.29 836.29 288.14 836.4 288C836.57 287.77 836.73 287.54 836.89 287.3C837.03 287.09 837.16 286.88 837.29 286.67C837.45 286.4 837.6 286.12 837.75 285.84C837.9 285.54 838.05 285.24 838.18 284.93C838.35 284.53 838.5 284.13 838.64 283.72L850.66 246.49H850.68Z" fill="#C5955F"/>
<path d="M1086.76 268.23C1084.46 267.051 1081.99 266.251 1079.44 265.86L1078.51 265.72L1068.67 264.21C1065.25 263.69 1061.87 262.96 1058.54 262.08C1056.96 261.66 1055.4 261.2 1053.85 260.7L1051.43 265.43L1042.56 282.74C1042.42 283.021 1042.22 283.271 1041.98 283.475C1041.74 283.68 1041.46 283.835 1041.16 283.932C1040.86 284.028 1040.54 284.065 1040.23 284.039C1039.92 284.013 1039.61 283.925 1039.33 283.78L1010.22 268.86L1006.31 266.86L1006.27 266.84L1005.12 266.25C1004.84 266.107 1004.59 265.91 1004.38 265.67C1004.18 265.429 1004.03 265.151 1003.93 264.851C1003.83 264.551 1003.8 264.235 1003.82 263.92C1003.85 263.606 1003.94 263.3 1004.08 263.02L1007.51 256.32L1007.57 256.2L1014.47 242.73L1015.37 240.98C1014.06 240.01 1012.77 239.01 1011.51 237.98C1011.01 237.57 1010.52 237.15 1010.03 236.73C1010.02 236.72 1010 236.71 1009.99 236.7C1009.09 235.93 1008.21 235.15 1007.34 234.36C1006.16 233.275 1005 232.161 1003.87 231.02L996.24 223.24C994.43 221.4 992.34 219.86 990.04 218.68L980.68 213.89L980.48 214.28L978.26 218.61L976.55 221.95C975.87 223.28 975.26 224.62 974.68 225.97C967.18 243.4 967.94 262.55 975.43 278.77C976.05 280.12 976.73 281.45 977.44 282.76C978.15 284.07 978.92 285.35 979.73 286.61C980.54 287.87 981.39 289.1 982.29 290.31C983.19 291.52 984.13 292.69 985.12 293.84C986.295 295.204 987.526 296.518 988.81 297.78C990.1 299.05 991.45 300.26 992.85 301.43C993.55 302.01 994.27 302.58 995 303.14C995.61 303.61 996.23 304.06 996.86 304.51C997.49 304.96 998.13 305.4 998.78 305.82C1000.67 307.05 1002.63 308.2 1004.68 309.25C1005.03 309.43 1005.39 309.59 1005.74 309.76C1007.39 310.57 1009.05 311.32 1010.72 311.97C1012.76 312.77 1014.82 313.45 1016.9 314.03C1018.98 314.61 1021.07 315.08 1023.16 315.44C1024.21 315.62 1025.26 315.78 1026.31 315.91C1028.41 316.17 1030.51 316.32 1032.61 316.37C1033.66 316.4 1034.71 316.4 1035.75 316.37C1038.89 316.29 1042 315.99 1045.08 315.47C1049.47 314.718 1053.77 313.519 1057.91 311.89C1060.28 310.96 1062.6 309.89 1064.85 308.69C1066.35 307.89 1067.82 307.03 1069.26 306.11C1071.42 304.73 1073.5 303.22 1075.5 301.57C1077.5 299.92 1079.41 298.14 1081.22 296.24C1083.04 294.322 1084.75 292.295 1086.32 290.17C1087.37 288.75 1088.36 287.28 1089.31 285.76C1090.08 284.52 1090.81 283.24 1091.51 281.94C1091.66 281.66 1091.82 281.39 1091.96 281.11L1092.38 280.28L1094.13 276.87L1096.09 273.04L1086.73 268.25L1086.76 268.23Z" fill="#1F8A84"/>
<path d="M1051.52 259.91C1047.38 258.47 1043.27 256.74 1039.38 254.75L1028.66 249.25C1025.08 247.41 1021.56 245.29 1018.22 243C1017.68 242.63 1017.15 242.24 1016.62 241.87C1016.21 241.58 1015.78 241.29 1015.38 240.99L1014.48 242.74L1007.58 256.21L1007.52 256.33L1004.09 263.03C1003.49 264.21 1003.95 265.66 1005.13 266.26L1006.28 266.85L1006.32 266.87L1010.23 268.87L1039.34 283.79C1040.52 284.39 1041.97 283.93 1042.57 282.75L1051.44 265.44L1053.86 260.71C1053.08 260.46 1052.31 260.18 1051.53 259.91H1051.52Z" fill="white"/>
<path d="M804.531 211.14C804.251 211.11 803.971 211.1 803.691 211.12C801.751 211.25 799.991 212.53 799.351 214.5L797.851 219.15L797.521 220.18L794.851 228.45L850.691 246.48L850.761 246.26L851.161 245.01L852.651 240.39L855.191 232.52C855.291 232.23 855.341 231.93 855.381 231.63C855.391 231.52 855.391 231.42 855.401 231.31C855.411 231.13 855.421 230.94 855.401 230.76C855.401 230.62 855.381 230.49 855.361 230.36C855.341 230.22 855.311 230.09 855.281 229.95C855.241 229.79 855.211 229.64 855.161 229.49C855.131 229.4 855.091 229.31 855.061 229.23C854.701 228.34 854.091 227.55 853.281 227C853.281 227 853.261 226.99 853.251 226.98C853.231 226.96 853.201 226.95 853.181 226.93C853.101 226.87 853.031 226.81 852.951 226.77C852.881 226.73 852.811 226.71 852.741 226.68C852.521 226.57 852.291 226.45 852.041 226.37L805.511 211.34C805.191 211.24 804.861 211.17 804.531 211.13V211.14Z" fill="#E5E6E6"/>
<path d="M959.31 206.1C953.03 218.45 949.63 232.52 950.04 247.42C951.29 293.39 989.09 330.54 1035.07 331.04C1068.67 331.41 1097.88 312.5 1112.36 284.7C1113.51 282.49 1112.81 279.76 1110.77 278.33L1099.83 270.68C1097.3 268.91 1093.81 269.85 1092.45 272.63C1081.81 294.35 1059 309.03 1032.9 307.77C1001.49 306.25 975.76 281.26 973.38 249.9C972.43 237.29 975.21 225.4 980.72 215.21C982.16 212.54 980.83 209.22 977.98 208.19L965.44 203.69C963.08 202.84 960.44 203.86 959.31 206.09V206.1Z" fill="#3F9E98"/>
<path d="M789.101 429.87C784.551 440.13 788.721 452.28 798.841 457.46L1004.6 562.9C1014.72 568.08 1027.02 564.38 1032.69 554.69C1032.89 554.34 1033.11 554.01 1033.29 553.65L1149.36 327.15L1150.64 324.64C1151.65 322.663 1151.95 320.395 1151.48 318.224C1151.01 316.052 1149.8 314.111 1148.06 312.73L1139.5 305.94L1027.81 524.89C1023.32 533.7 1013.05 537.9 1003.67 534.78L955.681 518.78C934.756 511.801 915.382 500.832 898.631 486.48L878.941 469.6C853.536 447.829 822.29 434.009 789.091 429.86L789.101 429.87Z" fill="#78C2BD"/>
<path d="M863.01 451.27L901.35 438.91H901.37L1006.76 404.93C999.92 394.37 990.85 385.1 979.75 377.94L976.1 379.12L932.47 393.19L904.48 402.21H904.45L845.18 421.32C844.83 422.21 844.5 423.11 844.18 424.01C844.18 424.02 844.18 424.03 844.17 424.04C840.18 435.244 838.43 447.122 839.02 459L862.96 451.28H863L863.01 451.27Z" fill="#E9AF58"/>
<path d="M876.06 497.03L883.18 494.73L883.29 494.69L923.85 481.62L923.92 481.6L993.05 459.31L1021.36 450.18C1020.81 439.073 1018.24 428.159 1013.79 417.97C1011.81 413.434 1009.46 409.067 1006.77 404.91L901.38 438.89H901.36L863.02 451.26H862.98L839.04 458.99C839.39 466.08 840.61 473.08 842.57 479.86L842.64 479.9L876.07 497.03H876.06Z" fill="#DE6A5B"/>
<path d="M973.98 534.65C989.51 526.18 1002.76 513.15 1011.44 496.22C1012.85 493.47 1014.1 490.68 1015.21 487.87L954.35 507.49L954.3 507.51L918.84 518.94L960.95 540.52C965.43 538.92 969.78 536.95 973.97 534.66H973.99L973.98 534.65Z" fill="#1F8A84"/>
<path d="M904.49 402.21L932.48 393.19L976.11 379.12L979.76 377.94C978.86 377.36 977.93 376.81 977 376.25C975.31 375.24 973.6 374.27 971.83 373.36C950.24 362.3 926.31 360.67 904.73 366.96H904.7C896.51 369.344 888.691 372.858 881.47 377.4C868.08 385.84 856.71 397.86 848.97 412.96C847.578 415.68 846.32 418.467 845.2 421.31L904.47 402.2H904.5L904.49 402.21Z" fill="#E5E6E6"/>
<path opacity="0.35" d="M839.04 459L856.51 453.37C851.01 450.03 845.34 447.01 839.51 444.31C838.96 449.21 838.8 454.13 839.04 459Z" fill="white"/>
<path d="M878.95 469.61C871.9 463.56 864.38 458.16 856.51 453.37L839.04 459C839.39 466.09 840.61 473.09 842.57 479.87L842.64 479.91L876.07 497.04L883.19 494.74L883.3 494.7L901.47 488.84C900.52 488.06 899.58 487.28 898.65 486.48L878.96 469.6L878.95 469.61Z" fill="#E87E69"/>
<path d="M973.98 534.65C977.47 532.75 980.84 530.6 984.07 528.24L955.69 518.78C950.1 516.92 944.63 514.76 939.28 512.34L918.82 518.94L946.74 533.25L960.94 540.52C965.42 538.92 969.77 536.95 973.96 534.66H973.98V534.65Z" fill="#3F9E98"/>
</g>
</g>
<defs>
<clipPath id="clip0_1_493">
<rect width="1297" height="729" fill="white"/>
</clipPath>
</defs>
</svg>
