<svg width="129" height="35" viewBox="0 0 129 35" fill="none" xmlns="http://www.w3.org/2000/svg">
<g filter="url(#filter0_dd_3013_14825)">
<g clip-path="url(#clip0_3013_14825)">
<g clip-path="url(#clip1_3013_14825)">
<path d="M2.99792 11.7694C2.99792 7.82135 2.99792 5.84731 4.22443 4.62081C5.45094 3.3943 7.42498 3.3943 11.373 3.3943H25.0377C28.9858 3.3943 30.9598 3.3943 32.1863 4.62081C33.4128 5.84731 33.4128 7.82135 33.4128 11.7694V25.4341C33.4128 29.3822 33.4128 31.3562 32.1863 32.5827C30.9598 33.8092 28.9858 33.8092 25.0377 33.8092H11.373C7.42497 33.8092 5.45094 33.8092 4.22443 32.5827C2.99792 31.3562 2.99792 29.3822 2.99792 25.4341V11.7694Z" fill="white"/>
<g filter="url(#filter1_f_3013_14825)">
<ellipse cx="-7.46783" cy="37.2339" rx="30.8588" ry="33.8395" fill="#00ED97"/>
</g>
<g filter="url(#filter2_f_3013_14825)">
<ellipse cx="53.7951" cy="4.20582" rx="36.7141" ry="44.1001" transform="rotate(-35.6464 53.7951 4.20582)" fill="#7EFFD8"/>
</g>
<g filter="url(#filter3_f_3013_14825)">
<ellipse cx="37.5348" cy="45.4301" rx="30.7309" ry="32.6728" transform="rotate(-35.6464 37.5348 45.4301)" fill="#0057FF"/>
</g>
<g filter="url(#filter4_d_3013_14825)">
<path d="M19.1483 11.2257C19.1782 13.2016 22.1158 13.1621 22.1829 11.2257C22.1483 9.23814 19.186 9.23003 19.1483 11.2257Z" fill="white"/>
<path d="M21.5583 14.1804L19.1857 14.1373L17.7432 25.727C17.7262 25.8675 17.8443 25.9892 17.9871 25.977C19.4822 25.8507 20.704 24.7081 20.8855 23.2181L21.9228 14.5897C21.9476 14.3742 21.7785 14.184 21.5578 14.1799L21.5583 14.1804Z" fill="white"/>
<path d="M16.5844 9.47627H16.3782C14.8831 9.47627 13.3364 10.8963 13.2333 13.635L12.0115 23.2669C11.8418 24.6423 12.8879 25.8681 14.2866 25.9508V25.9543H14.3376H16.3782C16.537 25.9543 16.6695 25.8357 16.6845 25.6805L16.8438 24.0454C16.8639 23.8243 16.8639 23.2664 16.1828 23.2496C14.2273 23.2025 15.2136 21.3387 15.162 20.1722L16.5844 9.47627Z" fill="white"/>
</g>
</g>
</g>
<rect x="2.3777" y="2.77224" width="29.4555" height="29.4555" rx="5.99581" stroke="white" stroke-width="1.2446" shape-rendering="crispEdges"/>
</g>
<path fill-rule="evenodd" clip-rule="evenodd" d="M48.0314 6.71344H48.2777L46.6129 20.2247C46.6288 20.5855 46.5616 21.0022 46.4939 21.4225C46.2999 22.6258 46.101 23.8596 47.8324 23.9014C48.6461 23.9214 48.6461 24.5879 48.6221 24.8521L48.4317 26.8055C48.4139 26.9909 48.2556 27.1327 48.0659 27.1327H45.628H45.567V27.1285C43.8959 27.0297 42.6462 25.5652 42.8488 23.922L44.2741 11.6819C44.3973 8.40999 46.2451 6.71344 48.0314 6.71344ZM107.872 12.9407L104.83 12.9747C104.549 13.1182 102.818 16.8387 101.672 19.3037L101.672 19.3038C101.115 20.5011 100.696 21.4021 100.647 21.4532C100.564 21.641 100.281 21.6059 100.25 21.4029C100.328 21.3903 99.205 17.3229 98.5935 15.1074C98.379 14.3303 98.2274 13.781 98.2125 13.7145C98.0931 13.2782 97.6927 12.974 97.2338 12.971L93.2074 12.9425C92.7073 13.031 93.314 10.8534 93.4039 10.691C93.9512 9.30769 94.9429 9.25133 95.7555 9.20515C96.3002 9.1742 96.7643 9.14782 96.9603 8.72962L97.2363 7.15001C93.3478 6.43503 91.731 8.09826 91.731 8.09826C90.4006 9.23677 89.8468 11.0127 89.731 12.7577C89.7181 12.862 89.6282 12.9407 89.5216 12.9407L87.6639 13.0013C87.6362 13.0153 87.513 14.6512 87.513 14.6512C87.387 15.2988 88.0221 15.294 88.6051 15.2896C88.8283 15.2879 89.0439 15.2863 89.2063 15.3214L87.6073 30.1202C89.468 30.0014 91.2204 28.7423 91.4372 26.8961L92.7701 15.5395C92.7824 15.4347 92.873 15.3553 92.9801 15.3559L95.2289 15.362C95.3238 15.362 95.4069 15.425 95.4322 15.5152L98.2587 25.7279C98.3238 25.8502 97.2945 28.4419 96.5895 30.2171L96.5894 30.2174C96.2327 31.1154 95.9591 31.8044 95.952 31.8592H97.1112C98.4799 31.8592 99.7339 31.1072 100.36 29.9099L108.062 13.2443C108.136 13.1049 108.032 12.9389 107.872 12.9407H107.872ZM83.1635 9.47823C83.1992 11.8389 86.7088 11.7916 86.7889 9.47823C86.7476 7.10366 83.2084 7.09396 83.1635 9.47823ZM83.0786 12.954L85.9132 13.0055V13.0049C86.1768 13.0098 86.3788 13.1764 86.3493 13.4339L85.1716 23.6211C84.9412 25.5098 83.3127 26.9312 81.3792 26.9312L83.0786 12.954ZM51.444 9.66058C51.4797 12.0212 54.9894 11.974 55.0694 9.66058C55.0282 7.28601 51.489 7.27631 51.444 9.66058ZM51.4191 12.954L54.2537 13.0055L54.2531 13.0049C54.5167 13.0098 54.7187 13.237 54.6892 13.4945L53.4499 23.8029C53.2331 25.5831 51.7733 26.9482 49.9871 27.0991C49.8165 27.1136 49.6754 26.9682 49.6957 26.8004L51.4191 12.954ZM55.3262 19.661C54.8322 22.1373 54.7805 25.6201 57.3625 26.8222C59.7092 27.8305 62.0091 26.3418 63.3593 24.3665L62.4582 31.5532C64.4027 31.5387 66.0355 30.1093 66.2764 28.211L68.1722 12.9577C58.2562 11.924 55.854 17.0137 55.3262 19.6603V19.661ZM64.524 15.4486L64.1674 18.1868C63.9734 19.6731 63.4221 21.0976 62.5296 22.3124C61.501 23.7127 60.1336 24.7155 58.9381 23.6806C56.3757 21.4623 59.9149 14.8615 64.1631 15.0281C64.3854 15.0366 64.5524 15.2317 64.524 15.4486ZM71.6888 21.748C71.0033 26.0143 75.1258 24.2347 76.2628 21.8165H76.264C76.9404 20.7584 77.1137 19.3879 77.2836 18.0437C77.5979 15.5575 77.9008 13.1614 81.3542 12.9986L79.6246 26.8922C79.5042 26.8942 79.3882 26.8963 79.2766 26.8983C76.7538 26.9443 76.4676 26.9495 76.7377 24.1074C75.2194 26.2809 72.593 27.8387 70.0855 26.7413C68.2938 25.8034 67.9913 23.6815 68.2445 21.748L69.3181 12.9986C73.03 13.1626 72.4407 16.7196 71.9648 19.5925C71.8321 20.3937 71.7082 21.1417 71.6888 21.748Z" fill="#110D1A"/>
<path d="M111.177 22.2862V16.1903H113.463C113.931 16.1903 114.324 16.2776 114.641 16.4522C114.961 16.6269 115.202 16.867 115.365 17.1726C115.529 17.4762 115.612 17.8214 115.612 18.2084C115.612 18.5993 115.529 18.9466 115.365 19.2502C115.2 19.5538 114.957 19.7929 114.635 19.9675C114.314 20.1402 113.918 20.2265 113.448 20.2265H111.933V19.3186H113.299C113.573 19.3186 113.797 19.271 113.972 19.1758C114.146 19.0805 114.275 18.9495 114.359 18.7829C114.444 18.6162 114.487 18.4247 114.487 18.2084C114.487 17.9921 114.444 17.8016 114.359 17.6369C114.275 17.4722 114.145 17.3442 113.969 17.2529C113.794 17.1597 113.569 17.113 113.293 17.113H112.281V22.2862H111.177ZM116.487 22.2862V16.1903H118.773C119.241 16.1903 119.634 16.2717 119.952 16.4344C120.271 16.5971 120.512 16.8253 120.675 17.119C120.84 17.4107 120.922 17.751 120.922 18.1399C120.922 18.5308 120.839 18.8702 120.672 19.1579C120.507 19.4437 120.264 19.6649 119.943 19.8217C119.621 19.9765 119.227 20.0538 118.758 20.0538H117.13V19.1371H118.609C118.883 19.1371 119.107 19.0994 119.282 19.024C119.457 18.9466 119.586 18.8345 119.669 18.6876C119.754 18.5388 119.797 18.3562 119.797 18.1399C119.797 17.9236 119.754 17.7391 119.669 17.5863C119.584 17.4315 119.454 17.3144 119.279 17.2351C119.104 17.1537 118.879 17.113 118.603 17.113H117.591V22.2862H116.487ZM119.636 19.524L121.145 22.2862H119.913L118.431 19.524H119.636ZM127.302 19.2383C127.302 19.8951 127.179 20.4577 126.933 20.926C126.689 21.3923 126.355 21.7495 125.933 21.9975C125.512 22.2456 125.035 22.3696 124.501 22.3696C123.967 22.3696 123.489 22.2456 123.066 21.9975C122.646 21.7475 122.312 21.3893 122.066 20.923C121.822 20.4547 121.7 19.8931 121.7 19.2383C121.7 18.5814 121.822 18.0199 122.066 17.5536C122.312 17.0852 122.646 16.7271 123.066 16.479C123.489 16.231 123.967 16.107 124.501 16.107C125.035 16.107 125.512 16.231 125.933 16.479C126.355 16.7271 126.689 17.0852 126.933 17.5536C127.179 18.0199 127.302 18.5814 127.302 19.2383ZM126.192 19.2383C126.192 18.7759 126.119 18.386 125.974 18.0685C125.831 17.749 125.633 17.5079 125.379 17.3452C125.125 17.1805 124.832 17.0981 124.501 17.0981C124.17 17.0981 123.877 17.1805 123.623 17.3452C123.369 17.5079 123.169 17.749 123.025 18.0685C122.882 18.386 122.81 18.7759 122.81 19.2383C122.81 19.7006 122.882 20.0915 123.025 20.411C123.169 20.7285 123.369 20.9696 123.623 21.1343C123.877 21.297 124.17 21.3784 124.501 21.3784C124.832 21.3784 125.125 21.297 125.379 21.1343C125.633 20.9696 125.831 20.7285 125.974 20.411C126.119 20.0915 126.192 19.7006 126.192 19.2383Z" fill="url(#paint0_linear_3013_14825)"/>
<defs>
<filter id="filter0_dd_3013_14825" x="0.411993" y="0.806559" width="33.387" height="34.0586" filterUnits="userSpaceOnUse" color-interpolation-filters="sRGB">
<feFlood flood-opacity="0" result="BackgroundImageFix"/>
<feColorMatrix in="SourceAlpha" type="matrix" values="0 0 0 0 0 0 0 0 0 0 0 0 0 0 0 0 0 0 127 0" result="hardAlpha"/>
<feOffset dy="0.671689"/>
<feGaussianBlur stdDeviation="0.671689"/>
<feComposite in2="hardAlpha" operator="out"/>
<feColorMatrix type="matrix" values="0 0 0 0 0 0 0 0 0 0 0 0 0 0 0 0 0 0 0.15 0"/>
<feBlend mode="normal" in2="BackgroundImageFix" result="effect1_dropShadow_3013_14825"/>
<feColorMatrix in="SourceAlpha" type="matrix" values="0 0 0 0 0 0 0 0 0 0 0 0 0 0 0 0 0 0 127 0" result="hardAlpha"/>
<feOffset/>
<feGaussianBlur stdDeviation="0.671689"/>
<feComposite in2="hardAlpha" operator="out"/>
<feColorMatrix type="matrix" values="0 0 0 0 0 0 0 0 0 0 0 0 0 0 0 0 0 0 0.03 0"/>
<feBlend mode="normal" in2="effect1_dropShadow_3013_14825" result="effect2_dropShadow_3013_14825"/>
<feBlend mode="normal" in="SourceGraphic" in2="effect2_dropShadow_3013_14825" result="shape"/>
</filter>
<filter id="filter1_f_3013_14825" x="-55.1871" y="-13.4661" width="95.4385" height="101.4" filterUnits="userSpaceOnUse" color-interpolation-filters="sRGB">
<feFlood flood-opacity="0" result="BackgroundImageFix"/>
<feBlend mode="normal" in="SourceGraphic" in2="BackgroundImageFix" result="shape"/>
<feGaussianBlur stdDeviation="8.43022" result="effect1_foregroundBlur_3013_14825"/>
</filter>
<filter id="filter2_f_3013_14825" x="-2.4443" y="-54.3994" width="112.479" height="117.211" filterUnits="userSpaceOnUse" color-interpolation-filters="sRGB">
<feFlood flood-opacity="0" result="BackgroundImageFix"/>
<feBlend mode="normal" in="SourceGraphic" in2="BackgroundImageFix" result="shape"/>
<feGaussianBlur stdDeviation="8.43022" result="effect1_foregroundBlur_3013_14825"/>
</filter>
<filter id="filter3_f_3013_14825" x="-10.7312" y="-3.46011" width="96.5319" height="97.7803" filterUnits="userSpaceOnUse" color-interpolation-filters="sRGB">
<feFlood flood-opacity="0" result="BackgroundImageFix"/>
<feBlend mode="normal" in="SourceGraphic" in2="BackgroundImageFix" result="shape"/>
<feGaussianBlur stdDeviation="8.43022" result="effect1_foregroundBlur_3013_14825"/>
</filter>
<filter id="filter4_d_3013_14825" x="9.34863" y="7.27229" width="15.479" height="21.7911" filterUnits="userSpaceOnUse" color-interpolation-filters="sRGB">
<feFlood flood-opacity="0" result="BackgroundImageFix"/>
<feColorMatrix in="SourceAlpha" type="matrix" values="0 0 0 0 0 0 0 0 0 0 0 0 0 0 0 0 0 0 127 0" result="hardAlpha"/>
<feOffset dy="0.440796"/>
<feGaussianBlur stdDeviation="1.32239"/>
<feComposite in2="hardAlpha" operator="out"/>
<feColorMatrix type="matrix" values="0 0 0 0 0 0 0 0 0 0 0 0 0 0 0 0 0 0 0.1 0"/>
<feBlend mode="normal" in2="BackgroundImageFix" result="effect1_dropShadow_3013_14825"/>
<feBlend mode="normal" in="SourceGraphic" in2="effect1_dropShadow_3013_14825" result="shape"/>
</filter>
<linearGradient id="paint0_linear_3013_14825" x1="111.147" y1="14.2405" x2="132.694" y2="16.4982" gradientUnits="userSpaceOnUse">
<stop stop-color="#0154F5"/>
<stop offset="1" stop-color="#2DF0B3"/>
</linearGradient>
<clipPath id="clip0_3013_14825">
<rect x="3" y="3.39454" width="28.2109" height="28.2109" rx="5.37351" fill="white"/>
</clipPath>
<clipPath id="clip1_3013_14825">
<rect x="2.99927" y="3.39433" width="28.2109" height="28.2109" rx="5.33657" fill="white"/>
</clipPath>
</defs>
</svg>
