<svg width="129" height="35" viewBox="0 0 129 35" fill="none" xmlns="http://www.w3.org/2000/svg">
<g filter="url(#filter0_dd_3201_30822)">
<g clip-path="url(#clip0_3201_30822)">
<g clip-path="url(#clip1_3201_30822)">
<path d="M25.038 3.39429C28.9859 3.39429 30.9599 3.39437 32.1864 4.62085C33.4128 5.84735 33.413 7.82137 33.413 11.7693V25.4343C33.413 29.3822 33.4129 31.3563 32.1864 32.5828C30.9599 33.8092 28.9859 33.8093 25.038 33.8093H11.3729C7.425 33.8093 5.45099 33.8092 4.22449 32.5828C2.998 31.3563 2.99792 29.3822 2.99792 25.4343V11.7693C2.99792 7.8213 2.99799 5.84735 4.22449 4.62085C5.45098 3.39435 7.42494 3.39429 11.3729 3.39429H25.038Z" fill="white"/>
<g filter="url(#filter1_f_3201_30822)">
<ellipse cx="-7.46783" cy="37.2338" rx="30.8588" ry="33.8395" fill="#00ED97"/>
</g>
<g filter="url(#filter2_f_3201_30822)">
<ellipse cx="53.7951" cy="4.2058" rx="36.7141" ry="44.1001" transform="rotate(-35.6464 53.7951 4.2058)" fill="#7EFFD8"/>
</g>
<g filter="url(#filter3_f_3201_30822)">
<ellipse cx="37.5348" cy="45.43" rx="30.7309" ry="32.6728" transform="rotate(-35.6464 37.5348 45.43)" fill="#0057FF"/>
</g>
<g filter="url(#filter4_d_3201_30822)">
<path d="M19.1483 11.2257C19.1782 13.2016 22.1158 13.1621 22.1829 11.2257C22.1483 9.23815 19.186 9.23003 19.1483 11.2257Z" fill="white"/>
<path d="M21.5583 14.1804L19.1857 14.1373L17.7432 25.727C17.7262 25.8675 17.8443 25.9892 17.9871 25.977C19.4822 25.8507 20.704 24.7081 20.8855 23.218L21.9228 14.5897C21.9476 14.3742 21.7785 14.184 21.5578 14.1799L21.5583 14.1804Z" fill="white"/>
<path d="M16.5844 9.47626H16.3782C14.8831 9.47626 13.3364 10.8963 13.2333 13.635L12.0115 23.2669C11.8418 24.6423 12.8879 25.8681 14.2866 25.9508V25.9543H14.3376H16.3782C16.537 25.9543 16.6695 25.8356 16.6845 25.6805L16.8438 24.0454C16.8639 23.8242 16.8639 23.2664 16.1828 23.2496C14.2273 23.2025 15.2136 21.3386 15.162 20.1722L16.5844 9.47626Z" fill="white"/>
</g>
</g>
</g>
<rect x="2.3777" y="2.77223" width="29.4555" height="29.4555" rx="5.99581" stroke="white" stroke-width="1.2446" shape-rendering="crispEdges"/>
</g>
<path d="M91.7306 8.09821C91.7306 8.09821 93.348 6.43499 97.2365 7.14996L96.9601 8.73004C96.4713 9.77139 94.3174 8.38095 93.4035 10.691C93.3132 10.8549 92.7078 13.0304 93.2072 12.9429L97.2336 12.9713C97.6924 12.9743 98.0936 13.2782 98.213 13.7144C98.2705 13.9714 100.354 21.3838 100.25 21.4029C100.282 21.6058 100.564 21.6412 100.648 21.4537C100.795 21.2973 104.413 13.1875 104.83 12.9742L107.872 12.941C108.032 12.9392 108.136 13.1053 108.062 13.2447L100.361 29.9097C99.7341 31.107 98.48 31.8589 97.1115 31.8589H95.9523C95.9755 31.6907 98.355 25.9161 98.2589 25.7281L95.4318 15.5152C95.4065 15.425 95.3235 15.3619 95.2287 15.3619L92.9806 15.356C92.8734 15.3554 92.782 15.4348 92.7697 15.5396L91.4377 26.8961C91.2208 28.7422 89.4682 30.0018 87.6076 30.1207L89.2062 15.3218C88.6198 15.1952 87.3385 15.5465 87.5128 14.6509C87.5146 14.6273 87.6367 13.0154 87.6642 13.0015L89.5216 12.941C89.6282 12.941 89.7177 12.8616 89.7306 12.7574C89.8465 11.0125 90.4004 9.23665 91.7306 8.09821ZM55.3263 19.6607C55.8542 17.0141 58.2562 11.924 68.172 12.9576L66.2765 28.2115C66.0355 30.1096 64.4025 31.5387 62.4582 31.5533L63.3595 24.3668C62.0094 26.342 59.7092 27.8301 57.3625 26.8218C54.942 25.6948 54.8362 22.5637 55.2394 20.1363L55.3263 19.6607ZM48.2775 6.71344L46.6125 20.2252C46.6738 21.6187 45.4965 23.8444 47.8322 23.9009C48.6458 23.9209 48.6462 24.5879 48.6222 24.8521L48.4318 26.8052C48.4139 26.9906 48.2553 27.1324 48.0656 27.1324H45.5666V27.1285C43.8959 27.0295 42.6464 25.5653 42.8488 23.9224L44.2746 11.6822C44.3978 8.41026 46.2452 6.71344 48.0314 6.71344H48.2775ZM79.6242 26.8922C76.7802 26.9382 76.4554 27.0746 76.7375 24.107C75.2192 26.2804 72.5926 27.8391 70.0851 26.7418C68.2935 25.8038 67.9911 23.681 68.2443 21.7476L69.3185 12.9986C74.0648 13.2085 71.7775 18.967 71.6886 21.7476C71.0031 26.0136 75.1256 24.235 76.2628 21.817H76.2638C78.1911 18.8019 76.0341 13.2494 81.3546 12.9986L79.6242 26.8922ZM54.2541 13.0054L54.2531 13.0045C54.5167 13.0093 54.7192 13.2372 54.6896 13.4947L53.4503 23.8033C53.2334 25.5832 51.7734 26.9482 49.9875 27.0992C49.8169 27.1137 49.6752 26.9682 49.6955 26.8004L51.4191 12.9537L54.2541 13.0054ZM85.9132 13.0054V13.0045C86.1768 13.0093 86.3793 13.1766 86.3498 13.4341L85.172 23.6207C84.9417 25.5093 83.3125 26.9312 81.3791 26.9312L83.0783 12.9537L85.9132 13.0054ZM64.1632 15.0279C59.9153 14.8613 56.3762 21.4616 58.9377 23.6802C60.1332 24.7151 61.5008 23.7123 62.5294 22.3121C63.4218 21.0973 63.9731 19.6732 64.1671 18.1871L64.5236 15.4488C64.5519 15.2319 64.3855 15.0364 64.1632 15.0279ZM51.4445 9.66071C51.4895 7.27644 55.0282 7.28613 55.0695 9.66071C54.9893 11.9739 51.4803 12.0212 51.4445 9.66071ZM83.1632 9.47809C83.2083 7.09401 86.7478 7.1037 86.7892 9.47809C86.7091 11.7915 83.199 11.8387 83.1632 9.47809Z" fill="white"/>
<path d="M111.176 22.2862V16.1903H113.462C113.931 16.1903 114.324 16.2776 114.641 16.4522C114.961 16.6268 115.202 16.8669 115.364 17.1725C115.529 17.4761 115.611 17.8214 115.611 18.2083C115.611 18.5993 115.529 18.9465 115.364 19.2501C115.2 19.5537 114.957 19.7929 114.635 19.9675C114.314 20.1401 113.918 20.2264 113.448 20.2264H111.932V19.3186H113.299C113.573 19.3186 113.797 19.271 113.971 19.1757C114.146 19.0805 114.275 18.9495 114.358 18.7828C114.444 18.6161 114.486 18.4246 114.486 18.2083C114.486 17.992 114.444 17.8016 114.358 17.6369C114.275 17.4721 114.145 17.3442 113.968 17.2529C113.794 17.1596 113.569 17.113 113.293 17.113H112.281V22.2862H111.176ZM116.487 22.2862V16.1903H118.773C119.241 16.1903 119.634 16.2716 119.952 16.4343C120.271 16.597 120.512 16.8252 120.675 17.1189C120.84 17.4106 120.922 17.751 120.922 18.1399C120.922 18.5308 120.839 18.8701 120.672 19.1579C120.507 19.4436 120.264 19.6649 119.943 19.8216C119.621 19.9764 119.226 20.0538 118.758 20.0538H117.13V19.137H118.609C118.883 19.137 119.107 19.0993 119.282 19.0239C119.456 18.9465 119.585 18.8344 119.669 18.6876C119.754 18.5387 119.797 18.3562 119.797 18.1399C119.797 17.9236 119.754 17.739 119.669 17.5862C119.583 17.4315 119.453 17.3144 119.279 17.235C119.104 17.1537 118.879 17.113 118.603 17.113H117.591V22.2862H116.487ZM119.636 19.524L121.145 22.2862H119.913L118.431 19.524H119.636ZM127.302 19.2382C127.302 19.895 127.179 20.4576 126.933 20.9259C126.688 21.3922 126.355 21.7494 125.932 21.9975C125.512 22.2455 125.034 22.3695 124.501 22.3695C123.967 22.3695 123.489 22.2455 123.066 21.9975C122.645 21.7474 122.312 21.3893 122.066 20.9229C121.822 20.4546 121.7 19.8931 121.7 19.2382C121.7 18.5814 121.822 18.0198 122.066 17.5535C122.312 17.0852 122.645 16.727 123.066 16.479C123.489 16.2309 123.967 16.1069 124.501 16.1069C125.034 16.1069 125.512 16.2309 125.932 16.479C126.355 16.727 126.688 17.0852 126.933 17.5535C127.179 18.0198 127.302 18.5814 127.302 19.2382ZM126.191 19.2382C126.191 18.7759 126.119 18.3859 125.974 18.0684C125.831 17.749 125.633 17.5079 125.379 17.3452C125.125 17.1804 124.832 17.0981 124.501 17.0981C124.169 17.0981 123.877 17.1804 123.623 17.3452C123.369 17.5079 123.169 17.749 123.024 18.0684C122.881 18.3859 122.81 18.7759 122.81 19.2382C122.81 19.7006 122.881 20.0915 123.024 20.411C123.169 20.7285 123.369 20.9696 123.623 21.1343C123.877 21.297 124.169 21.3784 124.501 21.3784C124.832 21.3784 125.125 21.297 125.379 21.1343C125.633 20.9696 125.831 20.7285 125.974 20.411C126.119 20.0915 126.191 19.7006 126.191 19.2382Z" fill="url(#paint0_linear_3201_30822)"/>
<defs>
<filter id="filter0_dd_3201_30822" x="0.411993" y="0.806555" width="33.387" height="34.0586" filterUnits="userSpaceOnUse" color-interpolation-filters="sRGB">
<feFlood flood-opacity="0" result="BackgroundImageFix"/>
<feColorMatrix in="SourceAlpha" type="matrix" values="0 0 0 0 0 0 0 0 0 0 0 0 0 0 0 0 0 0 127 0" result="hardAlpha"/>
<feOffset dy="0.671689"/>
<feGaussianBlur stdDeviation="0.671689"/>
<feComposite in2="hardAlpha" operator="out"/>
<feColorMatrix type="matrix" values="0 0 0 0 0 0 0 0 0 0 0 0 0 0 0 0 0 0 0.15 0"/>
<feBlend mode="normal" in2="BackgroundImageFix" result="effect1_dropShadow_3201_30822"/>
<feColorMatrix in="SourceAlpha" type="matrix" values="0 0 0 0 0 0 0 0 0 0 0 0 0 0 0 0 0 0 127 0" result="hardAlpha"/>
<feOffset/>
<feGaussianBlur stdDeviation="0.671689"/>
<feComposite in2="hardAlpha" operator="out"/>
<feColorMatrix type="matrix" values="0 0 0 0 0 0 0 0 0 0 0 0 0 0 0 0 0 0 0.03 0"/>
<feBlend mode="normal" in2="effect1_dropShadow_3201_30822" result="effect2_dropShadow_3201_30822"/>
<feBlend mode="normal" in="SourceGraphic" in2="effect2_dropShadow_3201_30822" result="shape"/>
</filter>
<filter id="filter1_f_3201_30822" x="-55.1871" y="-13.4661" width="95.4385" height="101.4" filterUnits="userSpaceOnUse" color-interpolation-filters="sRGB">
<feFlood flood-opacity="0" result="BackgroundImageFix"/>
<feBlend mode="normal" in="SourceGraphic" in2="BackgroundImageFix" result="shape"/>
<feGaussianBlur stdDeviation="8.43022" result="effect1_foregroundBlur_3201_30822"/>
</filter>
<filter id="filter2_f_3201_30822" x="-2.4443" y="-54.3995" width="112.479" height="117.211" filterUnits="userSpaceOnUse" color-interpolation-filters="sRGB">
<feFlood flood-opacity="0" result="BackgroundImageFix"/>
<feBlend mode="normal" in="SourceGraphic" in2="BackgroundImageFix" result="shape"/>
<feGaussianBlur stdDeviation="8.43022" result="effect1_foregroundBlur_3201_30822"/>
</filter>
<filter id="filter3_f_3201_30822" x="-10.7312" y="-3.46012" width="96.5319" height="97.7803" filterUnits="userSpaceOnUse" color-interpolation-filters="sRGB">
<feFlood flood-opacity="0" result="BackgroundImageFix"/>
<feBlend mode="normal" in="SourceGraphic" in2="BackgroundImageFix" result="shape"/>
<feGaussianBlur stdDeviation="8.43022" result="effect1_foregroundBlur_3201_30822"/>
</filter>
<filter id="filter4_d_3201_30822" x="9.34863" y="7.27228" width="15.479" height="21.7911" filterUnits="userSpaceOnUse" color-interpolation-filters="sRGB">
<feFlood flood-opacity="0" result="BackgroundImageFix"/>
<feColorMatrix in="SourceAlpha" type="matrix" values="0 0 0 0 0 0 0 0 0 0 0 0 0 0 0 0 0 0 127 0" result="hardAlpha"/>
<feOffset dy="0.440796"/>
<feGaussianBlur stdDeviation="1.32239"/>
<feComposite in2="hardAlpha" operator="out"/>
<feColorMatrix type="matrix" values="0 0 0 0 0 0 0 0 0 0 0 0 0 0 0 0 0 0 0.1 0"/>
<feBlend mode="normal" in2="BackgroundImageFix" result="effect1_dropShadow_3201_30822"/>
<feBlend mode="normal" in="SourceGraphic" in2="effect1_dropShadow_3201_30822" result="shape"/>
</filter>
<linearGradient id="paint0_linear_3201_30822" x1="111.147" y1="14.2405" x2="132.694" y2="16.4982" gradientUnits="userSpaceOnUse">
<stop stop-color="#0154F5"/>
<stop offset="1" stop-color="#2DF0B3"/>
</linearGradient>
<clipPath id="clip0_3201_30822">
<rect x="3" y="3.39453" width="28.2109" height="28.2109" rx="5.37351" fill="white"/>
</clipPath>
<clipPath id="clip1_3201_30822">
<rect x="2.99927" y="3.39432" width="28.2109" height="28.2109" rx="5.33657" fill="white"/>
</clipPath>
</defs>
</svg>
