<svg width="449" height="448" viewBox="0 0 449 448" fill="none" xmlns="http://www.w3.org/2000/svg">
<g clip-path="url(#clip0_1_196)">
<mask id="mask0_1_196" style="mask-type:luminance" maskUnits="userSpaceOnUse" x="0" y="0" width="449" height="448">
<path d="M0.039978 0H448.04V448H0.039978V0Z" fill="white"/>
</mask>
<g mask="url(#mask0_1_196)">
<path d="M448.04 0H0.039978V448H448.04V0Z" fill="#F2F2F2"/>
<path d="M354.57 158.19L321.26 122.32C312.686 113.082 301.419 106.781 289.06 104.31L268.07 100.11C265.35 99.62 262.62 99.18 259.9 98.78L259.89 98.79V98.78C258.6 98.57 257.31 98.47 256.01 98.49C254.71 98.5 253.41 98.63 252.13 98.87L244.88 100.23L237.8 101.56C233.26 102.41 228.67 102.84 224.08 102.83C219.49 102.83 214.89 102.41 210.36 101.56L203.28 100.23L196.03 98.87C194.75 98.63 193.45 98.5 192.15 98.49C190.85 98.47 189.55 98.57 188.27 98.78V98.79L188.26 98.78C185.53 99.18 182.8 99.61 180.09 100.11L159.1 104.31C146.741 106.781 135.474 113.082 126.9 122.32L93.59 158.19C90.56 161.45 90.78 166.56 94.07 169.55L126.44 198.98C129.6 201.85 134.46 201.74 137.48 198.72L146.96 189.24C148.85 187.35 152.08 188.69 152.08 191.36V328.12C152.08 332.54 155.66 336.12 160.08 336.12H288.08C292.5 336.12 296.08 332.54 296.08 328.12V191.36C296.08 188.69 299.31 187.35 301.2 189.24L310.68 198.72C312.133 200.175 314.092 201.014 316.148 201.063C318.204 201.111 320.2 200.365 321.72 198.98L354.09 169.55C357.38 166.56 357.6 161.45 354.57 158.19ZM224.07 132.11H223.73H224.43H224.07Z" fill="#1F8A84"/>
<path d="M252.071 98.87L237.721 101.56C228.677 103.26 219.395 103.26 210.351 101.56L196.001 98.87C193.441 98.39 190.831 98.36 188.261 98.78C189.621 117.41 205.111 132.1 224.041 132.1C242.971 132.1 258.451 117.41 259.821 98.78C257.251 98.36 254.641 98.39 252.081 98.87H252.071Z" fill="#187F80"/>
<path d="M196.02 109.55L210.36 112.25C219.4 113.95 228.67 113.95 237.71 112.25L252.05 109.55C253.83 109.22 255.63 109.11 257.43 109.22C258.7 105.95 259.52 102.45 259.78 98.79C257.22 98.37 254.6 98.4 252.05 98.88L237.71 101.58C228.67 103.28 219.4 103.28 210.36 101.58L196.02 98.88C193.47 98.4 190.85 98.37 188.29 98.79C188.56 102.45 189.37 105.95 190.64 109.22C192.44 109.12 194.25 109.22 196.02 109.55Z" fill="#1F8A84"/>
<path d="M232.42 112.11H215.66C215.23 112.11 214.818 112.281 214.514 112.584C214.211 112.888 214.04 113.3 214.04 113.73V121.49C214.04 122.385 214.765 123.11 215.66 123.11H232.42C232.85 123.11 233.262 122.939 233.565 122.635C233.869 122.332 234.04 121.92 234.04 121.49V113.73C234.04 113.3 233.869 112.888 233.565 112.584C233.262 112.281 232.85 112.11 232.42 112.11Z" fill="white"/>
<path d="M185.2 96.07C186.85 95.78 188.38 96.93 188.65 98.59C191.38 115.68 206.18 128.75 224.04 128.75C241.9 128.75 256.7 115.69 259.43 98.59C259.69 96.93 261.22 95.78 262.88 96.07L268.81 97.11C270.4 97.39 271.49 98.89 271.24 100.49C267.6 123.28 247.86 140.7 224.04 140.7C200.22 140.7 180.48 123.28 176.84 100.49C176.59 98.89 177.68 97.39 179.27 97.11L185.2 96.07ZM95.85 155.74L93.62 158.14C90.59 161.4 90.81 166.51 94.1 169.5L126.471 198.93C129.631 201.8 134.491 201.69 137.511 198.67L140.071 196.11L95.85 155.74ZM352.29 155.74L354.52 158.14C357.55 161.4 357.33 166.51 354.04 169.5L321.67 198.93C318.51 201.8 313.65 201.69 310.63 198.67L308.07 196.11L352.29 155.74Z" fill="#59B1AB"/>
<path d="M267.02 218.12L256.65 222.27C253.688 223.46 250.382 223.46 247.42 222.27L237.05 218.12C235.569 217.528 234.299 216.505 233.404 215.184C232.509 213.864 232.031 212.305 232.03 210.71V175.11C232.03 173.45 233.37 172.11 235.03 172.11H269.03C270.69 172.11 272.03 173.45 272.03 175.11V210.71C272.03 213.97 270.04 216.91 267.01 218.12H267.02Z" fill="#3A9C97"/>
<path d="M235.04 172H269.04C270.7 172 272.04 173.34 272.04 175V184H232.04V175C232.04 173.34 233.38 172 235.04 172Z" fill="#59B1AB"/>
<path d="M288 284.11H152.04V312.11H282.84C286.207 307.035 288.002 301.08 288 294.99V284.11ZM152.04 264.11V272.11H287.57C287.37 269.44 287.11 266.77 286.78 264.11H152.04ZM283.86 246.53C283.73 245.76 283.64 244.99 283.53 244.23H152.04V252.23H284.86C284.52 250.34 284.19 248.54 283.91 246.81L283.87 246.54L283.86 246.53Z" fill="#106770"/>
<path opacity="0.5" d="M293.97 195.51C284.974 210.056 281.286 227.265 283.53 244.22H296.04V252.22H284.86C285.15 253.8 285.45 255.44 285.75 257.17C286.15 259.47 286.49 261.79 286.78 264.11H296.04V272.11H287.57C287.86 276.01 288.01 279.91 288.01 283.82V284.11H296.05V312.11H282.85C278.701 318.396 272.406 322.957 265.14 324.94C251.258 328.729 236.669 329.131 222.6 326.11L207.24 322.82C194.571 320.109 181.467 320.161 168.82 322.97L152.09 326.7V328.11C152.09 332.53 155.67 336.11 160.09 336.11H288.09C292.51 336.11 296.09 332.53 296.09 328.11V192.11L293.99 195.51H293.97Z" fill="#59B1AB"/>
<path d="M296.04 284.11H288V294.99C288 301.25 286.12 307.15 282.84 312.11H296.04V284.11ZM296.04 264.11H286.78C287.11 266.77 287.37 269.44 287.57 272.11H296.04V264.11ZM296.04 244.22H283.53C283.63 244.99 283.73 245.76 283.86 246.52L283.9 246.79C284.19 248.53 284.51 250.33 284.85 252.21H296.03V244.21L296.04 244.22Z" fill="#59B1AB"/>
<path d="M296.04 284.11H288V294.99C288 301.25 286.12 307.15 282.84 312.11H296.04V284.11ZM296.04 264.11H286.78C287.11 266.77 287.37 269.44 287.57 272.11H296.04V264.11ZM296.04 244.22H283.53C283.63 244.99 283.73 245.76 283.86 246.52L283.9 246.79C284.19 248.53 284.51 250.33 284.85 252.21H296.03V244.21L296.04 244.22Z" fill="#1F8A84"/>
<path opacity="0.5" d="M354.57 158.19L321.26 122.32C312.686 113.082 301.419 106.781 289.06 104.31L271.14 100.73C270.57 104.08 269.65 107.32 268.42 110.4L280.54 112.82C292.899 115.291 304.166 121.592 312.74 130.83L346.05 166.7C348.37 169.19 348.78 172.77 347.37 175.65L354.08 169.55C357.37 166.56 357.59 161.45 354.56 158.19H354.57Z" fill="#59B1AB"/>
</g>
</g>
<defs>
<clipPath id="clip0_1_196">
<rect width="449" height="448" fill="white"/>
</clipPath>
</defs>
</svg>
