<svg width="448" height="448" viewBox="0 0 448 448" fill="none" xmlns="http://www.w3.org/2000/svg">
<g clip-path="url(#clip0_1_232)">
<mask id="mask0_1_232" style="mask-type:luminance" maskUnits="userSpaceOnUse" x="0" y="0" width="448" height="448">
<path d="M0 0H448V448H0V0Z" fill="white"/>
</mask>
<g mask="url(#mask0_1_232)">
<path d="M448 0H0V448H448V0Z" fill="#F2F2F2"/>
<path d="M354.53 158.19L321.22 122.32C312.646 113.082 301.379 106.781 289.02 104.31L268.03 100.11C265.31 99.62 262.58 99.18 259.86 98.78L259.85 98.79V98.78C258.56 98.57 257.27 98.47 255.97 98.49C254.67 98.5 253.37 98.63 252.09 98.87L244.84 100.23L237.76 101.56C233.22 102.41 228.63 102.84 224.04 102.83C219.45 102.83 214.85 102.41 210.32 101.56L203.24 100.23L195.99 98.87C194.71 98.63 193.41 98.5 192.11 98.49C190.81 98.47 189.51 98.57 188.23 98.78V98.79L188.22 98.78C185.49 99.18 182.76 99.61 180.05 100.11L159.06 104.31C146.701 106.781 135.434 113.082 126.86 122.32L93.55 158.19C90.52 161.45 90.74 166.56 94.03 169.55L126.4 198.98C129.56 201.85 134.42 201.74 137.44 198.72L146.92 189.24C148.81 187.35 152.04 188.69 152.04 191.36V328.12C152.04 332.54 155.62 336.12 160.04 336.12H288.04C292.46 336.12 296.04 332.54 296.04 328.12V191.36C296.04 188.69 299.27 187.35 301.16 189.24L310.64 198.72C312.093 200.175 314.052 201.014 316.108 201.063C318.164 201.111 320.16 200.365 321.68 198.98L354.05 169.55C357.34 166.56 357.56 161.45 354.53 158.19ZM224.03 132.11H223.69H224.39H224.03Z" fill="#D6912B"/>
<path d="M195.98 109.55L210.32 112.25C219.36 113.95 228.63 113.95 237.67 112.25L252.01 109.55C253.79 109.22 255.59 109.11 257.39 109.22C258.66 105.95 259.48 102.45 259.74 98.79C257.18 98.37 254.56 98.4 252.01 98.88L237.67 101.58C228.63 103.28 219.36 103.28 210.32 101.58L195.98 98.88C193.43 98.4 190.81 98.37 188.25 98.79C188.52 102.45 189.33 105.95 190.6 109.22C192.4 109.12 194.21 109.22 195.98 109.55Z" fill="#D6912B"/>
<path d="M296 292.11H152V304.11H296V292.11ZM296 268.11H152V280.11H296V268.11ZM296 244.11H152V256.11H296V244.11ZM296 220.11H152V232.11H296V220.11ZM296 196.11H152V208.11H296V196.11ZM154.36 184.11H293.78C295.16 184.11 295.98 182.6 295.26 181.43C293.67 178.83 292.32 176.1 291.24 173.26C290.98 172.58 290.34 172.12 289.6 172.12H158.53C157.8 172.12 157.15 172.58 156.89 173.26C155.812 176.105 154.466 178.84 152.87 181.43C152.15 182.61 152.97 184.11 154.35 184.11H154.36Z" fill="#E8AF57"/>
<path opacity="0.1" d="M96.9 172.11H96.83L110.03 184.11H110.1L96.9 172.11ZM308.96 112.11H308.99C306.946 110.851 304.829 109.716 302.65 108.71C304.819 109.716 306.926 110.852 308.96 112.11ZM300.63 107.83C301.26 108.1 301.89 108.37 302.52 108.66C301.9 108.37 301.27 108.1 300.63 107.83ZM293.78 105.42C294.46 105.61 295.14 105.82 295.81 106.04C295.14 105.82 294.46 105.62 293.78 105.42ZM298.42 106.95C299.04 107.18 299.66 107.42 300.27 107.68C299.66 107.43 299.04 107.19 298.42 106.95ZM125.26 124.11H125.18L114.03 136.11H114.12L125.26 124.11Z" fill="black"/>
<path d="M161.82 148.11C160.85 148.11 160.07 148.89 160.07 149.86V156.01C160.07 156.77 160.05 157.53 160.01 158.28C159.96 159.28 160.76 160.11 161.75 160.11H286.38C287.38 160.11 288.17 159.28 288.12 158.28C288.08 157.52 288.06 156.77 288.06 156.01V149.86C288.06 148.89 287.28 148.11 286.31 148.11H161.81H161.82Z" fill="#E8AF57"/>
<path opacity="0.1" d="M102.97 148.11H102.89L91.75 160.11H91.83L102.97 148.11Z" fill="black"/>
<path d="M286.32 124.11H161.82C161.356 124.11 160.911 124.294 160.583 124.623C160.254 124.951 160.07 125.396 160.07 125.86V134.36C160.07 135.326 160.853 136.11 161.82 136.11H286.32C286.784 136.11 287.229 135.926 287.557 135.597C287.886 135.269 288.07 134.824 288.07 134.36V125.86C288.07 125.396 287.886 124.951 287.557 124.623C287.229 124.294 286.784 124.11 286.32 124.11ZM188.44 100.86H176.42C170.95 101.95 165.47 103.03 160 104.12V104.14H160.07V110.36C160.07 111.33 160.85 112.11 161.82 112.11H191.86C190.111 108.573 188.955 104.772 188.44 100.86ZM271.75 100.86H259.55C259.035 104.772 257.879 108.573 256.13 112.11H286.24C287.21 112.11 287.99 111.33 287.99 110.36V104.07C282.57 103 277.16 101.93 271.74 100.87L271.75 100.86Z" fill="#E8AF57"/>
<path d="M252.03 98.69L237.68 101.38C228.636 103.08 219.354 103.08 210.31 101.38L195.96 98.69C193.4 98.21 190.79 98.18 188.22 98.6C189.58 117.23 205.07 131.92 224 131.92C242.93 131.92 258.41 117.23 259.78 98.6C257.21 98.18 254.6 98.21 252.04 98.69H252.03Z" fill="#BD772A"/>
<path d="M195.96 109.36L210.3 112.06C219.34 113.76 228.61 113.76 237.65 112.06L251.99 109.36C253.77 109.03 255.57 108.92 257.37 109.03C258.64 105.76 259.46 102.26 259.72 98.6C257.16 98.18 254.54 98.21 251.99 98.69L237.65 101.39C228.61 103.09 219.34 103.09 210.3 101.39L195.96 98.69C193.41 98.21 190.79 98.18 188.23 98.6C188.5 102.26 189.31 105.76 190.58 109.03C192.38 108.93 194.19 109.03 195.96 109.36Z" fill="#D6912B"/>
<path d="M232.38 112.11H215.62C215.19 112.11 214.778 112.281 214.474 112.584C214.171 112.888 214 113.3 214 113.73V121.49C214 122.385 214.725 123.11 215.62 123.11H232.38C232.81 123.11 233.222 122.939 233.526 122.635C233.829 122.332 234 121.92 234 121.49V113.73C234 113.3 233.829 112.888 233.526 112.584C233.222 112.281 232.81 112.11 232.38 112.11Z" fill="white"/>
<path d="M185.16 96.07C186.81 95.78 188.34 96.93 188.61 98.59C191.34 115.68 206.14 128.75 224 128.75C241.86 128.75 256.66 115.69 259.39 98.59C259.65 96.93 261.18 95.78 262.84 96.07L268.77 97.11C270.36 97.39 271.45 98.89 271.2 100.49C267.56 123.28 247.82 140.7 224 140.7C200.18 140.7 180.44 123.28 176.8 100.49C176.55 98.89 177.64 97.39 179.23 97.11L185.16 96.07Z" fill="#995927"/>
<path d="M293.86 195.51C284.441 210.738 280.85 228.86 283.75 246.53L283.79 246.8C284.32 249.99 284.97 253.38 285.63 257.18C287.15 265.98 287.89 274.9 287.89 283.83V295C287.89 309 278.52 321.26 265.02 324.95C251.138 328.739 236.549 329.141 222.48 326.12L207.12 322.83C194.451 320.119 181.347 320.171 168.7 322.98L151.97 326.71V328.12C151.97 332.54 155.55 336.12 159.97 336.12H287.97C292.39 336.12 295.97 332.54 295.97 328.12V192.12L293.87 195.52L293.86 195.51ZM354.53 158.19L321.22 122.32C312.646 113.082 301.379 106.781 289.02 104.31L271.1 100.73C270.53 104.08 269.61 107.32 268.38 110.4L280.5 112.82C292.859 115.291 304.126 121.592 312.7 130.83L346.01 166.7C348.33 169.19 348.74 172.77 347.33 175.65L354.04 169.55C357.33 166.56 357.55 161.45 354.52 158.19H354.53Z" fill="#E8AF57"/>
<path opacity="0.35" d="M287.89 294.99C287.89 298.15 287.39 301.21 286.5 304.11H295.97V292.11H287.9V294.99H287.89ZM287.84 280.11H295.96V268.11H287.11C287.51 272.1 287.75 276.1 287.84 280.11ZM283.74 246.53L283.78 246.8C284.25 249.69 284.84 252.75 285.43 256.11H295.95V244.11H283.39C283.5 244.92 283.6 245.72 283.73 246.53H283.74ZM282.82 232.11H295.96V220.11H284.18C283.4 224.06 282.95 228.07 282.82 232.11ZM295.96 196.11H293.5C291.189 199.925 289.227 203.941 287.64 208.11H295.96V196.11Z" fill="white"/>
<path d="M152 316.11H296V328.11C296 332.53 292.42 336.11 288 336.11H160C155.58 336.11 152 332.53 152 328.11V316.11Z" fill="#995927"/>
<path opacity="0.15" d="M265.01 324.94C251.128 328.729 236.539 329.131 222.47 326.11L207.11 322.82C194.441 320.109 181.337 320.161 168.69 322.97L151.99 326.69V328.11C151.99 332.53 155.57 336.11 159.99 336.11H287.95C292.37 336.11 295.95 332.53 295.95 328.11V316.11H279.56C275.627 320.356 270.583 323.415 265 324.94H265.01Z" fill="#E8AF57"/>
</g>
</g>
<defs>
<clipPath id="clip0_1_232">
<rect width="448" height="448" fill="white"/>
</clipPath>
</defs>
</svg>
