<svg width="449" height="448" viewBox="0 0 449 448" fill="none" xmlns="http://www.w3.org/2000/svg">
<g clip-path="url(#clip0_1_215)">
<mask id="mask0_1_215" style="mask-type:luminance" maskUnits="userSpaceOnUse" x="0" y="0" width="449" height="448">
<path d="M0.0400391 0H448.04V448H0.0400391V0Z" fill="white"/>
</mask>
<g mask="url(#mask0_1_215)">
<path d="M448.04 0H0.0400391V448H448.04V0Z" fill="#F2F2F2"/>
<path d="M354.57 158.19L321.26 122.32C312.686 113.082 301.419 106.781 289.06 104.31L268.07 100.11C265.35 99.62 262.62 99.18 259.9 98.78L259.89 98.79V98.78C258.6 98.57 257.31 98.47 256.01 98.49C254.71 98.5 253.41 98.63 252.13 98.87L244.88 100.23L237.8 101.56C233.26 102.41 228.67 102.84 224.08 102.83C219.49 102.83 214.89 102.41 210.36 101.56L203.28 100.23L196.03 98.87C194.75 98.63 193.45 98.5 192.15 98.49C190.85 98.47 189.55 98.57 188.27 98.78V98.79L188.26 98.78C185.53 99.18 182.8 99.61 180.09 100.11L159.1 104.31C146.741 106.781 135.474 113.082 126.9 122.32L93.59 158.19C90.56 161.45 90.78 166.56 94.07 169.55L126.44 198.98C129.6 201.85 134.46 201.74 137.48 198.72L146.96 189.24C148.85 187.35 152.08 188.69 152.08 191.36V328.12C152.08 332.54 155.66 336.12 160.08 336.12H288.08C292.5 336.12 296.08 332.54 296.08 328.12V191.36C296.08 188.69 299.31 187.35 301.2 189.24L310.68 198.72C312.133 200.175 314.092 201.014 316.148 201.063C318.204 201.111 320.2 200.365 321.72 198.98L354.09 169.55C357.38 166.56 357.6 161.45 354.57 158.19ZM224.07 132.11H223.73H224.43H224.07Z" fill="#6C7278"/>
<path d="M252.07 98.87L237.72 101.56C228.676 103.26 219.394 103.26 210.35 101.56L196 98.87C193.44 98.39 190.83 98.36 188.26 98.78C189.62 117.41 205.11 132.1 224.04 132.1C242.97 132.1 258.45 117.41 259.82 98.78C257.25 98.36 254.64 98.39 252.08 98.87H252.07Z" fill="#5B6167"/>
<path d="M196.02 109.55L210.36 112.25C219.4 113.95 228.67 113.95 237.71 112.25L252.05 109.55C253.83 109.22 255.63 109.11 257.43 109.22C258.7 105.95 259.52 102.45 259.78 98.79C257.22 98.37 254.6 98.4 252.05 98.88L237.71 101.58C228.67 103.28 219.4 103.28 210.36 101.58L196.02 98.88C193.47 98.4 190.85 98.37 188.29 98.79C188.56 102.45 189.37 105.95 190.64 109.22C192.44 109.12 194.25 109.22 196.02 109.55Z" fill="#6C7278"/>
<path d="M232.42 112.11H215.66C215.23 112.11 214.818 112.281 214.515 112.584C214.211 112.888 214.04 113.3 214.04 113.73V121.49C214.04 122.385 214.765 123.11 215.66 123.11H232.42C232.85 123.11 233.262 122.939 233.566 122.635C233.869 122.332 234.04 121.92 234.04 121.49V113.73C234.04 113.3 233.869 112.888 233.566 112.584C233.262 112.281 232.85 112.11 232.42 112.11Z" fill="white"/>
<path d="M160.04 155.95V104.07L159.09 104.26C146.733 106.731 135.468 113.029 126.89 122.26L95.8301 155.71L140.05 196.08L145.79 190.34C154.912 181.22 160.038 168.849 160.04 155.95ZM321.19 122.27C312.614 113.037 301.348 106.739 288.99 104.27L288.04 104.08V155.96C288.04 168.86 293.16 181.23 302.29 190.35L308.08 196.11L352.28 155.75L321.19 122.27Z" fill="#818990"/>
<path d="M174.04 226.11C174.04 228.93 174.28 231.7 174.73 234.4C174.89 235.38 175.73 236.11 176.72 236.11H271.37C272.36 236.11 273.2 235.38 273.36 234.4C273.81 231.7 274.05 228.93 274.05 226.11V226.09C274.05 224.99 273.14 224.11 272.04 224.11H176.06C174.96 224.11 174.05 224.99 174.05 226.09V226.11H174.04ZM270.5 216.11C271.81 216.11 272.78 214.87 272.45 213.59C266.89 192.03 247.32 176.11 224.03 176.11C200.74 176.11 181.17 192.04 175.61 213.59C175.534 213.888 175.527 214.199 175.589 214.5C175.651 214.801 175.782 215.083 175.97 215.326C176.158 215.569 176.399 215.766 176.674 215.902C176.95 216.038 177.253 216.109 177.56 216.11H270.5ZM178.58 246.95C179.11 248.1 179.68 249.24 180.29 250.34C180.9 251.44 182.02 252.11 183.26 252.11H264.81C266.05 252.11 267.18 251.42 267.78 250.34C268.38 249.26 268.96 248.1 269.49 246.95C270.1 245.62 269.11 244.11 267.65 244.11H180.43C178.97 244.11 177.98 245.62 178.59 246.95H178.58ZM197.57 264.11C195.58 264.11 194.79 266.7 196.45 267.8C204.625 273.233 214.225 276.124 224.04 276.11C234.24 276.11 243.72 273.05 251.63 267.8C253.29 266.7 252.5 264.11 250.51 264.11H197.57Z" fill="#EB836F"/>
<path d="M95.8501 155.74L93.6201 158.14C90.5901 161.4 90.8101 166.51 94.1001 169.5L126.47 198.93C129.63 201.8 134.49 201.69 137.51 198.67L140.07 196.11L95.8501 155.74ZM185.2 96.07C186.85 95.78 188.38 96.93 188.65 98.59C191.38 115.68 206.18 128.75 224.04 128.75C241.9 128.75 256.7 115.69 259.43 98.59C259.69 96.93 261.22 95.78 262.88 96.07L268.81 97.11C270.4 97.39 271.49 98.89 271.24 100.49C267.6 123.28 247.86 140.7 224.04 140.7C200.22 140.7 180.48 123.28 176.84 100.49C176.59 98.89 177.68 97.39 179.27 97.11L185.2 96.07Z" fill="#42474C"/>
<path d="M293.9 195.51C284.481 210.738 280.89 228.86 283.79 246.53L283.83 246.8C284.36 249.99 285.01 253.38 285.67 257.18C287.19 265.98 287.93 274.9 287.93 283.83V295C287.93 309 278.56 321.26 265.06 324.95C251.178 328.739 236.589 329.141 222.52 326.12L207.16 322.83C194.491 320.119 181.387 320.171 168.74 322.98L152.01 326.71V328.12C152.01 332.54 155.59 336.12 160.01 336.12H288.01C292.43 336.12 296.01 332.54 296.01 328.12V192.12L293.91 195.52L293.9 195.51Z" fill="#818990"/>
<path opacity="0.4" d="M354.57 158.19L321.26 122.32C312.686 113.082 301.419 106.781 289.06 104.31L271.14 100.73C270.57 104.08 269.65 107.32 268.42 110.4L280.54 112.82C292.899 115.291 304.166 121.592 312.74 130.83L346.05 166.7C348.37 169.19 348.78 172.77 347.37 175.65L354.08 169.55C357.37 166.56 357.59 161.45 354.56 158.19H354.57Z" fill="#9FA5AB"/>
<path d="M352.29 155.74L354.52 158.14C357.55 161.4 357.33 166.51 354.04 169.5L321.67 198.93C318.51 201.8 313.65 201.69 310.63 198.67L308.07 196.11L352.29 155.74Z" fill="#42474C"/>
</g>
</g>
<defs>
<clipPath id="clip0_1_215">
<rect width="449" height="448" fill="white"/>
</clipPath>
</defs>
</svg>
